#FOL_Flower_MID_03.obj
#Friday, January 12, 2018
#3:38:37 PM
#-------

mtllib FOL_Flower_MID_03.mtl
#FOL_Flower_MID_03
#-------
g FOL_Flower_MID_03
v 0.06830785 0.1609597 0.03887381
v 0.05196996 0.2379489 0.05174704
v 0.07897191 0.2379489 0.05174704
v 0.04662329 0.1609597 0.03887381
v 0.03994848 0.07578119 0.02362083
v 0.02708227 0.07578119 0.02362083
v 0.007162837 -0.003903866 0.001798628
v -0.001518803 -0.003903866 0.001798628
v 0.007162837 -0.003903866 -0.006883013
v 0.0271018 0.07520441 0.009483255
v -0.001518803 -0.003903866 -0.006883013
v 0.007162837 -0.003903866 -0.006883013
v 0.03993139 0.07520441 0.009483255
v 0.06830297 0.1608148 0.01720237
v 0.04662817 0.1608148 0.01720237
v 0.07897191 0.2379489 0.02474723
v 0.05196996 0.2379489 0.02474723
v 0.03993139 0.07520441 0.009483255
v 0.05196996 0.2379489 0.02474723
v 0.04662329 0.1609597 0.03887381
v 0.04662817 0.1608148 0.01720237
v 0.05196996 0.2379489 0.05174704
v 0.02708227 0.07578119 0.02362083
v 0.0271018 0.07520441 0.009483255
v -0.001518803 -0.003903866 0.001798628
v -0.001518803 -0.003903866 -0.006883013
v 0.03994848 0.07578119 0.02362083
v 0.007162837 -0.003903866 -0.006883013
v 0.007162837 -0.003903866 0.001798628
v 0.007162837 -0.003903866 -0.006883013
v 0.03993139 0.07520441 0.009483255
v 0.06830297 0.1608148 0.01720237
v 0.06830785 0.1609597 0.03887381
v 0.07897191 0.2379489 0.05174704
v 0.07897191 0.2379489 0.02474723
v 0.03993139 0.07520441 0.009483255
v 0.05362524 0.196087 -0.02052957
v 0.127761 0.1993264 0.02466208
v 0.1219163 0.2228042 -0.0031199
v 0.05332251 0.1702044 0.005685644
v 0.03944311 0.2000384 -0.01718148
v 0.003171138 0.2340402 0.0540731
v 0.03786596 0.1745108 0.009334326
v 0.007612056 0.2546524 0.02386343
v 0.08106909 0.292889 0.04955252
v 0.008803463 0.2465969 0.06309775
v 0.01277563 0.2661724 0.03214314
v 0.08323706 0.2757186 0.08207449
v 0.1270798 0.2343243 0.005160128
v 0.09869359 0.2714129 0.07842609
v 0.09524877 0.2889382 0.04620504
v 0.1333884 0.2118838 0.03368705
v 0.1270798 0.2343243 0.005160128
v 0.127761 0.1993264 0.02466208
v 0.1333884 0.2118838 0.03368705
v 0.1219163 0.2228042 -0.0031199
v 0.05362524 0.196087 -0.02052957
v 0.03786596 0.1745108 0.009334326
v 0.05332251 0.1702044 0.005685644
v 0.03944311 0.2000384 -0.01718148
v 0.003171138 0.2340402 0.0540731
v 0.01277563 0.2661724 0.03214314
v 0.008803463 0.2465969 0.06309775
v 0.007612056 0.2546524 0.02386343
v 0.09869359 0.2714129 0.07842609
v 0.08106909 0.292889 0.04955252
v 0.09524877 0.2889382 0.04620504
v 0.08323706 0.2757186 0.08207449
v 0.05703345 0.2280618 0.002799595
v 0.05362524 0.196087 -0.02052957
v 0.06227514 0.2266012 0.001562107
v 0.03944311 0.2000384 -0.01718148
v 0.007612056 0.2546524 0.02386343
v 0.04527319 0.248244 0.01796774
v 0.01277563 0.2661724 0.03214314
v 0.08751196 0.2364749 0.007995822
v 0.1219163 0.2228042 -0.0031199
v 0.06754614 0.2398849 0.02079245
v 0.07241918 0.2623754 0.02746115
v 0.08106909 0.292889 0.04955252
v 0.04717993 0.2525021 0.02102772
v 0.09524877 0.2889382 0.04620504
v 0.07765844 0.2609155 0.02622427
v 0.08941869 0.2407327 0.01105612
v 0.1270798 0.2343243 0.005160128
v 0.1270798 0.2343243 0.005160128
v 0.01277563 0.2661724 0.03214314
v 0.04527319 0.248244 0.01796774
v 0.04717993 0.2525021 0.02102772
v 0.06754614 0.2398849 0.02079245
v 0.08941869 0.2407327 0.01105612
v 0.08751196 0.2364749 0.007995822
v 0.1219163 0.2228042 -0.0031199
v 0.008803463 0.2465969 0.06309775
v 0.1333884 0.2118838 0.03368705
v 0.003171138 0.2340402 0.0540731
v 0.03786596 0.1745108 0.009334326
v 0.127761 0.1993264 0.02466208
v 0.05332251 0.1702044 0.005685644
v 0.08323706 0.2757186 0.08207449
v 0.09869359 0.2714129 0.07842609
v -0.02672632 0.3078066 -0.06454309
v 0.03045874 0.3179458 0.02412871
v 0.02217504 0.3537853 -0.001696108
v -0.02284204 0.2678295 -0.04437379
v -0.04467066 0.3049352 -0.06753366
v -0.1272024 0.2927163 -0.002148605
v -0.04239527 0.2647003 -0.04763291
v -0.1224709 0.3306386 -0.02580415
v -0.07766626 0.3867705 0.0518546
v -0.1316628 0.3037838 0.01399718
v -0.1265652 0.3407922 -0.01099176
v -0.07836207 0.3539004 0.0824999
v 0.01808081 0.3639388 0.01311598
v -0.0588064 0.35703 0.08575979
v -0.05971949 0.3896419 0.05484563
v 0.02600073 0.3290133 0.04027517
v 0.01808081 0.3639388 0.01311598
v 0.03045874 0.3179458 0.02412871
v 0.02600073 0.3290133 0.04027517
v 0.01808081 0.3639388 0.01311598
v 0.02217504 0.3537853 -0.001696108
v -0.02672632 0.3078066 -0.06454309
v -0.04239527 0.2647003 -0.04763291
v -0.02284204 0.2678295 -0.04437379
v -0.04467066 0.3049352 -0.06753366
v -0.1272024 0.2927163 -0.002148605
v -0.1265652 0.3407922 -0.01099176
v -0.1316628 0.3037838 0.01399718
v -0.1224709 0.3306386 -0.02580415
v -0.0588064 0.35703 0.08575979
v -0.07766626 0.3867705 0.0518546
v -0.05971949 0.3896419 0.05484563
v -0.07836207 0.3539004 0.0824999
v -0.04941431 0.3316369 -0.02895685
v -0.02672632 0.3078066 -0.06454309
v -0.04278345 0.3326977 -0.02785196
v -0.04467066 0.3049352 -0.06753366
v -0.1224709 0.3306386 -0.02580415
v -0.07816675 0.3411355 -0.01353571
v -0.1265652 0.3407922 -0.01099176
v -0.07968042 0.3448876 -0.008061464
v -0.06160913 0.3618792 0.01516378
v -0.07766626 0.3867705 0.0518546
v -0.05971949 0.3896419 0.05484563
v -0.05497584 0.3629409 0.01626913
v -0.02622339 0.3534417 0.0008475322
v 0.01808081 0.3639388 0.01311598
v 0.02217504 0.3537853 -0.001696108
v -0.02470972 0.3496899 -0.004626253
v -0.05185572 0.3394991 -0.0009106611
v -0.1316628 0.3037838 0.01399718
v 0.03045874 0.3179458 0.02412871
v -0.1272024 0.2927163 -0.002148605
v -0.04239527 0.2647003 -0.04763291
v -0.02284204 0.2678295 -0.04437379
v -0.07836207 0.3539004 0.0824999
v -0.0588064 0.35703 0.08575979
v 0.02600073 0.3290133 0.04027517
v -0.03021753 0.2116818 0.03478597
v -0.0545608 0.3162698 0.02037252
v -0.02755884 0.3162698 0.02037252
v -0.0519021 0.2116818 0.03478597
v -0.01956812 0.08537165 0.02362083
v -0.03243433 0.08537165 0.02362083
v -0.002871342 -0.003903866 0.001798628
v -0.01155298 -0.003903866 0.001798628
v -0.002871342 -0.003903866 -0.006883013
v -0.03241724 0.08479486 0.009483255
v -0.01155298 -0.003903866 -0.006883013
v -0.01958765 0.08479486 0.009483255
v -0.03022242 0.2115368 0.01311423
v -0.05189722 0.2115368 0.01311423
v -0.02755884 0.3162698 -0.006627594
v -0.0545608 0.3162698 -0.006627594
v -0.01958765 0.08479486 0.009483255
v -0.0545608 0.3162698 -0.006627594
v -0.0519021 0.2116818 0.03478597
v -0.05189722 0.2115368 0.01311423
v -0.0545608 0.3162698 0.02037252
v -0.03243433 0.08537165 0.02362083
v -0.03241724 0.08479486 0.009483255
v -0.01155298 -0.003903866 0.001798628
v -0.01155298 -0.003903866 -0.006883013
v -0.01956812 0.08537165 0.02362083
v -0.002871342 -0.003903866 -0.006883013
v -0.002871342 -0.003903866 0.001798628
v -0.01958765 0.08479486 0.009483255
v -0.03022242 0.2115368 0.01311423
v -0.03021753 0.2116818 0.03478597
v -0.02755884 0.3162698 0.02037252
v -0.02755884 0.3162698 -0.006627594

vn 0 0.1697284 -0.9854909
vn 0 0.1649187 -0.9863071
vn 0 0.1649187 -0.9863071
vn 0 0.1710958 -0.9852543
vn 0 0.2104974 -0.9775944
vn 0 0.2279238 -0.973679
vn 0 0.2641302 -0.964487
vn 0 0.2641302 -0.964487
vn 0 -0.2025942 0.9792628
vn 0 -0.1562026 0.987725
vn 0 -0.2025942 0.9792628
vn 0 -0.2025942 0.9792628
vn 0 -0.1334892 0.9910502
vn 0 -0.09415749 0.9955574
vn 0 -0.09324186 0.9956435
vn 0 -0.09735022 0.9952502
vn 0 -0.09735023 0.9952502
vn 0 -0.1334892 0.9910502
vn 0.9975987 -0.06925939 0.0001146855
vn 0.9903915 -0.1382877 0.001071874
vn 0.9884022 -0.1518494 0.001689536
vn 0.9975972 -0.06928033 3.02834E-09
vn 0.961876 -0.2732328 0.01177051
vn 0.957131 -0.2893788 0.01265468
vn 0.940307 -0.3403247 0.001346598
vn 0.9403498 -0.3402094 1.487103E-08
vn -0.9385678 0.3448955 -0.01173066
vn -0.9245669 0.3810164 -0.001599697
vn -0.9247836 0.3804933 -1.663189E-08
vn -0.9245669 0.3810164 -0.001599697
vn -0.9350035 0.3543881 -0.01332802
vn -0.9724156 0.2332485 -0.001764365
vn -0.9759884 0.217819 -0.001237082
vn -0.9905617 0.1370675 -0.0001252682
vn -0.9905694 0.1370124 -5.989004E-09
vn -0.9350035 0.3543881 -0.01332802
vn -0.4162939 0.6494113 0.636368
vn -0.4162956 0.6494071 0.6363713
vn -0.4162968 0.6494042 0.6363734
vn -0.4162928 0.6494138 0.6363662
vn 0.902725 0.2818527 0.3250335
vn 0.9027237 0.281863 0.325028
vn 0.9027256 0.2818466 0.3250368
vn 0.902723 0.2818699 0.3250243
vn 0.422392 -0.7896169 -0.4450732
vn 0.4223765 -0.7896039 -0.4451109
vn 0.4223663 -0.7895952 -0.445136
vn 0.4224011 -0.7896246 -0.445051
vn -0.8966407 -0.4220802 -0.1337302
vn -0.8966373 -0.4220893 -0.1337243
vn -0.8966351 -0.4220954 -0.1337203
vn -0.8966427 -0.4220748 -0.1337337
vn -0.9251032 0.1709337 0.3390661
vn -0.9251127 0.1709222 0.3390458
vn -0.9251177 0.1709163 0.3390354
vn -0.9250979 0.17094 0.3390772
vn 0.3420784 0.6666949 0.6621935
vn 0.3420708 0.6666996 0.6621928
vn 0.3420669 0.6667019 0.6621925
vn 0.3420826 0.6666924 0.6621939
vn 0.9326695 -0.3467231 -0.09955242
vn 0.9327025 -0.3466634 -0.09945058
vn 0.9326525 -0.3467537 -0.09960466
vn 0.9327207 -0.3466308 -0.09939468
vn -0.3344112 -0.8424289 -0.4224721
vn -0.3344362 -0.8424272 -0.4224556
vn -0.3344499 -0.8424264 -0.4224466
vn -0.3343984 -0.8424298 -0.4224806
vn -0.05600463 -0.6661894 0.7436767
vn 0.02567482 -0.5909957 0.8062659
vn 0.02507355 -0.6887822 0.7245347
vn 0.02567248 -0.5909948 0.8062668
vn 0.02565782 -0.5909898 0.8062708
vn -0.1017192 -0.5877995 0.8025863
vn 0.02566392 -0.5909851 0.8062741
vn 0.1230818 -0.6504162 0.7495395
vn 0.02566225 -0.5909968 0.8062656
vn 0.02567613 -0.5909822 0.8062758
vn 0.0258533 -0.4835988 0.8749079
vn 0.02567059 -0.5909991 0.8062636
vn -0.07214244 -0.5219425 0.8499243
vn 0.02566707 -0.590996 0.8062661
vn 0.106919 -0.5061939 0.8557663
vn 0.152645 -0.5845633 0.7968596
vn 0.02566036 -0.5909972 0.8062654
vn 0.02566036 -0.5909972 0.8062654
vn 0.02566392 -0.5909851 0.8062741
vn -0.1017192 -0.5877995 0.8025863
vn -0.07214244 -0.5219425 0.8499243
vn 0.02567613 -0.5909822 0.8062758
vn 0.152645 -0.5845633 0.7968596
vn 0.1230818 -0.6504162 0.7495395
vn 0.02566225 -0.5909968 0.8062656
vn -0.02566796 0.5909902 -0.8062702
vn -0.02566695 0.5909846 -0.8062744
vn -0.02566906 0.5909876 -0.8062721
vn -0.0256695 0.5909882 -0.8062716
vn -0.025663 0.5909755 -0.8062811
vn -0.02567098 0.5909954 -0.8062664
vn -0.02567108 0.5909916 -0.8062692
vn -0.02568344 0.5909851 -0.8062735
vn -0.8358777 0.1803547 0.5184407
vn -0.8358766 0.1803646 0.5184389
vn -0.835876 0.1803712 0.5184377
vn -0.8358783 0.1803488 0.5184417
vn 0.5322789 0.3992999 0.7464843
vn 0.5322909 0.3992668 0.7464933
vn 0.5322718 0.3993194 0.746479
vn 0.532299 0.3992449 0.7464994
vn 0.8443896 -0.3747809 -0.3828126
vn 0.8443908 -0.3747845 -0.3828065
vn 0.8443916 -0.3747869 -0.3828025
vn 0.8443888 -0.3747787 -0.3828162
vn -0.5237694 -0.5937562 -0.6108347
vn -0.5237826 -0.5937328 -0.6108463
vn -0.5237913 -0.5937172 -0.6108541
vn -0.5237617 -0.5937701 -0.6108279
vn -0.958187 -0.275975 -0.07559993
vn -0.9582033 -0.2759509 -0.07548091
vn -0.9582117 -0.2759386 -0.07541984
vn -0.958187 -0.275975 -0.07559993
vn -0.9581781 -0.2759883 -0.07566529
vn -0.21444 0.4232654 0.8802624
vn -0.2144534 0.4232684 0.8802577
vn -0.2144602 0.42327 0.8802553
vn -0.2144328 0.4232637 0.8802651
vn 0.9688491 0.03232261 0.2455339
vn 0.9688342 0.03233326 0.2455908
vn 0.9688566 0.03231714 0.2455047
vn 0.9688261 0.03233912 0.245622
vn 0.225124 -0.6669638 -0.7102665
vn 0.2251 -0.6669754 -0.7102633
vn 0.2250868 -0.6669818 -0.7102614
vn 0.2251363 -0.6669579 -0.7102681
vn 0.02011718 -0.8856783 0.4638636
vn 0.03587011 -0.8196472 0.5717445
vn 0.1042079 -0.8722186 0.4778864
vn 0.03587193 -0.8196469 0.5717449
vn 0.03586926 -0.8196427 0.571751
vn -0.07140791 -0.855445 0.512947
vn 0.03586538 -0.819643 0.5717508
vn -0.09058157 -0.807867 0.5823624
vn -0.03304184 -0.7537624 0.6563159
vn 0.03585602 -0.8196462 0.5717468
vn 0.03586296 -0.8196478 0.5717443
vn 0.05105498 -0.7403076 0.6703269
vn 0.1425612 -0.7705467 0.621236
vn 0.03587224 -0.8196387 0.5717566
vn 0.03586755 -0.8196406 0.5717543
vn 0.1617218 -0.8181278 0.5518269
vn 0.03585645 -0.8196533 0.5717368
vn -0.03586873 0.8196441 -0.5717492
vn -0.03586613 0.8196506 -0.57174
vn -0.03586913 0.819644 -0.5717493
vn -0.03587291 0.8196486 -0.5717423
vn -0.0358788 0.8196513 -0.5717382
vn -0.03586778 0.8196486 -0.5717427
vn -0.0358643 0.8196518 -0.5717383
vn -0.03585591 0.819658 -0.5717301
vn 0 -0.02235176 -0.9997502
vn 0 -0.1365213 -0.9906371
vn 0 -0.1365213 -0.9906371
vn 0 -0.03104311 -0.999518
vn 0 0.169311 -0.9855627
vn 0 0.154043 -0.9880641
vn 0 0.2374459 -0.9714007
vn 0 0.2374459 -0.9714007
vn 0 -0.1814522 0.9833997
vn 0 -0.09586164 0.9953946
vn 0 -0.1814522 0.9833997
vn 0 -0.1116651 0.9937459
vn 0 0.07681103 0.9970457
vn 0 0.08508302 0.9963738
vn 0 0.1852347 0.9826943
vn 0 0.1852347 0.9826943
vn 0 -0.1116651 0.9937459
vn 0.9996769 0.0254154 7.587994E-06
vn 0.9959517 0.08988906 -0.0003814152
vn 0.9962652 0.08634418 -0.0004920251
vn 0.9996771 0.0254124 -1.110811E-09
vn 0.9825659 0.1858126 -0.006154038
vn 0.9809093 0.1943565 -0.006511187
vn 0.9734186 0.2290323 -0.0006789047
vn 0.9734319 0.2289766 -1.000889E-08
vn -0.9917006 -0.1284229 0.006118695
vn -0.9828985 -0.1841457 0.0009333549
vn -0.9829566 -0.1838377 8.035802E-09
vn -0.9901302 -0.1399716 0.007078421
vn -0.9996351 -0.02700536 0.0005348304
vn -0.9995484 -0.03004673 0.0004261846
vn -0.9996768 0.02542337 6.660691E-06
vn -0.9996767 0.02542383 -1.111311E-09

vt 0.774198 0.95154
vt 0.770871 0.978275
vt 0.780161 0.977495
vt 0.766894 0.951413
vt 0.767279 0.921636
vt 0.762831 0.921184
vt 0.759635 0.891526
vt 0.756603 0.891109
vt 0.762323 0.890096
vt 0.775256 0.916579
vt 0.76465 0.88816
vt 0.762323 0.890096
vt 0.771662 0.919348
vt 0.780788 0.948725
vt 0.787026 0.944946
vt 0.788759 0.973936
vt 0.79716 0.969827
vt 0.771662 0.919348
vt 0.79716 0.969827
vt 0.79421 0.942797
vt 0.787026 0.944946
vt 0.806127 0.967154
vt 0.780112 0.915582
vt 0.775256 0.916579
vt 0.767626 0.88768
vt 0.76465 0.88816
vt 0.767279 0.921636
vt 0.762323 0.890096
vt 0.759635 0.891526
vt 0.762323 0.890096
vt 0.771662 0.919348
vt 0.780788 0.948725
vt 0.774198 0.95154
vt 0.780161 0.977495
vt 0.788759 0.973936
vt 0.771662 0.919348
vt 0.218644 0.618542
vt 0.180393 0.60043
vt 0.183812 0.616896
vt 0.222858 0.602085
vt 0.221563 0.620703
vt 0.24246 0.66078
vt 0.238641 0.615774
vt 0.223772 0.656951
vt 0.185927 0.656132
vt 0.224178 0.674243
vt 0.22076 0.657777
vt 0.181715 0.672589
vt 0.1808 0.617722
vt 0.165931 0.6589
vt 0.183009 0.65397
vt 0.162112 0.613894
vt 0.1808 0.617722
vt 0.180393 0.60043
vt 0.162112 0.613894
vt 0.183812 0.616896
vt 0.218644 0.618542
vt 0.238641 0.615774
vt 0.222858 0.602085
vt 0.221563 0.620703
vt 0.24246 0.66078
vt 0.22076 0.657777
vt 0.224178 0.674243
vt 0.223772 0.656951
vt 0.165931 0.6589
vt 0.185927 0.656132
vt 0.183009 0.65397
vt 0.181715 0.672589
vt 0.2091 0.632519
vt 0.218644 0.618542
vt 0.207258 0.6311
vt 0.221563 0.620703
vt 0.223772 0.656951
vt 0.209345 0.645282
vt 0.22076 0.657777
vt 0.195344 0.629654
vt 0.183812 0.616896
vt 0.202286 0.637337
vt 0.197313 0.643573
vt 0.185927 0.656132
vt 0.209227 0.64502
vt 0.183009 0.65397
vt 0.195472 0.642155
vt 0.195227 0.629392
vt 0.1808 0.617722
vt 0.1808 0.617722
vt 0.22076 0.657777
vt 0.209345 0.645282
vt 0.209227 0.64502
vt 0.202286 0.637337
vt 0.195227 0.629392
vt 0.195344 0.629654
vt 0.183812 0.616896
vt 0.173893 0.671473
vt 0.148337 0.670659
vt 0.173792 0.674644
vt 0.162243 0.685481
vt 0.148236 0.67383
vt 0.159072 0.68538
vt 0.163057 0.659924
vt 0.159887 0.659823
vt 0.115189 0.614441
vt 0.074914 0.628312
vt 0.09025 0.637589
vt 0.10658 0.600069
vt 0.118574 0.614638
vt 0.156194 0.626883
vt 0.126156 0.600693
vt 0.143278 0.636089
vt 0.120028 0.661712
vt 0.160303 0.64784
vt 0.144967 0.638564
vt 0.128637 0.676084
vt 0.091939 0.640064
vt 0.10906 0.675459
vt 0.116642 0.661515
vt 0.079022 0.649269
vt 0.091939 0.640064
vt 0.074914 0.628312
vt 0.079022 0.649269
vt 0.091939 0.640064
vt 0.09025 0.637589
vt 0.115189 0.614441
vt 0.126156 0.600693
vt 0.10658 0.600069
vt 0.118574 0.614638
vt 0.156194 0.626883
vt 0.144967 0.638564
vt 0.160303 0.64784
vt 0.143278 0.636089
vt 0.10906 0.675459
vt 0.120028 0.661712
vt 0.116642 0.661515
vt 0.128637 0.676084
vt 0.118394 0.630353
vt 0.115189 0.614441
vt 0.116291 0.630753
vt 0.118574 0.614638
vt 0.143278 0.636089
vt 0.126984 0.638131
vt 0.144967 0.638564
vt 0.127589 0.638205
vt 0.118926 0.645399
vt 0.120028 0.661712
vt 0.116642 0.661515
vt 0.116823 0.6458
vt 0.108233 0.638022
vt 0.091939 0.640064
vt 0.09025 0.637589
vt 0.107627 0.637948
vt 0.117609 0.638076
vt 0.171624 0.595347
vt 0.143605 0.595847
vt 0.171261 0.598778
vt 0.157864 0.609607
vt 0.154434 0.609243
vt 0.160795 0.581951
vt 0.157365 0.581587
vt 0.143968 0.592416
vt 0.974552 0.738574
vt 0.986119 0.703122
vt 0.976936 0.702345
vt 0.982046 0.738894
vt 0.970456 0.782773
vt 0.974907 0.782656
vt 0.96748 0.815159
vt 0.970467 0.814899
vt 0.964536 0.815559
vt 0.961079 0.782566
vt 0.96167 0.814899
vt 0.965543 0.78322
vt 0.966908 0.737965
vt 0.959164 0.737438
vt 0.967894 0.700433
vt 0.958664 0.700371
vt 0.965543 0.78322
vt 0.958664 0.700371
vt 0.951647 0.73806
vt 0.959164 0.737438
vt 0.949635 0.702134
vt 0.956185 0.782162
vt 0.961079 0.782566
vt 0.958761 0.814414
vt 0.96167 0.814899
vt 0.970456 0.782773
vt 0.964536 0.815559
vt 0.96748 0.815159
vt 0.965543 0.78322
vt 0.966908 0.737965
vt 0.974552 0.738574
vt 0.976936 0.702345
vt 0.967894 0.700433

usemtl MAT_Leaf_01
f 1/1/1 2/2/2 3/3/3
f 2/2/2 1/1/1 4/4/4
f 5/5/5 4/4/4 1/1/1
f 4/4/4 5/5/5 6/6/6
f 7/7/7 6/6/6 5/5/5
f 6/6/6 7/7/7 8/8/8
f 9/9/9 10/10/10 11/11/11
f 10/10/10 12/12/12 13/13/13
f 10/10/10 14/14/14 15/15/15
f 16/16/16 15/15/15 14/14/14
f 15/15/15 16/16/16 17/17/17
f 14/14/14 10/10/10 18/18/18
f 19/19/19 20/20/20 21/21/21
f 20/20/20 19/19/19 22/22/22
f 23/23/23 21/21/21 20/20/20
f 21/21/21 23/23/23 24/24/24
f 25/25/25 24/24/24 23/23/23
f 24/24/24 25/25/25 26/26/26
f 27/27/27 28/28/28 29/29/29
f 30/30/30 27/27/27 31/31/31
f 32/32/32 27/27/27 33/33/33
f 34/34/34 32/32/32 33/33/33
f 32/32/32 34/34/34 35/35/35
f 27/27/27 32/32/32 36/36/36
f 37/37/37 38/38/38 39/39/39
f 38/38/38 37/37/37 40/40/40
f 41/41/41 42/42/42 43/43/43
f 42/42/42 41/41/41 44/44/44
f 45/45/45 46/46/46 47/47/47
f 46/46/46 45/45/45 48/48/48
f 49/49/49 50/50/50 51/51/51
f 50/50/50 49/49/49 52/52/52
f 53/53/53 54/54/54 55/55/55
f 54/54/54 53/53/53 56/56/56
f 57/57/57 58/58/58 59/59/59
f 58/58/58 57/57/57 60/60/60
f 61/61/61 62/62/62 63/63/63
f 62/62/62 61/61/61 64/64/64
f 65/65/65 66/66/66 67/67/67
f 66/66/66 65/65/65 68/68/68
f 69/69/69 70/70/70 71/71/71
f 70/70/70 69/69/69 72/72/72
f 69/69/69 73/73/73 72/72/72
f 73/73/73 69/69/69 74/74/74
f 74/74/74 75/75/75 73/73/73
f 70/70/70 76/76/76 71/71/71
f 76/76/76 70/70/70 77/77/77
f 76/76/76 78/78/78 71/71/71
f 71/71/71 78/78/78 69/69/69
f 69/69/69 78/78/78 74/74/74
f 75/75/75 79/79/79 80/80/80
f 79/79/79 75/75/75 81/81/81
f 81/81/81 78/78/78 79/79/79
f 79/79/79 82/82/82 80/80/80
f 82/82/82 79/79/79 83/83/83
f 79/79/79 78/78/78 83/83/83
f 84/84/84 82/82/82 83/83/83
f 83/83/83 78/78/78 84/84/84
f 82/82/82 84/84/84 85/85/85
f 84/84/84 77/77/77 86/86/86
f 87/87/87 88/88/88 89/89/89
f 88/88/88 90/90/90 89/89/89
f 91/91/91 90/90/90 92/92/92
f 93/93/93 91/91/91 92/92/92
f 94/94/94 95/95/95 96/96/96
f 96/96/96 95/95/95 97/97/97
f 98/98/98 97/97/97 95/95/95
f 97/97/97 98/98/98 99/99/99
f 100/100/100 95/95/95 94/94/94
f 101/101/101 95/95/95 100/100/100
f 102/102/102 103/103/103 104/104/104
f 103/103/103 102/102/102 105/105/105
f 106/106/106 107/107/107 108/108/108
f 107/107/107 106/106/106 109/109/109
f 110/110/110 111/111/111 112/112/112
f 111/111/111 110/110/110 113/113/113
f 114/114/114 115/115/115 116/116/116
f 115/115/115 114/114/114 117/117/117
f 118/118/118 119/119/119 120/120/120
f 119/119/119 121/121/121 122/122/122
f 123/123/123 124/124/124 125/125/125
f 124/124/124 123/123/123 126/126/126
f 127/127/127 128/128/128 129/129/129
f 128/128/128 127/127/127 130/130/130
f 131/131/131 132/132/132 133/133/133
f 132/132/132 131/131/131 134/134/134
f 135/135/135 136/136/136 137/137/137
f 136/136/136 135/135/135 138/138/138
f 135/135/135 139/139/139 138/138/138
f 139/139/139 135/135/135 140/140/140
f 140/140/140 141/141/141 139/139/139
f 141/141/141 140/140/140 142/142/142
f 143/143/143 141/141/141 142/142/142
f 141/141/141 143/143/143 144/144/144
f 143/143/143 145/145/145 144/144/144
f 145/145/145 143/143/143 146/146/146
f 147/147/147 145/145/145 146/146/146
f 145/145/145 147/147/147 148/148/148
f 147/147/147 149/149/149 148/148/148
f 149/149/149 147/147/147 150/150/150
f 150/150/150 136/136/136 149/149/149
f 136/136/136 150/150/150 137/137/137
f 140/140/140 151/151/151 142/142/142
f 142/142/142 151/151/151 143/143/143
f 143/143/143 151/151/151 146/146/146
f 146/146/146 151/151/151 147/147/147
f 147/147/147 151/151/151 150/150/150
f 150/150/150 151/151/151 137/137/137
f 137/137/137 151/151/151 135/135/135
f 135/135/135 151/151/151 140/140/140
f 152/152/152 153/153/153 154/154/154
f 154/154/154 153/153/153 155/155/155
f 155/155/155 153/153/153 156/156/156
f 157/157/157 153/153/153 152/152/152
f 158/158/158 153/153/153 157/157/157
f 153/153/153 158/158/158 159/159/159
f 160/160/160 161/161/161 162/162/162
f 161/161/161 160/160/160 163/163/163
f 164/164/164 163/163/163 160/160/160
f 163/163/163 164/164/164 165/165/165
f 166/166/166 165/165/165 164/164/164
f 165/165/165 166/166/166 167/167/167
f 168/168/168 169/169/169 170/170/170
f 169/169/169 168/168/168 171/171/171
f 169/169/169 172/172/172 173/173/173
f 174/174/174 173/173/173 172/172/172
f 173/173/173 174/174/174 175/175/175
f 172/172/172 169/169/169 176/176/176
f 177/177/177 178/178/178 179/179/179
f 178/178/178 177/177/177 180/180/180
f 181/181/181 179/179/179 178/178/178
f 179/179/179 181/181/181 182/182/182
f 183/183/183 182/182/182 181/181/181
f 182/182/182 183/183/183 184/184/184
f 185/185/185 186/186/186 187/187/187
f 186/186/186 185/185/185 188/188/188
f 185/185/185 189/189/189 188/188/188
f 189/189/189 185/185/185 190/190/190
f 191/191/191 189/189/189 190/190/190
f 189/189/189 191/191/191 192/192/192
