#FOL_Grass_07.obj
#Friday, January 12, 2018
#3:42:24 PM
#-------

mtllib FOL_Grass_07.mtl
#FOL_Grass_07
#-------
g FOL_Grass_07
v -0.07925537 0.04338456 -0.2694167
v -0.1517688 0.0801091 -0.2321987
v -0.150769 0.04338456 -0.2303676
v -0.08025513 0.0801091 -0.2712459
v -0.0219104 -0.01175536 0.01854415
v -0.02782105 0.01298951 -0.02159257
v -0.01194214 0.05041444 -0.02952287
v -0.08268311 0.04368028 -0.07914262
v -0.06457764 0.08082551 -0.06884935
v -0.1173083 0.08357484 -0.1280821
v -0.1611035 0.04450837 -0.1835384
v -0.1627441 0.07407945 -0.184951
v -0.001446533 0.09074525 -0.1732835
v -0.03427368 0.04450837 -0.2527925
v -2.929688E-05 0.05059296 -0.1631697
v -0.03457398 0.07614487 -0.2549348
v 0.02127319 0.07827485 -0.1152464
v 0.04300415 0.008621529 -0.03552964
v 0.04893676 0.04571915 -0.03718217
v -0.1517688 0.0801091 -0.2321987
v -0.1611035 0.04450837 -0.1835384
v -0.150769 0.04338456 -0.2303676
v -0.1517688 0.0801091 -0.2321987
v -0.1627441 0.07407945 -0.184951
v -0.08025513 0.0801091 -0.2712459
v -0.03427368 0.04450837 -0.2527925
v -0.03457398 0.07614487 -0.2549348
v -0.07925537 0.04338456 -0.2694167
v -0.01194214 0.05041444 -0.02952287
v -0.009257813 0.04877244 0.004967795
v -0.0219104 -0.01175536 0.01854415
v 0.005441895 0.1141365 -0.1293886
v 0.0126123 0.1383389 -0.09957902
v 0.02465698 0.1592793 -0.15907
v 0.02703369 0.1609676 -0.2273546
v 0.0187793 0.1239285 -0.2298467
v -0.009257813 0.04877244 0.004967795
v -0.02612915 -0.01175536 0.0518254
v 0.1328211 0.1060643 -0.2417421
v 0.06811523 0.1610532 -0.2573436
v 0.06811523 0.1203497 -0.2573436
v 0.1375708 0.1442505 -0.24066
v 0.05838135 -0.01175536 0.05100966
v 0.07439575 0.04358323 0.005285483
v 0.06901245 -0.01175536 -0.01399003
v 0.07439575 0.04358323 0.005285483
v 0.1404382 0.08481447 -0.1170601
v 0.122384 0.1108049 -0.09228685
v 0.1434778 0.1327597 -0.1474483
v 0.1627405 0.09397843 -0.2006725
v 0.1627002 0.1312624 -0.2002596
v -0.009257813 0.04877244 0.004967795
v 0.122384 0.1108049 -0.09228685
v 0.07439575 0.04358323 0.005285483
v 0.0126123 0.1383389 -0.09957902
v 0.05838135 -0.01175536 0.05100966
v -0.02612915 -0.01175536 0.0518254
v 0.1434778 0.1327597 -0.1474483
v 0.02465698 0.1592793 -0.15907
v 0.1375708 0.1442505 -0.24066
v 0.1627002 0.1312624 -0.2002596
v 0.06811523 0.1610532 -0.2573436
v 0.02703369 0.1609676 -0.2273546
v 0.06811523 0.1203497 -0.2573436
v 0.02703369 0.1609676 -0.2273546
v 0.0187793 0.1239285 -0.2298467
v 0.06811523 0.1610532 -0.2573436
v 0.1328211 0.1060643 -0.2417421
v 0.1627002 0.1312624 -0.2002596
v 0.1375708 0.1442505 -0.24066
v 0.1627405 0.09397843 -0.2006725
v -0.001446533 0.09074525 -0.1732835
v -0.08025513 0.0801091 -0.2712459
v -0.03457398 0.07614487 -0.2549348
v -0.1517688 0.0801091 -0.2321987
v -0.1173083 0.08357484 -0.1280821
v -0.1627441 0.07407945 -0.184951
v -0.06457764 0.08082551 -0.06884935
v 0.02127319 0.07827485 -0.1152464
v 0.04893676 0.04571915 -0.03718217
v -0.01194214 0.05041444 -0.02952287

vn 0.4784626 0.05668374 0.8762766
vn 0.47847 0.05670378 0.8762712
vn 0.4784743 0.05671554 0.8762681
vn 0.4784582 0.05667198 0.8762797
vn 0.9730538 -0.2304769 0.006843426
vn 0.7335265 -0.4238154 -0.5313372
vn 0.8640981 -0.3635297 -0.3481102
vn 0.6839973 -0.1511003 -0.7136641
vn 0.6444864 -0.1042342 -0.7574777
vn 0.7854384 -0.06083378 -0.6159429
vn 0.7862067 -0.004169694 -0.6179495
vn 0.7801039 0.01339926 -0.6255065
vn -0.9296187 0.05371555 0.364587
vn -0.9294702 0.02728461 0.3678868
vn -0.9299526 0.07047693 0.3608617
vn -0.9275355 0.01647951 0.3733715
vn -0.9268994 0.1049344 0.360342
vn -0.9146304 0.1460866 0.3769746
vn -0.9068006 0.1623449 0.3890461
vn 0.9740537 0.04714826 0.2213516
vn 0.9727179 0.05349565 0.2257392
vn 0.9760137 0.03726473 0.2144966
vn 0.9740537 0.04714826 0.2213516
vn 0.970146 0.06498639 0.2336526
vn -0.3411739 0.04600237 0.9388739
vn -0.3377479 0.05093711 0.9398573
vn -0.3309804 0.06062677 0.9416881
vn -0.3472367 0.03722037 0.9370385
vn 0.8640981 -0.3635297 -0.3481102
vn 0.9680824 -0.2454553 -0.05067821
vn 0.9730538 -0.2304769 0.006843426
vn 0.9478984 -0.3172317 0.02919805
vn 0.9546727 -0.2974218 0.01183965
vn 0.9271141 -0.373384 0.03230883
vn 0.9599634 -0.2672972 0.08379973
vn 0.9689127 -0.2231204 0.1068901
vn 0.9680824 -0.2454553 -0.05067821
vn 0.9765111 -0.1763631 0.1237831
vn -0.2336063 0.0009845212 0.9723308
vn -0.2339969 0.0004982237 0.9722373
vn -0.2343971 0 0.9721409
vn -0.23323 0.001452808 0.9724205
vn -0.9756477 0.1504928 -0.1595732
vn -0.9282952 0.170242 -0.3305839
vn -0.9417195 0.1886298 -0.2785373
vn -0.9282952 0.170242 -0.3305839
vn -0.905471 -0.1160235 -0.4082409
vn -0.8677735 -0.1517282 -0.4732311
vn -0.9401957 -0.111184 -0.3219785
vn -0.949367 -0.04478264 -0.3109609
vn -0.9396598 0.002773341 -0.3420989
vn -0.05408486 -0.6966895 -0.7153311
vn -0.1579014 -0.837772 -0.5226902
vn -0.04343652 -0.7412343 -0.6698396
vn -0.1613631 -0.834693 -0.5265449
vn -0.02267532 -0.6211955 -0.7833275
vn -0.007642315 -0.6108011 -0.7917473
vn -0.2173773 -0.9469119 -0.236865
vn -0.1684688 -0.9599788 -0.2237384
vn -0.234309 -0.9664252 -0.1054591
vn -0.3328858 -0.9382135 -0.09456387
vn -0.1649048 -0.9821348 -0.09065118
vn -0.01637288 -0.9995462 -0.02528212
vn 0.5441056 -0.06715893 0.8363246
vn 0.5204274 -0.09977003 0.8480573
vn 0.4712301 -0.1633339 0.8667549
vn 0.5896049 0 0.8076918
vn -0.8244703 0.04959131 0.563728
vn -0.8197634 0.03058059 0.5718854
vn -0.832884 0.08811353 0.5463884
vn -0.8092724 -0.007379424 0.5873872
vn -0.0215467 -0.9994338 -0.02583899
vn -0.01083641 -0.9931263 0.1165451
vn -0.1684341 -0.9562191 0.2393219
vn 0.1082937 -0.99395 0.01832918
vn 0.07775062 -0.9964915 -0.03097638
vn 0.2741985 -0.9598736 -0.0588028
vn -0.07822461 -0.9741604 -0.2118787
vn -0.1556414 -0.9593924 -0.2352487
vn -0.1762912 -0.9095373 -0.3763817
vn -0.1284218 -0.860285 -0.4933736

vt 0.225821 0.994454
vt 0.210855 0.987608
vt 0.208724 0.993157
vt 0.224737 0.988461
vt 0.20443 0.917517
vt 0.206764 0.935477
vt 0.216821 0.941596
vt 0.202479 0.956249
vt 0.211396 0.955472
vt 0.208248 0.968902
vt 0.200239 0.981954
vt 0.205525 0.981986
vt 0.229817 0.96711
vt 0.236142 0.984621
vt 0.237534 0.964909
vt 0.230612 0.98305
vt 0.229226 0.956117
vt 0.236677 0.935911
vt 0.229334 0.938333
vt 0.210855 0.987608
vt 0.200239 0.981954
vt 0.208724 0.993157
vt 0.210855 0.987608
vt 0.205525 0.981986
vt 0.224737 0.988461
vt 0.236142 0.984621
vt 0.230612 0.98305
vt 0.225821 0.994454
vt 0.170901 0.945576
vt 0.175282 0.941801
vt 0.171193 0.931484
vt 0.166793 0.965484
vt 0.172927 0.96374
vt 0.173154 0.972573
vt 0.172354 0.982481
vt 0.166925 0.983305
vt 0.175282 0.941801
vt 0.176219 0.927953
vt 0.18854 0.991235
vt 0.176848 0.986928
vt 0.176114 0.991807
vt 0.18668 0.986327
vt 0.189926 0.93285
vt 0.188351 0.945007
vt 0.197231 0.941368
vt 0.188351 0.945007
vt 0.196358 0.967121
vt 0.190102 0.965074
vt 0.190223 0.973868
vt 0.196763 0.982427
vt 0.191153 0.982012
vt 0.175282 0.941801
vt 0.190102 0.965074
vt 0.188351 0.945007
vt 0.172927 0.96374
vt 0.189926 0.93285
vt 0.176219 0.927953
vt 0.190223 0.973868
vt 0.173154 0.972573
vt 0.18668 0.986327
vt 0.191153 0.982012
vt 0.176848 0.986928
vt 0.172354 0.982481
vt 0.176114 0.991807
vt 0.172354 0.982481
vt 0.166925 0.983305
vt 0.176848 0.986928
vt 0.18854 0.991235
vt 0.191153 0.982012
vt 0.18668 0.986327
vt 0.196763 0.982427
vt 0.229817 0.96711
vt 0.224737 0.988461
vt 0.230612 0.98305
vt 0.210855 0.987608
vt 0.208248 0.968902
vt 0.205525 0.981986
vt 0.211396 0.955472
vt 0.229226 0.956117
vt 0.229334 0.938333
vt 0.216821 0.941596

usemtl MAT_Leaf_01
f 1/1/1 2/2/2 3/3/3
f 2/2/2 1/1/1 4/4/4
f 5/5/5 6/6/6 7/7/7
f 8/8/8 7/7/7 6/6/6
f 7/7/7 8/8/8 9/9/9
f 10/10/10 9/9/9 8/8/8
f 11/11/11 10/10/10 8/8/8
f 10/10/10 11/11/11 12/12/12
f 13/13/13 14/14/14 15/15/15
f 14/14/14 13/13/13 16/16/16
f 13/13/13 15/15/15 17/17/17
f 18/18/18 17/17/17 15/15/15
f 17/17/17 18/18/18 19/19/19
f 20/20/20 21/21/21 22/22/22
f 21/21/21 23/23/23 24/24/24
f 25/25/25 26/26/26 27/27/27
f 26/26/26 25/25/25 28/28/28
f 29/29/29 30/30/30 31/31/31
f 32/32/32 30/30/30 29/29/29
f 30/30/30 32/32/32 33/33/33
f 34/34/34 33/33/33 32/32/32
f 32/32/32 35/35/35 34/34/34
f 35/35/35 32/32/32 36/36/36
f 37/37/37 38/38/38 31/31/31
f 39/39/39 40/40/40 41/41/41
f 40/40/40 39/39/39 42/42/42
f 43/43/43 44/44/44 45/45/45
f 46/46/46 47/47/47 45/45/45
f 47/47/47 46/46/46 48/48/48
f 49/49/49 47/47/47 48/48/48
f 49/49/49 50/50/50 47/47/47
f 50/50/50 49/49/49 51/51/51
f 52/52/52 53/53/53 54/54/54
f 53/53/53 52/52/52 55/55/55
f 56/56/56 52/52/52 54/54/54
f 52/52/52 56/56/56 57/57/57
f 55/55/55 58/58/58 53/53/53
f 58/58/58 55/55/55 59/59/59
f 59/59/59 60/60/60 58/58/58
f 61/61/61 58/58/58 60/60/60
f 60/60/60 59/59/59 62/62/62
f 62/62/62 59/59/59 63/63/63
f 64/64/64 65/65/65 66/66/66
f 65/65/65 64/64/64 67/67/67
f 68/68/68 69/69/69 70/70/70
f 69/69/69 68/68/68 71/71/71
f 72/72/72 73/73/73 74/74/74
f 72/72/72 75/75/75 73/73/73
f 76/76/76 75/75/75 72/72/72
f 75/75/75 76/76/76 77/77/77
f 72/72/72 78/78/78 76/76/76
f 78/78/78 72/72/72 79/79/79
f 80/80/80 78/78/78 79/79/79
f 78/78/78 80/80/80 81/81/81
