#FOL_Grass_05.obj
#Friday, January 12, 2018
#3:42:20 PM
#-------

mtllib FOL_Grass_05.mtl
#FOL_Grass_05
#-------
g FOL_Grass_05
v -0.08900068 0.0447809 -0.04789229
v -0.09952237 0.01821261 -0.06251402
v -0.03538915 0.003676874 0.03242563
v -0.1703391 0.03391146 -0.1478924
v -0.09952237 0.01821261 -0.06251402
v -0.1645115 0.07144684 -0.1360053
v -0.2628062 0.03666546 -0.2603332
v -0.2566829 0.0756391 -0.248487
v -0.3008014 0.02364784 -0.3041633
v -0.3147799 0.06489486 -0.314508
v -0.1742969 -0.004085163 0.006886334
v -0.07816772 0.003676874 0.07520422
v -0.1150806 -0.05020798 0.0382913
v -0.1590381 0.0447809 0.02214512
v -0.2640933 0.02931023 -0.05454636
v -0.2544639 0.07134757 -0.04480474
v -0.3593985 0.07956654 -0.132243
v -0.3711562 0.04004966 -0.1384159
v -0.4401008 0.06105643 -0.2091128
v -0.4286365 0.02067208 -0.1963538
v -0.07816772 0.003676874 0.07520422
v -0.08900068 0.0447809 -0.04789229
v -0.03538915 0.003676874 0.03242563
v -0.1590381 0.0447809 0.02214512
v -0.1645115 0.07144684 -0.1360053
v -0.2544639 0.07134757 -0.04480474
v -0.2566829 0.0756391 -0.248487
v -0.3593985 0.07956654 -0.132243
v -0.3803875 0.05688246 -0.3232932
v -0.4335857 0.05376644 -0.2850302
v -0.4401008 0.06105643 -0.2091128
v -0.3147799 0.06489486 -0.314508
v -0.3651566 0.002940446 -0.306077
v -0.4335857 0.05376644 -0.2850302
v -0.4183581 -0.0001728907 -0.2678086
v -0.3803875 0.05688246 -0.3232932
v -0.05300796 0.02016876 -0.1021696
v -0.05545687 -0.01635077 -0.1159088
v -0.01559526 -0.01017643 -0.005768066
v -0.08267456 -0.01563381 -0.1923356
v -0.08264915 0.02758821 -0.1867687
v -0.1076735 0.0295363 -0.263419
v -0.1026462 -0.01998041 -0.2581328
v -0.1436309 0.001022611 -0.3643039
v -0.134146 -0.04825076 -0.3528424
v -0.03538915 0.003676874 0.03242563
v -0.05300796 0.02016876 -0.1021696
v -0.01559526 -0.01017643 -0.005768066
v -0.09952237 0.01821261 -0.06251402
v -0.08264915 0.02758821 -0.1867687
v -0.1557327 0.02850965 -0.1420299
v -0.1076735 0.0295363 -0.263419
v -0.2103786 0.02978768 -0.2200935
v -0.1985106 -0.01206947 -0.3918644
v -0.1436309 0.001022611 -0.3643039
v -0.2521596 -0.01659462 -0.3734906
v -0.003187768 -0.01635077 -0.1681779
v -0.05545687 -0.01635077 -0.1159088
v 0.005730921 -0.03705114 -0.0639137
v 0.01512611 -0.0625928 -0.108501
v 0.007377397 -0.05728487 -0.1683418
v -0.08997104 -0.02931664 -0.2490139
v -0.01456376 -0.02946607 -0.2642306
v -0.01456376 -0.02946607 -0.2642306
v -0.008267565 -0.07902698 -0.2551032
v -0.0109892 -0.1042444 -0.3428296
v -0.02258712 -0.05589411 -0.3564301
v -0.02258712 -0.05589411 -0.3564301
v -0.05800467 -0.07484926 -0.3793834
v -0.1088927 -0.0851037 -0.3659741
v -0.2103786 0.02978768 -0.2200935
v -0.2705071 -0.01171021 -0.3299922
v -0.2416492 -0.06641129 -0.3621948
v -0.1985106 -0.01206947 -0.3918644
v -0.2521596 -0.01659462 -0.3734906
v -0.1879998 -0.0618845 -0.3805681
v -0.09952237 0.01821261 -0.06251402
v -0.1545289 0.003546849 -0.1407312
v -0.1557327 0.02850965 -0.1420299
v -0.2053498 -0.01972901 -0.2148058
v -0.2103786 0.02978768 -0.2200935
v -0.2705071 -0.01171021 -0.3299922
v -0.2705071 -0.01171021 -0.3299922
v -0.2603868 -0.06115891 -0.3185944
v -0.05800467 -0.07484926 -0.3793834
v -0.09596589 -0.1336245 -0.3524086
v -0.0450822 -0.1233701 -0.3658136
v -0.1088927 -0.0851037 -0.3659741
v -0.05545687 -0.01635077 -0.1159088
v -0.08367053 -0.07887757 -0.2398908
v -0.08997104 -0.02931664 -0.2490139
v -0.09596589 -0.1336245 -0.3524086
v -0.1088927 -0.0851037 -0.3659741
v -0.3651566 0.002940446 -0.306077
v -0.3147799 0.06489486 -0.314508
v -0.3803875 0.05688246 -0.3232932
v -0.3008014 0.02364784 -0.3041633
v -0.4286365 0.02067208 -0.1963538
v -0.4335857 0.05376644 -0.2850302
v -0.4401008 0.06105643 -0.2091128
v -0.4183581 -0.0001728907 -0.2678086
v -0.1879998 -0.0618845 -0.3805681
v -0.1436309 0.001022611 -0.3643039
v -0.1985106 -0.01206947 -0.3918644
v -0.134146 -0.04825076 -0.3528424
v -0.2705071 -0.01171021 -0.3299922
v -0.2416492 -0.06641129 -0.3621948
v -0.2521596 -0.01659462 -0.3734906
v -0.2705071 -0.01171021 -0.3299922
v -0.2603868 -0.06115891 -0.3185944
v -0.02258712 -0.05589411 -0.3564301
v -0.0450822 -0.1233701 -0.3658136
v -0.0109892 -0.1042444 -0.3428296
v -0.05800467 -0.07484926 -0.3793834
v -0.3651566 0.002940446 -0.306077
v -0.3711562 0.04004966 -0.1384159
v -0.2628062 0.03666546 -0.2603332
v -0.4183581 -0.0001728907 -0.2678086
v -0.3008014 0.02364784 -0.3041633
v -0.4286365 0.02067208 -0.1963538
v -0.2640933 0.02931023 -0.05454636
v -0.1703391 0.03391146 -0.1478924
v -0.1742969 -0.004085163 0.006886334
v -0.09952237 0.01821261 -0.06251402
v -0.1879998 -0.0618845 -0.3805681
v -0.2053498 -0.01972901 -0.2148058
v -0.1026462 -0.01998041 -0.2581328
v -0.2416492 -0.06641129 -0.3621948
v -0.134146 -0.04825076 -0.3528424
v -0.2603868 -0.06115891 -0.3185944
v -0.08267456 -0.01563381 -0.1923356
v -0.1545289 0.003546849 -0.1407312
v -0.09952237 0.01821261 -0.06251402
v -0.05545687 -0.01635077 -0.1159088
v 0.007377397 -0.05728487 -0.1683418
v -0.08367053 -0.07887757 -0.2398908
v -0.05545687 -0.01635077 -0.1159088
v -0.008267565 -0.07902698 -0.2551032
v -0.09596589 -0.1336245 -0.3524086
v -0.0450822 -0.1233701 -0.3658136
v -0.0109892 -0.1042444 -0.3428296
v 0.007377397 -0.05728487 -0.1683418
v -0.0433835 -0.06599909 -0.05504053
v 0.01512611 -0.0625928 -0.108501
v -0.05545687 -0.01635077 -0.1159088
v -0.09952237 0.01821261 -0.06251402
v -0.07191826 -0.06073538 -0.01929522
v -0.1742969 -0.004085163 0.006886334
v -0.1150806 -0.05020798 0.0382913

vn -0.8060658 -0.01031474 0.5917361
vn -0.7930441 -0.02098678 0.6088025
vn -0.8271921 0.01850631 0.5616146
vn -0.7703033 -0.07819948 0.6328646
vn -0.7930441 -0.02098678 0.6088025
vn -0.7698763 -0.08018903 0.6331353
vn -0.7523636 -0.08115701 0.6537297
vn -0.7608753 -0.0760256 0.6444291
vn -0.7409136 -0.08473405 0.6662336
vn -0.7412227 -0.08417883 0.6659601
vn 0.5753988 0.09226758 -0.8126518
vn 0.5668935 0.1337381 -0.8128628
vn 0.561726 0.1698681 -0.8096967
vn 0.5774314 0.071713 -0.8132836
vn 0.6122437 0.03554622 -0.7898698
vn 0.6095482 0.04380093 -0.7915381
vn 0.6489078 -0.06318256 -0.7582392
vn 0.6680804 -0.07232445 -0.7405658
vn 0.7092075 -0.04098378 -0.7038077
vn 0.7129557 -0.01906475 -0.70095
vn -0.2815333 -0.9173211 -0.2815332
vn -0.2158954 -0.9522491 -0.2158954
vn -0.2815333 -0.9173211 -0.2815332
vn -0.2143359 -0.9530274 -0.214007
vn -0.08600363 -0.9925639 -0.08614112
vn -0.096369 -0.9917545 -0.08447409
vn 0.030292 -0.9985048 0.04550367
vn 0.02156104 -0.9988403 0.04304774
vn 0.1105107 -0.9890412 0.09790289
vn 0.1301867 -0.9860933 0.1033012
vn 0.1257479 -0.9864352 0.1055142
vn 0.1127888 -0.9916745 0.06213376
vn 0.5226319 0.3896247 0.7583194
vn 0.5226339 0.3896289 0.758316
vn 0.5226468 0.3896556 0.7582933
vn 0.522619 0.3895979 0.7583422
vn -0.939131 -0.0614449 0.3380198
vn -0.2445978 0.5923052 0.7676891
vn -0.9370605 -0.06614584 0.3428445
vn -0.9477876 -0.04768076 0.3153177
vn -0.9470313 -0.04047607 0.3185803
vn -0.9440445 -0.05679162 0.3248917
vn -0.9445818 -0.06739425 0.3212838
vn -0.9350029 -0.08837859 0.3434512
vn -0.9346952 -0.1006254 0.3409097
vn -0.4071017 -0.911514 -0.05839686
vn -0.08685549 -0.9925315 -0.0856576
vn -0.5648728 -0.8250402 -0.01507889
vn -0.1759152 -0.9831382 0.04993216
vn -0.03506617 -0.9983547 -0.04536908
vn -0.03771402 -0.9981642 -0.04738995
vn 0.04668978 -0.9916759 0.1199954
vn 0.07136502 -0.9892043 0.1279925
vn 0.1357827 -0.9608942 0.2413405
vn 0.1136767 -0.9659327 0.2324902
vn 0.192157 -0.952637 0.2357083
vn -0.5817954 -0.8054576 0.1129256
vn 0.167945 -0.9855381 0.02256615
vn -0.8551393 -0.5175521 -0.02960558
vn -0.9421436 -0.3338228 0.03045827
vn -0.9652337 -0.2247712 0.133423
vn 0.09810384 -0.9708006 0.2189107
vn 0.03969551 -0.9776801 0.2063149
vn -0.9810244 -0.1368985 0.1372955
vn -0.9865094 -0.101701 0.1282808
vn -0.9786275 -0.1693688 0.1166295
vn -0.9710522 -0.1935529 0.1399826
vn 0.188817 -0.9190933 0.345855
vn 0.2585494 -0.8904897 0.3744066
vn 0.2773643 -0.8838375 0.3766967
vn 0.07136502 -0.9892043 0.1279925
vn 0.2579473 -0.9420287 0.2145813
vn 0.2915659 0.2696265 0.9177641
vn 0.2915648 0.2696274 0.9177641
vn 0.2915741 0.2696197 0.9177634
vn 0.2915566 0.2696343 0.9177648
vn 0.7002439 0.5415679 0.465148
vn 0.8203385 0.009810365 -0.571794
vn 0.8197032 0.01181133 -0.5726668
vn 0.8488351 0.03252552 -0.5276563
vn 0.8458952 0.02903653 -0.5325581
vn 0.8706404 0.05866719 -0.488409
vn 0.8706404 0.05866719 -0.488409
vn 0.8704672 0.06571024 -0.4878207
vn 0.1833969 0.309735 0.9329683
vn 0.1833983 0.3097341 0.9329683
vn 0.183361 0.3097579 0.9329677
vn 0.1834342 0.3097111 0.9329689
vn 0.167945 -0.9855381 0.02256615
vn 0.9763112 0.08770491 -0.1977983
vn 0.9707052 0.09702271 -0.2198133
vn 0.9610601 0.16471 -0.2218872
vn 0.9521458 0.1858224 -0.2426692
vn -0.1354687 0.2409348 0.9610404
vn -0.1246617 0.2326242 0.9645441
vn -0.1592055 0.2590927 0.9526409
vn -0.09685306 0.2111156 0.9726508
vn 0.956113 0.2879596 0.05410501
vn 0.956218 0.2876343 0.05397774
vn 0.9559274 0.2885329 0.05432931
vn 0.9563679 0.2871699 0.05379605
vn -0.4706005 0.1054286 0.8760252
vn -0.4719692 0.1066217 0.8751439
vn -0.465643 0.1011172 0.8791769
vn -0.4769731 0.1109946 0.8718812
vn 0.8975487 0.266897 0.3509591
vn 0.8974968 0.266706 0.3512371
vn 0.8979825 0.2685066 0.3486137
vn 0.8975487 0.266897 0.3509591
vn 0.897054 0.2650915 0.3535826
vn -0.5792608 0.08030695 0.8111768
vn -0.580656 0.08091932 0.8101178
vn -0.5892125 0.08468834 0.8035276
vn -0.5708075 0.07660911 0.8175023
vn -0.2291094 0.9549664 -0.1885418
vn -0.04777775 0.9935899 -0.1024515
vn -0.1189729 0.9898958 -0.07714888
vn -0.1768866 0.9563153 -0.2327492
vn -0.3057776 0.9519392 -0.01765801
vn -0.03603644 0.9579567 -0.2846409
vn 0.1051246 0.9860713 0.128888
vn 0.02454027 0.9909056 0.1323021
vn 0.07490586 0.9679908 0.2395474
vn -0.1759152 -0.9831382 0.04993216
vn -0.139503 0.9564967 -0.2562283
vn -0.07520126 0.9692457 -0.234324
vn -0.06763731 0.9842542 -0.163306
vn -0.1987857 0.9473323 -0.2510895
vn -0.1154417 0.9616858 -0.2486637
vn -0.2713751 0.9347764 -0.2292352
vn 0.1007164 0.9765149 -0.1904595
vn 0.05675093 0.9590625 -0.2774498
vn 0.2620838 0.9415895 -0.211474
vn 0.47938 0.8624072 -0.1626301
vn 0.09930652 0.9106006 -0.4011792
vn -0.0162072 0.9217569 -0.3874295
vn 0.1675369 0.864405 -0.4740627
vn -0.1099463 0.9449764 -0.3081093
vn -0.2002262 0.9203526 -0.3359472
vn -0.2817217 0.9193751 -0.2745582
vn -0.3399994 0.9065731 -0.2500514
vn 0.4391568 0.8591067 0.262825
vn 0.6720424 0.6399053 0.3726661
vn 0.02033435 0.9961115 0.08572286
vn -0.2445978 0.5923052 0.7676891
vn 0.7002439 0.5415679 0.465148
vn 0.6089487 0.6099106 0.5071397
vn 0.5121186 0.6876471 0.5146611
vn 0.516013 0.8233584 0.2362449

vt 0.037715 0.865452
vt 0.042285 0.867362
vt 0.037324 0.850267
vt 0.039559 0.883597
vt 0.042285 0.867362
vt 0.034647 0.881431
vt 0.035888 0.902663
vt 0.031162 0.899952
vt 0.035077 0.911025
vt 0.028768 0.911483
vt 0.017495 0.860997
vt 0.028967 0.849093
vt 0.018488 0.849659
vt 0.024504 0.862724
vt 0.012895 0.876109
vt 0.018598 0.877132
vt 0.012672 0.893501
vt 0.007311 0.893603
vt 0.008599 0.907351
vt 0.003523 0.904365
vt 0.028967 0.849093
vt 0.037715 0.865452
vt 0.037324 0.850267
vt 0.024504 0.862724
vt 0.034647 0.881431
vt 0.018598 0.877132
vt 0.031162 0.899952
vt 0.012672 0.893501
vt 0.02188 0.915476
vt 0.01437 0.914496
vt 0.008599 0.907351
vt 0.028768 0.911483
vt 0.022066 0.921936
vt 0.01437 0.914496
vt 0.011587 0.920037
vt 0.02188 0.915476
vt 0.052452 0.866699
vt 0.059791 0.864991
vt 0.043762 0.850462
vt 0.064101 0.878819
vt 0.057048 0.880226
vt 0.060081 0.890905
vt 0.066887 0.88968
vt 0.063526 0.904293
vt 0.069911 0.904202
vt 0.037324 0.850267
vt 0.052452 0.866699
vt 0.043762 0.850462
vt 0.042285 0.867362
vt 0.057048 0.880226
vt 0.044669 0.882117
vt 0.060081 0.890905
vt 0.046446 0.894389
vt 0.060498 0.910928
vt 0.063526 0.904293
vt 0.054158 0.91334
vt 0.072059 0.86314
vt 0.059791 0.864991
vt 0.057725 0.849752
vt 0.069628 0.849164
vt 0.077428 0.858399
vt 0.07335 0.880642
vt 0.082436 0.873997
vt 0.082436 0.873997
vt 0.088667 0.868911
vt 0.098341 0.881039
vt 0.091501 0.886508
vt 0.091501 0.886508
vt 0.089231 0.893533
vt 0.082352 0.897389
vt 0.046446 0.894389
vt 0.048716 0.910998
vt 0.056785 0.919815
vt 0.060498 0.910928
vt 0.054158 0.91334
vt 0.065653 0.914584
vt 0.042285 0.867362
vt 0.040998 0.882295
vt 0.044669 0.882117
vt 0.040218 0.895663
vt 0.046446 0.894389
vt 0.048716 0.910998
vt 0.048716 0.910998
vt 0.041985 0.911996
vt 0.089231 0.893533
vt 0.087657 0.904188
vt 0.094634 0.898679
vt 0.082352 0.897389
vt 0.059791 0.864991
vt 0.067842 0.884729
vt 0.07335 0.880642
vt 0.075952 0.901618
vt 0.082352 0.897389
vt 0.022066 0.921936
vt 0.028768 0.911483
vt 0.02188 0.915476
vt 0.031661 0.917772
vt 0.004182 0.912284
vt 0.01437 0.914496
vt 0.008599 0.907351
vt 0.011587 0.920037
vt 0.065653 0.914584
vt 0.063526 0.904293
vt 0.060498 0.910928
vt 0.069911 0.904202
vt 0.048716 0.910998
vt 0.056785 0.919815
vt 0.054158 0.91334
vt 0.048716 0.910998
vt 0.04813 0.920497
vt 0.091501 0.886508
vt 0.094634 0.898679
vt 0.098754 0.891888
vt 0.089231 0.893533
vt 0.147873 0.920469
vt 0.159703 0.899391
vt 0.138121 0.907197
vt 0.15704 0.919399
vt 0.139831 0.915384
vt 0.163052 0.910705
vt 0.152031 0.881687
vt 0.134201 0.887101
vt 0.144665 0.867197
vt 0.130888 0.871938
vt 0.118259 0.925944
vt 0.13348 0.901227
vt 0.114788 0.899762
vt 0.127915 0.927511
vt 0.112234 0.91725
vt 0.13408 0.922292
vt 0.117007 0.887744
vt 0.131519 0.886322
vt 0.130888 0.871938
vt 0.119415 0.873999
vt 0.105036 0.875555
vt 0.112522 0.893834
vt 0.119415 0.873999
vt 0.101139 0.890422
vt 0.107282 0.91174
vt 0.099714 0.910004
vt 0.096997 0.904461
vt 0.105036 0.875555
vt 0.119563 0.862034
vt 0.107136 0.861983
vt 0.119415 0.873999
vt 0.130888 0.871938
vt 0.129201 0.858984
vt 0.144665 0.867197
vt 0.139524 0.856485

usemtl MAT_Leaf_01
f 1/1/1 2/2/2 3/3/3
f 1/1/1 4/4/4 5/5/5
f 4/4/4 1/1/1 6/6/6
f 6/6/6 7/7/7 4/4/4
f 7/7/7 6/6/6 8/8/8
f 8/8/8 9/9/9 7/7/7
f 9/9/9 8/8/8 10/10/10
f 11/11/11 12/12/12 13/13/13
f 12/12/12 11/11/11 14/14/14
f 15/15/15 14/14/14 11/11/11
f 14/14/14 15/15/15 16/16/16
f 15/15/15 17/17/17 16/16/16
f 17/17/17 15/15/15 18/18/18
f 18/18/18 19/19/19 17/17/17
f 19/19/19 18/18/18 20/20/20
f 21/21/21 22/22/22 23/23/23
f 22/22/22 21/21/21 24/24/24
f 24/24/24 25/25/25 22/22/22
f 25/25/25 24/24/24 26/26/26
f 26/26/26 27/27/27 25/25/25
f 27/27/27 26/26/26 28/28/28
f 28/28/28 29/29/29 27/27/27
f 29/29/29 28/28/28 30/30/30
f 30/30/30 28/28/28 31/31/31
f 27/27/27 29/29/29 32/32/32
f 33/33/33 34/34/34 35/35/35
f 34/34/34 33/33/33 36/36/36
f 37/37/37 38/38/38 39/39/39
f 37/37/37 40/40/40 38/38/38
f 40/40/40 37/37/37 41/41/41
f 42/42/42 40/40/40 41/41/41
f 40/40/40 42/42/42 43/43/43
f 44/44/44 43/43/43 42/42/42
f 43/43/43 44/44/44 45/45/45
f 46/46/46 47/47/47 48/48/48
f 47/47/47 46/46/46 49/49/49
f 49/49/49 50/50/50 47/47/47
f 50/50/50 49/49/49 51/51/51
f 51/51/51 52/52/52 50/50/50
f 52/52/52 51/51/51 53/53/53
f 53/53/53 54/54/54 52/52/52
f 55/55/55 52/52/52 54/54/54
f 54/54/54 53/53/53 56/56/56
f 57/57/57 48/48/48 58/58/58
f 48/48/48 57/57/57 59/59/59
f 57/57/57 60/60/60 59/59/59
f 60/60/60 57/57/57 61/61/61
f 62/62/62 57/57/57 58/58/58
f 57/57/57 62/62/62 63/63/63
f 64/64/64 61/61/61 57/57/57
f 61/61/61 64/64/64 65/65/65
f 64/64/64 66/66/66 65/65/65
f 66/66/66 64/64/64 67/67/67
f 63/63/63 62/62/62 68/68/68
f 68/68/68 62/62/62 69/69/69
f 69/69/69 62/62/62 70/70/70
f 56/56/56 71/71/71 72/72/72
f 73/73/73 74/74/74 75/75/75
f 74/74/74 73/73/73 76/76/76
f 77/77/77 78/78/78 79/79/79
f 80/80/80 79/79/79 78/78/78
f 79/79/79 80/80/80 81/81/81
f 80/80/80 82/82/82 81/81/81
f 83/83/83 80/80/80 84/84/84
f 85/85/85 86/86/86 87/87/87
f 86/86/86 85/85/85 88/88/88
f 89/89/89 90/90/90 91/91/91
f 92/92/92 91/91/91 90/90/90
f 91/91/91 92/92/92 93/93/93
f 94/94/94 95/95/95 96/96/96
f 95/95/95 94/94/94 97/97/97
f 98/98/98 99/99/99 100/100/100
f 99/99/99 98/98/98 101/101/101
f 102/102/102 103/103/103 104/104/104
f 103/103/103 102/102/102 105/105/105
f 106/106/106 107/107/107 108/108/108
f 107/107/107 109/109/109 110/110/110
f 111/111/111 112/112/112 113/113/113
f 112/112/112 111/111/111 114/114/114
f 115/115/115 116/116/116 117/117/117
f 116/116/116 115/115/115 118/118/118
f 115/115/115 117/117/117 119/119/119
f 116/116/116 118/118/118 120/120/120
f 121/121/121 117/117/117 116/116/116
f 117/117/117 121/121/121 122/122/122
f 123/123/123 122/122/122 121/121/121
f 122/122/122 123/123/123 124/124/124
f 125/125/125 126/126/126 127/127/127
f 126/126/126 125/125/125 128/128/128
f 125/125/125 127/127/127 129/129/129
f 126/126/126 128/128/128 130/130/130
f 126/126/126 131/131/131 127/127/127
f 131/131/131 126/126/126 132/132/132
f 133/133/133 131/131/131 132/132/132
f 131/131/131 133/133/133 134/134/134
f 135/135/135 136/136/136 137/137/137
f 136/136/136 135/135/135 138/138/138
f 138/138/138 139/139/139 136/136/136
f 139/139/139 138/138/138 140/140/140
f 140/140/140 138/138/138 141/141/141
f 142/142/142 143/143/143 144/144/144
f 143/143/143 142/142/142 145/145/145
f 146/146/146 143/143/143 145/145/145
f 143/143/143 146/146/146 147/147/147
f 148/148/148 147/147/147 146/146/146
f 147/147/147 148/148/148 149/149/149
