#FOL_Grass_01.obj
#Friday, January 12, 2018
#3:42:11 PM
#-------

mtllib FOL_Grass_01.mtl
#FOL_Grass_01
#-------
g FOL_Grass_01
v -0.06974082 -0.02619644 -0.3817822
v 0.0698995 0.2421614 -0.211084
v -0.05057266 0.01484055 -0.1539697
v 0.04740383 0.2028487 -0.4572949
v 0.1915052 0.380219 -0.253938
v 0.1683715 0.3457729 -0.4855883
v 0.3270197 0.5215845 -0.3602416
v 0.3172866 0.5082005 -0.4526367
v 0.2754514 0.4474807 -0.4839477
v 0.02604881 -0.07093965 -0.3817822
v 0.161662 0.1896529 -0.211084
v 0.1391676 0.1503407 -0.4572949
v 0.04521698 -0.02990266 -0.1539697
v 0.2578134 0.3356869 -0.2539379
v 0.2346789 0.3012412 -0.4855883
v 0.3592911 0.4776542 -0.4526367
v 0.314419 0.4191435 -0.4839477
v 0.3690238 0.4910372 -0.3602417
v 0.3318895 0.4460074 -0.3052954
v 0.04740383 0.2028487 -0.4572949
v 0.02604881 -0.07093965 -0.3817822
v 0.1391676 0.1503407 -0.4572949
v 0.1683715 0.3457729 -0.4855883
v 0.2346789 0.3012412 -0.4855883
v 0.2754514 0.4474807 -0.4839477
v 0.02604881 -0.07093965 -0.3817822
v -0.06974082 -0.02619644 -0.3817822
v 0.2346789 0.3012412 -0.4855883
v 0.314419 0.4191435 -0.4839477
v 0.3172866 0.5082005 -0.4526367
v 0.3592911 0.4776542 -0.4526367
v 0.3592911 0.4776542 -0.4526367
v 0.3270197 0.5215845 -0.3602416
v 0.3172866 0.5082005 -0.4526367
v 0.3690238 0.4910372 -0.3602417
v 0.0698995 0.2421614 -0.211084
v 0.04521698 -0.02990266 -0.1539697
v -0.05057266 0.01484055 -0.1539697
v 0.04521698 -0.02990266 -0.1539697
v 0.161662 0.1896529 -0.211084
v 0.1915052 0.380219 -0.253938
v 0.2578134 0.3356869 -0.2539379
v 0.3318895 0.4460074 -0.3052954
v 0.2956245 0.4723804 -0.3052954
v 0.2578134 0.3356869 -0.2539379
v 0.3270197 0.5215845 -0.3602416
v 0.3690238 0.4910372 -0.3602417
v 0.2956245 0.4723804 -0.3052954
v 0.1915052 0.380219 -0.253938
v 0.3270197 0.5215845 -0.3602416
v 0.0589418 0.3018385 0.1437671
v -0.06144812 0.01761776 -0.1551123
v 0.05894183 0.3018385 -0.1670361
v -0.06144816 0.01761776 0.1324658
v 0.1442807 0.5028634 0.13073
v 0.1442807 0.5028634 -0.153999
v 0.2218806 0.7422278 0.05000248
v 0.1996877 0.6640986 0.1156275
v 0.2218806 0.7422278 -0.07327145
v 0.1977755 0.6647528 -0.1388891
v 0.1767981 0.2521159 0.1437671
v 0.05448278 -0.03644171 -0.1551123
v 0.05448274 -0.03644171 0.1324658
v 0.1767981 0.2521159 -0.1670361
v 0.2349351 0.4693841 -0.153999
v 0.2349351 0.4693841 0.13073
v 0.2813357 0.7218868 -0.07327145
v 0.2529323 0.6458828 -0.1388891
v 0.2813356 0.7218868 0.05000249
v 0.2510197 0.6465363 0.1156275
v -0.06144812 0.01761776 -0.1551123
v 0.1767981 0.2521159 -0.1670361
v 0.05894183 0.3018385 -0.1670361
v 0.05448278 -0.03644171 -0.1551123
v 0.1442807 0.5028634 -0.153999
v 0.2349351 0.4693841 -0.153999
v 0.2529323 0.6458828 -0.1388891
v 0.1977755 0.6647528 -0.1388891
v 0.2813356 0.7218868 0.05000249
v 0.2218806 0.7422278 -0.07327145
v 0.2813357 0.7218868 -0.07327145
v 0.2218806 0.7422278 0.05000248
v 0.1767981 0.2521159 0.1437671
v -0.06144816 0.01761776 0.1324658
v 0.0589418 0.3018385 0.1437671
v 0.05448274 -0.03644171 0.1324658
v 0.1442807 0.5028634 0.13073
v 0.2349351 0.4693841 0.13073
v 0.1996877 0.6640986 0.1156275
v 0.2510197 0.6465363 0.1156275
v 0.1977755 0.6647528 -0.1388891
v 0.2813357 0.7218868 -0.07327145
v 0.2218806 0.7422278 -0.07327145
v 0.2529323 0.6458828 -0.1388891
v 0.2218806 0.7422278 0.05000248
v 0.2510197 0.6465363 0.1156275
v 0.1996877 0.6640986 0.1156275
v 0.2813356 0.7218868 0.05000249
v 0.03796976 0.2688523 0.1875147
v -0.07531769 -0.02701234 0.3668481
v -0.05534799 0.01585611 0.1291919
v 0.02020076 0.2250253 0.4443604
v 0.08212043 0.409683 0.4855884
v 0.0966197 0.4505121 0.2327564
v 0.1572812 0.6327987 0.4480518
v 0.1358977 0.5555516 0.4826295
v 0.162707 0.649263 0.3468896
v 0.1446261 0.5878568 0.2876368
v 0.0491136 -0.03280462 0.1291919
v 0.1269971 0.1817268 0.4443604
v 0.1447657 0.2255529 0.1875147
v 0.0291439 -0.07567307 0.3668481
v 0.1786627 0.4213767 0.2327564
v 0.1641634 0.3805476 0.4855884
v 0.2164736 0.6315451 0.3468897
v 0.194506 0.5714201 0.2876368
v 0.2110479 0.615081 0.4480518
v -0.05534799 0.01585611 0.1291919
v 0.1447657 0.2255529 0.1875147
v 0.03796976 0.2688523 0.1875147
v 0.0491136 -0.03280462 0.1291919
v 0.1786627 0.4213767 0.2327564
v 0.0966197 0.4505121 0.2327564
v 0.194506 0.5714201 0.2876368
v 0.1446261 0.5878568 0.2876368
v 0.2164736 0.6315451 0.3468897
v 0.1446261 0.5878568 0.2876368
v 0.162707 0.649263 0.3468896
v 0.1572812 0.6327987 0.4480518
v 0.2164736 0.6315451 0.3468897
v 0.2110479 0.615081 0.4480518
v 0.162707 0.649263 0.3468896
v 0.02020076 0.2250253 0.4443604
v 0.0291439 -0.07567307 0.3668481
v -0.07531769 -0.02701234 0.3668481
v 0.1269971 0.1817268 0.4443604
v 0.1641634 0.3805476 0.4855884
v 0.08212043 0.409683 0.4855884
v 0.1823187 0.5402542 0.4826295
v 0.1358977 0.5555516 0.4826295
v 0.1641634 0.3805476 0.4855884
v 0.2110479 0.615081 0.4480518
v 0.1572812 0.6327987 0.4480518
v 0.2110479 0.615081 0.4480518
v 0.1641634 0.3805476 0.4855884
v 0.1823187 0.5402542 0.4826295

vn 0.8868219 -0.4621102 0.001023956
vn 0.8288725 -0.5591697 0.01730812
vn 0.8845392 -0.4663673 0.009583868
vn 0.8290741 -0.5590575 0.009532777
vn 0.7476707 -0.663457 0.02851979
vn 0.7476687 -0.662596 0.04424901
vn 0.733407 -0.6793448 0.02459524
vn 0.7270128 -0.6822426 0.07744282
vn 0.6127045 -0.6522647 0.4462558
vn -0.8868413 0.4620734 -0.0008520513
vn -0.863758 0.5038782 -0.005377523
vn -0.8655739 0.5007719 0.003054008
vn -0.8844324 0.4665691 -0.009629213
vn -0.8312087 0.5558336 -0.01187752
vn -0.8323055 0.5542665 0.007499139
vn -0.8163016 0.577424 0.01527223
vn -0.8207896 0.5531344 0.142642
vn -0.8191871 0.5732003 -0.01933451
vn -0.8530841 0.4921986 -0.1731707
vn 0.1085662 0.1958605 0.9746037
vn 0.1252525 0.254695 0.9588757
vn 0.1117849 0.1924751 0.9749141
vn 0.04355954 0.0683988 0.9967067
vn 0.04091124 0.06099561 0.9972993
vn -0.1151723 -0.158496 0.9806193
vn 0.1252525 0.254695 0.9588757
vn 0.1192625 0.2553264 0.9594712
vn 0.04091124 0.06099561 0.9972993
vn -0.1202716 -0.1653882 0.9788674
vn -0.2299414 -0.3161958 0.920406
vn -0.229943 -0.3161956 0.9204056
vn -0.5789344 -0.7960861 0.1763001
vn -0.5789396 -0.7960832 0.1762968
vn -0.5789297 -0.796089 0.176303
vn -0.5789443 -0.7960804 0.1762939
vn -0.110402 -0.1977474 -0.9740161
vn -0.09649808 -0.1960997 -0.9758244
vn -0.09182993 -0.1965968 -0.9761748
vn -0.09649808 -0.1960997 -0.9758244
vn -0.1154077 -0.1972674 -0.9735331
vn -0.1604564 -0.2422125 -0.956863
vn -0.1671038 -0.2488174 -0.9540263
vn -0.3109368 -0.431266 -0.8469521
vn -0.3071555 -0.422365 -0.8527973
vn -0.1671038 -0.2488174 -0.9540263
vn -0.4035456 -0.5549015 -0.7274856
vn -0.403548 -0.5549009 -0.7274846
vn 0.4769892 -0.7724888 -0.4192164
vn 0.4769892 -0.7724888 -0.4192163
vn 0.4769892 -0.7724888 -0.4192164
vn 0.920647 -0.3903961 1.398519E-07
vn 0.9208013 -0.3900322 1.398735E-07
vn 0.920647 -0.3903963 1.398519E-07
vn 0.9208013 -0.3900322 1.398735E-07
vn 0.935425 -0.3534844 -0.005380338
vn 0.9358494 -0.352396 0.001735744
vn 0.9499562 -0.3121385 -0.01236676
vn 0.9408622 -0.3303556 -0.0751235
vn 0.9508566 -0.3096058 0.003991626
vn 0.9485459 -0.3157058 0.02429984
vn -0.9454926 0.3256436 -1.433075E-07
vn -0.9207 0.3902713 -1.398593E-07
vn -0.9207 0.3902713 -1.398593E-07
vn -0.9455073 0.3256009 -1.433095E-07
vn -0.9765335 0.2139476 0.0246729
vn -0.9766745 0.2128812 -0.02808099
vn -0.9850015 0.1621336 0.05903044
vn -0.9418581 0.06786623 0.3290859
vn -0.9849057 0.1594716 -0.06730229
vn -0.9282858 0.05290372 -0.3680854
vn 0.01581504 0.03474327 0.9992711
vn -0.002685645 -0.007723426 0.9999666
vn -0.004062281 -0.00962837 0.9999454
vn 0.01607694 0.03447744 0.9992762
vn -0.02554096 -0.0685025 0.997324
vn -0.02465687 -0.06676485 0.9974641
vn -0.02911545 -0.08311968 0.9961141
vn -0.02857625 -0.08352736 0.9960957
vn -0.3237036 -0.9461586 -4.458775E-08
vn -0.3237036 -0.9461586 -4.458775E-08
vn -0.3237036 -0.9461586 -4.458775E-08
vn -0.3237036 -0.9461586 -4.458775E-08
vn -0.003101871 -0.008685933 -0.9999574
vn 0.01499069 0.0329317 -0.9993451
vn -0.00445387 -0.01055727 -0.9999343
vn 0.01523895 0.0326797 -0.9993497
vn -0.02581688 -0.06861741 -0.997309
vn -0.02451792 -0.06693794 -0.9974559
vn -0.02895582 -0.08250707 -0.9961697
vn -0.02818106 -0.08236943 -0.9962034
vn -0.2035967 -0.5951042 0.7774314
vn -0.2035978 -0.5951031 0.7774318
vn -0.2035988 -0.5951021 0.7774322
vn -0.2035955 -0.5951053 0.7774308
vn -0.2036131 -0.5951404 -0.7773993
vn -0.2036148 -0.5951406 -0.7773987
vn -0.2036165 -0.5951407 -0.7773982
vn -0.2036116 -0.5951403 -0.7773998
vn 0.9426954 -0.3335497 0.008378761
vn 0.9358622 -0.3522214 0.01010193
vn 0.936913 -0.3492085 0.01573645
vn 0.9414304 -0.3371215 0.00760491
vn 0.947941 -0.3184212 -0.003977488
vn 0.9491538 -0.3147224 0.00756113
vn 0.946868 -0.3208531 -0.02223522
vn 0.9184959 -0.3426256 -0.1974156
vn 0.9471114 -0.3207451 0.01013189
vn 0.9283172 -0.3606188 0.09044998
vn -0.9352329 0.353898 -0.009782117
vn -0.963554 0.2667302 -0.02046114
vn -0.9635787 0.2665856 -0.0211725
vn -0.9332712 0.3589123 -0.01368006
vn -0.9844707 0.1753646 -0.008047205
vn -0.9814934 0.1898368 -0.02515496
vn -0.9862443 0.1622499 0.03157848
vn -0.921363 -0.04397222 0.3862081
vn -0.9810254 0.192711 -0.02125248
vn -0.08573044 -0.1901964 0.9779958
vn -0.08324008 -0.2015304 0.9759388
vn -0.08138499 -0.204313 0.9755166
vn -0.08773207 -0.188337 0.978178
vn -0.09636804 -0.2659506 0.9591577
vn -0.09692957 -0.2754613 0.9564129
vn -0.1630118 -0.4904857 0.8560671
vn -0.1647368 -0.4999194 0.8502601
vn -0.2126608 -0.6453481 0.7336901
vn -0.1647368 -0.4999194 0.8502601
vn -0.2126617 -0.6453472 0.7336906
vn -0.308479 -0.9361165 -0.1688987
vn -0.308479 -0.9361165 -0.1688987
vn -0.308479 -0.9361165 -0.1688987
vn -0.308479 -0.9361165 -0.1688987
vn 0.08976674 0.220111 -0.9713358
vn 0.1131592 0.2511654 -0.9613069
vn 0.1169972 0.2511614 -0.9608484
vn 0.09015007 0.2223561 -0.9707888
vn 0.03772807 0.1014056 -0.9941295
vn 0.03167079 0.08905505 -0.9955231
vn -0.0634779 -0.192402 -0.979261
vn -0.0664522 -0.2016542 -0.9771999
vn 0.03772807 0.1014056 -0.9941295
vn -0.124096 -0.3765813 -0.9180343
vn -0.1240952 -0.3765821 -0.918034
vn -0.8507283 0.08710636 -0.5183375
vn -0.8507283 0.08710634 -0.5183377
vn -0.8507283 0.08710636 -0.5183375

vt 0.485976 0.858533
vt 0.506857 0.883386
vt 0.507792 0.858626
vt 0.484197 0.882698
vt 0.50443 0.901363
vt 0.482549 0.89907
vt 0.495124 0.920686
vt 0.485739 0.919605
vt 0.480999 0.91284
vt 0.475381 0.858825
vt 0.453147 0.881554
vt 0.475859 0.882539
vt 0.453677 0.857674
vt 0.454118 0.898572
vt 0.475611 0.898646
vt 0.469754 0.917485
vt 0.474593 0.911551
vt 0.461185 0.917596
vt 0.456901 0.911725
vt 0.484197 0.882698
vt 0.475381 0.858825
vt 0.475859 0.882539
vt 0.482549 0.89907
vt 0.475611 0.898646
vt 0.480999 0.91284
vt 0.475381 0.858825
vt 0.485976 0.858533
vt 0.475611 0.898646
vt 0.474593 0.911551
vt 0.471794 0.922188
vt 0.469754 0.917485
vt 0.469754 0.917485
vt 0.459595 0.921962
vt 0.471794 0.922188
vt 0.461185 0.917596
vt 0.443149 0.88163
vt 0.453677 0.857674
vt 0.443792 0.856929
vt 0.453677 0.857674
vt 0.453147 0.881554
vt 0.44659 0.899463
vt 0.454118 0.898572
vt 0.456901 0.911725
vt 0.452801 0.913418
vt 0.454118 0.898572
vt 0.459595 0.921962
vt 0.461185 0.917596
vt 0.50039 0.915046
vt 0.50443 0.901363
vt 0.495124 0.920686
vt 0.5657 0.954465
vt 0.544037 0.929652
vt 0.542386 0.95273
vt 0.566074 0.930806
vt 0.563074 0.971423
vt 0.541043 0.968989
vt 0.554426 0.990502
vt 0.560341 0.984712
vt 0.544535 0.989481
vt 0.539501 0.982674
vt 0.511081 0.952196
vt 0.533713 0.928972
vt 0.511984 0.928687
vt 0.533785 0.952097
vt 0.533608 0.968196
vt 0.512458 0.969027
vt 0.528778 0.987417
vt 0.534094 0.981332
vt 0.519616 0.987904
vt 0.514023 0.98254
vt 0.544037 0.929652
vt 0.533785 0.952097
vt 0.542386 0.95273
vt 0.533713 0.928972
vt 0.541043 0.968989
vt 0.533608 0.968196
vt 0.534094 0.981332
vt 0.539501 0.982674
vt 0.519616 0.987904
vt 0.530806 0.99195
vt 0.528778 0.987417
vt 0.51837 0.992484
vt 0.511081 0.952196
vt 0.502034 0.928716
vt 0.501248 0.95273
vt 0.511984 0.928687
vt 0.504943 0.970791
vt 0.512458 0.969027
vt 0.5102 0.984871
vt 0.514023 0.98254
vt 0.539501 0.982674
vt 0.528778 0.987417
vt 0.530806 0.99195
vt 0.534094 0.981332
vt 0.51837 0.992484
vt 0.514023 0.98254
vt 0.5102 0.984871
vt 0.519616 0.987904
vt 0.475437 0.952157
vt 0.497012 0.929103
vt 0.475604 0.928304
vt 0.498114 0.953839
vt 0.496972 0.971738
vt 0.474507 0.968846
vt 0.487295 0.990884
vt 0.49249 0.984993
vt 0.477883 0.989647
vt 0.473788 0.982636
vt 0.465098 0.927814
vt 0.44491 0.953704
vt 0.466297 0.951501
vt 0.444534 0.929583
vt 0.467505 0.968049
vt 0.446413 0.970832
vt 0.464044 0.987753
vt 0.468043 0.981452
vt 0.455565 0.988952
vt 0.475604 0.928304
vt 0.466297 0.951501
vt 0.475437 0.952157
vt 0.465098 0.927814
vt 0.467505 0.968049
vt 0.474507 0.968846
vt 0.468043 0.981452
vt 0.473788 0.982636
vt 0.464044 0.987753
vt 0.473788 0.982636
vt 0.466419 0.992081
vt 0.454673 0.993543
vt 0.464044 0.987753
vt 0.455565 0.988952
vt 0.466419 0.992081
vt 0.435283 0.954956
vt 0.444534 0.929583
vt 0.434566 0.930586
vt 0.44491 0.953704
vt 0.446413 0.970832
vt 0.439143 0.973263
vt 0.45029 0.983956
vt 0.446558 0.986676
vt 0.446413 0.970832
vt 0.455565 0.988952
vt 0.454673 0.993543
vt 0.455565 0.988952
vt 0.446413 0.970832
vt 0.45029 0.983956

usemtl MAT_Leaf_01
f 1/1/1 2/2/2 3/3/3
f 2/2/2 1/1/1 4/4/4
f 4/4/4 5/5/5 2/2/2
f 5/5/5 4/4/4 6/6/6
f 6/6/6 7/7/7 5/5/5
f 7/7/7 6/6/6 8/8/8
f 8/8/8 6/6/6 9/9/9
f 10/10/10 11/11/11 12/12/12
f 11/11/11 10/10/10 13/13/13
f 14/14/14 12/12/12 11/11/11
f 12/12/12 14/14/14 15/15/15
f 14/14/14 16/16/16 15/15/15
f 17/17/17 15/15/15 16/16/16
f 16/16/16 14/14/14 18/18/18
f 18/18/18 14/14/14 19/19/19
f 20/20/20 21/21/21 22/22/22
f 22/22/22 23/23/23 20/20/20
f 23/23/23 22/22/22 24/24/24
f 24/24/24 25/25/25 23/23/23
f 26/26/26 20/20/20 27/27/27
f 25/25/25 28/28/28 29/29/29
f 29/29/29 30/30/30 25/25/25
f 30/30/30 29/29/29 31/31/31
f 32/32/32 33/33/33 34/34/34
f 33/33/33 32/32/32 35/35/35
f 36/36/36 37/37/37 38/38/38
f 39/39/39 36/36/36 40/40/40
f 41/41/41 40/40/40 36/36/36
f 40/40/40 41/41/41 42/42/42
f 43/43/43 41/41/41 44/44/44
f 41/41/41 43/43/43 45/45/45
f 46/46/46 43/43/43 44/44/44
f 43/43/43 46/46/46 47/47/47
f 48/48/48 49/49/49 50/50/50
f 51/51/51 52/52/52 53/53/53
f 52/52/52 51/51/51 54/54/54
f 53/53/53 55/55/55 51/51/51
f 55/55/55 53/53/53 56/56/56
f 56/56/56 57/57/57 55/55/55
f 58/58/58 55/55/55 57/57/57
f 57/57/57 56/56/56 59/59/59
f 59/59/59 56/56/56 60/60/60
f 61/61/61 62/62/62 63/63/63
f 62/62/62 61/61/61 64/64/64
f 61/61/61 65/65/65 64/64/64
f 65/65/65 61/61/61 66/66/66
f 66/66/66 67/67/67 65/65/65
f 68/68/68 65/65/65 67/67/67
f 67/67/67 66/66/66 69/69/69
f 69/69/69 66/66/66 70/70/70
f 71/71/71 72/72/72 73/73/73
f 72/72/72 71/71/71 74/74/74
f 72/72/72 75/75/75 73/73/73
f 75/75/75 72/72/72 76/76/76
f 77/77/77 75/75/75 76/76/76
f 75/75/75 77/77/77 78/78/78
f 79/79/79 80/80/80 81/81/81
f 80/80/80 79/79/79 82/82/82
f 83/83/83 84/84/84 85/85/85
f 84/84/84 83/83/83 86/86/86
f 87/87/87 83/83/83 85/85/85
f 83/83/83 87/87/87 88/88/88
f 89/89/89 88/88/88 87/87/87
f 88/88/88 89/89/89 90/90/90
f 91/91/91 92/92/92 93/93/93
f 92/92/92 91/91/91 94/94/94
f 95/95/95 96/96/96 97/97/97
f 96/96/96 95/95/95 98/98/98
f 99/99/99 100/100/100 101/101/101
f 100/100/100 99/99/99 102/102/102
f 99/99/99 103/103/103 102/102/102
f 103/103/103 99/99/99 104/104/104
f 104/104/104 105/105/105 103/103/103
f 106/106/106 103/103/103 105/105/105
f 105/105/105 104/104/104 107/107/107
f 107/107/107 104/104/104 108/108/108
f 109/109/109 110/110/110 111/111/111
f 110/110/110 109/109/109 112/112/112
f 110/110/110 113/113/113 111/111/111
f 113/113/113 110/110/110 114/114/114
f 114/114/114 115/115/115 113/113/113
f 116/116/116 113/113/113 115/115/115
f 115/115/115 114/114/114 117/117/117
f 118/118/118 119/119/119 120/120/120
f 119/119/119 118/118/118 121/121/121
f 122/122/122 120/120/120 119/119/119
f 120/120/120 122/122/122 123/123/123
f 124/124/124 123/123/123 122/122/122
f 123/123/123 124/124/124 125/125/125
f 126/126/126 127/127/127 124/124/124
f 127/127/127 126/126/126 128/128/128
f 129/129/129 130/130/130 131/131/131
f 130/130/130 129/129/129 132/132/132
f 133/133/133 134/134/134 135/135/135
f 134/134/134 133/133/133 136/136/136
f 133/133/133 137/137/137 136/136/136
f 137/137/137 133/133/133 138/138/138
f 139/139/139 138/138/138 140/140/140
f 138/138/138 139/139/139 141/141/141
f 140/140/140 142/142/142 139/139/139
f 142/142/142 140/140/140 143/143/143
f 144/144/144 145/145/145 146/146/146
