#FOL_Flower_MID_01.obj
#Friday, January 12, 2018
#3:38:33 PM
#-------

mtllib FOL_Flower_MID_01.mtl
#FOL_Flower_MID_01
#-------
g FOL_Flower_MID_01
v -0.0291793 0.2115896 0.03564521
v -0.05352257 0.3161776 0.02123176
v -0.02652061 0.3161776 0.02123176
v -0.05086388 0.2115896 0.03564521
v -0.01852989 0.08527949 0.02448007
v -0.0313961 0.08527949 0.02448007
v -0.001833115 -0.003996029 0.002657864
v -0.01051475 -0.003996029 0.002657864
v -0.001833115 -0.003996029 -0.006023776
v -0.03137901 0.0847027 0.01034249
v -0.01051475 -0.003996029 -0.006023776
v -0.01854942 0.0847027 0.01034249
v -0.02918419 0.2114446 0.01397347
v -0.050859 0.2114446 0.01397347
v -0.02652061 0.3161776 -0.005768358
v -0.05352257 0.3161776 -0.005768358
v -0.01854942 0.0847027 0.01034249
v -0.05352257 0.3161776 -0.005768358
v -0.05086388 0.2115896 0.03564521
v -0.050859 0.2114446 0.01397347
v -0.05352257 0.3161776 0.02123176
v -0.0313961 0.08527949 0.02448007
v -0.03137901 0.0847027 0.01034249
v -0.01051475 -0.003996029 0.002657864
v -0.01051475 -0.003996029 -0.006023776
v -0.01852989 0.08527949 0.02448007
v -0.001833115 -0.003996029 -0.006023776
v -0.001833115 -0.003996029 0.002657864
v -0.01854942 0.0847027 0.01034249
v -0.02918419 0.2114446 0.01397347
v -0.0291793 0.2115896 0.03564521
v -0.02652061 0.3161776 0.02123176
v -0.02652061 0.3161776 -0.005768358
v -0.04878624 0.2918057 -0.05243218
v 0.03526405 0.3299355 -0.0003032709
v 0.0110038 0.3568355 -0.02690789
v -0.0299044 0.2590536 -0.0281237
v -0.06559288 0.2866775 -0.0469146
v -0.1123946 0.2848769 0.0481745
v -0.04821739 0.2534649 -0.02211235
v -0.124465 0.3154971 0.01756721
v -0.06455284 0.3938195 0.05584113
v -0.112253 0.299367 0.06207038
v -0.124338 0.3287899 0.03031624
v -0.04708702 0.3702496 0.08989203
v 0.01113075 0.370129 -0.01415949
v -0.02877159 0.3758388 0.08387946
v -0.04774376 0.398948 0.05032293
v 0.03540809 0.3444265 0.0135926
v 0.01113075 0.370129 -0.01415949
v 0.03526405 0.3299355 -0.0003032709
v 0.03540809 0.3444265 0.0135926
v 0.01113075 0.370129 -0.01415949
v 0.0110038 0.3568355 -0.02690789
v -0.04878624 0.2918057 -0.05243218
v -0.04821739 0.2534649 -0.02211235
v -0.0299044 0.2590536 -0.0281237
v -0.06559288 0.2866775 -0.0469146
v -0.1123946 0.2848769 0.0481745
v -0.124338 0.3287899 0.03031624
v -0.112253 0.299367 0.06207038
v -0.124465 0.3154971 0.01756721
v -0.02877159 0.3758388 0.08387946
v -0.06455284 0.3938195 0.05584113
v -0.04774376 0.398948 0.05032293
v -0.04708702 0.3702496 0.08989203
v -0.05996544 0.3220678 -0.01626335
v -0.04878624 0.2918057 -0.05243218
v -0.05375694 0.3239626 -0.01830193
v -0.06559288 0.2866775 -0.0469146
v -0.124465 0.3154971 0.01756721
v -0.08172325 0.3327181 0.007566602
v -0.124338 0.3287899 0.03031624
v -0.08167687 0.3376305 0.01227852
v -0.05958214 0.3616625 0.0217115
v -0.06455284 0.3938195 0.05584113
v -0.04774376 0.398948 0.05032293
v -0.0533712 0.363558 0.0196717
v -0.03161095 0.3529076 -0.004158862
v 0.01113075 0.370129 -0.01415949
v 0.0110038 0.3568355 -0.02690789
v -0.03165733 0.3479952 -0.008870166
v -0.05278282 0.3367901 0.007945021
v -0.112253 0.299367 0.06207038
v 0.03526405 0.3299355 -0.0003032709
v -0.1123946 0.2848769 0.0481745
v -0.04821739 0.2534649 -0.02211235
v -0.0299044 0.2590536 -0.0281237
v -0.04708702 0.3702496 0.08989203
v -0.02877159 0.3758388 0.08387946
v 0.03540809 0.3444265 0.0135926
v 0.05807167 0.1959948 -0.0242791
v 0.1322074 0.1992342 0.02091255
v 0.1263627 0.222712 -0.006869428
v 0.05776893 0.1701122 0.001936116
v 0.04388954 0.1999462 -0.02093101
v 0.007617569 0.233948 0.05032356
v 0.04231239 0.1744186 0.005584797
v 0.01205849 0.2545602 0.02011391
v 0.08551552 0.2927969 0.04580298
v 0.01324989 0.2465048 0.05934822
v 0.01722206 0.2660803 0.02839363
v 0.08768349 0.2756265 0.07832496
v 0.1315263 0.2342321 0.0014106
v 0.10314 0.2713207 0.07467657
v 0.09969521 0.2888461 0.04245551
v 0.1378348 0.2117916 0.02993752
v 0.1315263 0.2342321 0.0014106
v 0.1322074 0.1992342 0.02091255
v 0.1378348 0.2117916 0.02993752
v 0.1263627 0.222712 -0.006869428
v 0.05807167 0.1959948 -0.0242791
v 0.04231239 0.1744186 0.005584797
v 0.05776893 0.1701122 0.001936116
v 0.04388954 0.1999462 -0.02093101
v 0.007617569 0.233948 0.05032356
v 0.01722206 0.2660803 0.02839363
v 0.01324989 0.2465048 0.05934822
v 0.01205849 0.2545602 0.02011391
v 0.10314 0.2713207 0.07467657
v 0.08551552 0.2927969 0.04580298
v 0.09969521 0.2888461 0.04245551
v 0.08768349 0.2756265 0.07832496
v 0.06147988 0.2279696 -0.000949934
v 0.05807167 0.1959948 -0.0242791
v 0.06672157 0.226509 -0.002187422
v 0.04388954 0.1999462 -0.02093101
v 0.01205849 0.2545602 0.02011391
v 0.04971962 0.2481518 0.01421822
v 0.01722206 0.2660803 0.02839363
v 0.09195839 0.2363827 0.004246294
v 0.1263627 0.222712 -0.006869428
v 0.07199257 0.2397927 0.01704293
v 0.07686561 0.2622833 0.02371162
v 0.08551552 0.2927969 0.04580298
v 0.05162636 0.2524099 0.01727821
v 0.09969521 0.2888461 0.04245551
v 0.08210487 0.2608233 0.02247475
v 0.09386513 0.2406405 0.007306596
v 0.1315263 0.2342321 0.0014106
v 0.1315263 0.2342321 0.0014106
v 0.01722206 0.2660803 0.02839363
v 0.04971962 0.2481518 0.01421822
v 0.05162636 0.2524099 0.01727821
v 0.07199257 0.2397927 0.01704293
v 0.09386513 0.2406405 0.007306596
v 0.09195839 0.2363827 0.004246294
v 0.1263627 0.222712 -0.006869428
v 0.01324989 0.2465048 0.05934822
v 0.1378348 0.2117916 0.02993752
v 0.007617569 0.233948 0.05032356
v 0.04231239 0.1744186 0.005584797
v 0.1322074 0.1992342 0.02091255
v 0.05776893 0.1701122 0.001936116
v 0.08768349 0.2756265 0.07832496
v 0.10314 0.2713207 0.07467657
v 0.06934609 0.1608676 0.03973244
v 0.0530082 0.2378567 0.05260566
v 0.08001015 0.2378567 0.05260566
v 0.04766151 0.1608676 0.03973244
v 0.04098671 0.07568903 0.02447946
v 0.0281205 0.07568903 0.02447946
v 0.008201065 -0.003996029 0.002657254
v -0.0004805762 -0.003996029 0.002657254
v 0.008201065 -0.003996029 -0.006024387
v 0.02814003 0.07511225 0.01034188
v -0.0004805762 -0.003996029 -0.006024387
v 0.008201065 -0.003996029 -0.006024387
v 0.04096962 0.07511225 0.01034188
v 0.0693412 0.1607226 0.01806099
v 0.0476664 0.1607226 0.01806099
v 0.08001015 0.2378567 0.02560585
v 0.0530082 0.2378567 0.02560585
v 0.04096962 0.07511225 0.01034188
v 0.0530082 0.2378567 0.02560585
v 0.04766151 0.1608676 0.03973244
v 0.0476664 0.1607226 0.01806099
v 0.0530082 0.2378567 0.05260566
v 0.0281205 0.07568903 0.02447946
v 0.02814003 0.07511225 0.01034188
v -0.0004805762 -0.003996029 0.002657254
v -0.0004805762 -0.003996029 -0.006024387
v 0.04098671 0.07568903 0.02447946
v 0.008201065 -0.003996029 -0.006024387
v 0.008201065 -0.003996029 0.002657254
v 0.008201065 -0.003996029 -0.006024387
v 0.04096962 0.07511225 0.01034188
v 0.0693412 0.1607226 0.01806099
v 0.06934609 0.1608676 0.03973244
v 0.08001015 0.2378567 0.05260566
v 0.08001015 0.2378567 0.02560585
v 0.04096962 0.07511225 0.01034188

vn 0 -0.02235176 -0.9997502
vn 0 -0.1365213 -0.9906371
vn 0 -0.1365213 -0.9906371
vn 0 -0.03104311 -0.999518
vn 0 0.169311 -0.9855627
vn 0 0.154043 -0.9880641
vn 0 0.2374459 -0.9714007
vn 0 0.2374459 -0.9714007
vn 0 -0.1814522 0.9833997
vn 0 -0.09586164 0.9953946
vn 0 -0.1814522 0.9833997
vn 0 -0.1116651 0.9937459
vn 0 0.07681103 0.9970457
vn 0 0.08508302 0.9963738
vn 0 0.1852347 0.9826943
vn 0 0.1852347 0.9826943
vn 0 -0.1116651 0.9937459
vn 0.9996769 0.0254154 7.587994E-06
vn 0.9959517 0.08988906 -0.0003814152
vn 0.9962652 0.08634418 -0.0004920251
vn 0.9996771 0.0254124 -1.110811E-09
vn 0.9825659 0.1858126 -0.006154038
vn 0.9809093 0.1943565 -0.006511187
vn 0.9734186 0.2290323 -0.0006789047
vn 0.9734319 0.2289766 -1.000889E-08
vn -0.9917006 -0.1284229 0.006118695
vn -0.9828985 -0.1841457 0.0009333549
vn -0.9829566 -0.1838377 8.035802E-09
vn -0.9901302 -0.1399716 0.007078421
vn -0.9996351 -0.02700536 0.0005348304
vn -0.9995484 -0.03004673 0.0004261846
vn -0.9996768 0.02542337 6.660691E-06
vn -0.9996767 0.02542383 -1.111311E-09
vn -0.5872622 0.2360587 0.774209
vn -0.5872632 0.2360645 0.7742063
vn -0.5872639 0.2360684 0.7742047
vn -0.5872616 0.2360552 0.7742105
vn 0.6941145 0.6270854 0.3535092
vn 0.6941435 0.6270459 0.3535227
vn 0.6940975 0.6271088 0.3535012
vn 0.6941628 0.6270195 0.3535317
vn 0.6842933 -0.3863669 -0.6184362
vn 0.6842952 -0.3863676 -0.6184336
vn 0.6842965 -0.3863682 -0.6184318
vn 0.6842922 -0.3863665 -0.6184377
vn -0.5970763 -0.7774321 -0.197735
vn -0.5971053 -0.7774065 -0.1977483
vn -0.5971247 -0.7773893 -0.1977572
vn -0.597059 -0.7774473 -0.1977271
vn -0.8416159 -0.3695588 0.3938388
vn -0.8415865 -0.3695004 0.3939565
vn -0.8415713 -0.3694705 0.3940169
vn -0.8416159 -0.3695588 0.3938388
vn -0.8416321 -0.3695908 0.3937741
vn 0.06772068 0.6194784 0.7820872
vn 0.06769084 0.6194794 0.7820891
vn 0.06767555 0.61948 0.78209
vn 0.06773705 0.6194779 0.7820863
vn 0.9631761 0.1811687 -0.19867
vn 0.963186 0.1812042 -0.1985895
vn 0.9631709 0.1811505 -0.1987113
vn 0.9631915 0.1812236 -0.1985453
vn 0.05387897 -0.8078984 -0.5868536
vn 0.05385993 -0.8079113 -0.5868376
vn 0.05384949 -0.8079184 -0.5868288
vn 0.05388872 -0.8078917 -0.5868618
vn 0.3654391 -0.7269339 0.581396
vn 0.4089405 -0.6337237 0.6566291
vn 0.4441783 -0.7029064 0.5555432
vn 0.4089465 -0.6337242 0.6566251
vn 0.4089619 -0.6337003 0.6566384
vn 0.2961376 -0.6930392 0.6572664
vn 0.4089573 -0.6337 0.6566417
vn 0.2967602 -0.6307466 0.7170022
vn 0.3671247 -0.5542277 0.7470281
vn 0.4089294 -0.6337151 0.6566445
vn 0.4089377 -0.633719 0.6566356
vn 0.445883 -0.5301926 0.7211685
vn 0.5151134 -0.5640697 0.6453553
vn 0.4089639 -0.633679 0.6566578
vn 0.408957 -0.633684 0.6566572
vn 0.5144822 -0.6263763 0.5856286
vn 0.4089333 -0.6337248 0.6566327
vn -0.4089575 0.6337065 -0.6566352
vn -0.4089504 0.633716 -0.6566306
vn -0.4089575 0.6337097 -0.6566321
vn -0.4089526 0.6337135 -0.6566315
vn -0.4089402 0.6337047 -0.6566478
vn -0.4089545 0.6337102 -0.6566334
vn -0.4089481 0.6337171 -0.6566308
vn -0.4089369 0.6337274 -0.656628
vn -0.4162939 0.6494113 0.636368
vn -0.4162956 0.6494071 0.6363713
vn -0.4162968 0.6494042 0.6363734
vn -0.4162928 0.6494138 0.6363662
vn 0.902725 0.2818527 0.3250335
vn 0.9027237 0.281863 0.325028
vn 0.9027256 0.2818466 0.3250368
vn 0.902723 0.2818699 0.3250243
vn 0.4223919 -0.7896169 -0.4450732
vn 0.4223765 -0.7896039 -0.4451111
vn 0.4223662 -0.7895952 -0.4451362
vn 0.422401 -0.7896246 -0.4450508
vn -0.8966407 -0.4220802 -0.1337302
vn -0.8966373 -0.4220893 -0.1337242
vn -0.8966351 -0.4220954 -0.1337203
vn -0.8966427 -0.4220748 -0.1337337
vn -0.9251032 0.1709338 0.3390662
vn -0.9251127 0.1709223 0.3390459
vn -0.9251176 0.1709164 0.3390355
vn -0.9250979 0.17094 0.3390772
vn 0.3420784 0.6666949 0.6621935
vn 0.3420708 0.6666996 0.6621928
vn 0.3420669 0.6667019 0.6621925
vn 0.3420826 0.6666924 0.6621939
vn 0.9326695 -0.346723 -0.09955242
vn 0.9327026 -0.3466633 -0.09945054
vn 0.9326527 -0.3467536 -0.09960472
vn 0.9327207 -0.3466306 -0.0993946
vn -0.334411 -0.842429 -0.4224721
vn -0.3344359 -0.8424274 -0.4224556
vn -0.3344497 -0.8424265 -0.4224466
vn -0.3343982 -0.8424298 -0.4224806
vn -0.05600463 -0.6661894 0.7436767
vn 0.02567482 -0.5909957 0.8062659
vn 0.02507355 -0.6887822 0.7245347
vn 0.02567248 -0.5909948 0.8062668
vn 0.02565768 -0.5909903 0.8062705
vn -0.1017196 -0.5878005 0.8025856
vn 0.02566383 -0.5909855 0.8062738
vn 0.1230818 -0.6504162 0.7495395
vn 0.02566225 -0.5909968 0.8062656
vn 0.02567627 -0.5909823 0.8062757
vn 0.02585349 -0.4835987 0.8749079
vn 0.02567042 -0.5909989 0.8062638
vn -0.07214268 -0.5219435 0.8499237
vn 0.02566682 -0.5909959 0.8062661
vn 0.106919 -0.5061939 0.8557663
vn 0.152645 -0.5845633 0.7968596
vn 0.02566036 -0.5909972 0.8062654
vn 0.02566036 -0.5909972 0.8062654
vn 0.02566383 -0.5909855 0.8062738
vn -0.1017196 -0.5878005 0.8025856
vn -0.07214268 -0.5219435 0.8499237
vn 0.02567627 -0.5909823 0.8062757
vn 0.152645 -0.5845633 0.7968596
vn 0.1230818 -0.6504162 0.7495395
vn 0.02566225 -0.5909968 0.8062656
vn -0.02566801 0.5909902 -0.8062702
vn -0.02566687 0.5909844 -0.8062745
vn -0.02566911 0.5909876 -0.8062721
vn -0.02566954 0.5909881 -0.8062716
vn -0.02566283 0.5909751 -0.8062814
vn -0.02567098 0.5909954 -0.8062664
vn -0.0256709 0.5909917 -0.806269
vn -0.02568273 0.5909855 -0.8062732
vn 0 0.1697284 -0.9854909
vn 0 0.1649187 -0.9863071
vn 0 0.1649187 -0.9863071
vn 0 0.1710958 -0.9852543
vn 0 0.2104974 -0.9775944
vn 0 0.2279238 -0.973679
vn 0 0.2641302 -0.964487
vn 0 0.2641302 -0.964487
vn 0 -0.2025942 0.9792628
vn 0 -0.1562026 0.987725
vn 0 -0.2025942 0.9792628
vn 0 -0.2025942 0.9792628
vn 0 -0.1334892 0.9910502
vn 0 -0.09415749 0.9955574
vn 0 -0.09324186 0.9956435
vn 0 -0.09735022 0.9952502
vn 0 -0.09735023 0.9952502
vn 0 -0.1334892 0.9910502
vn 0.9975987 -0.06925939 0.0001146855
vn 0.9903915 -0.1382877 0.001071874
vn 0.9884022 -0.1518494 0.001689536
vn 0.9975972 -0.06928033 3.02834E-09
vn 0.961876 -0.2732328 0.01177051
vn 0.957131 -0.2893788 0.01265468
vn 0.940307 -0.3403247 0.001346598
vn 0.9403498 -0.3402094 1.487103E-08
vn -0.9385678 0.3448955 -0.01173066
vn -0.9245669 0.3810164 -0.001599697
vn -0.9247836 0.3804933 -1.663189E-08
vn -0.9245669 0.3810164 -0.001599697
vn -0.9350035 0.3543881 -0.01332802
vn -0.9724156 0.2332485 -0.001764365
vn -0.9759884 0.217819 -0.001237082
vn -0.9905617 0.1370675 -0.0001252682
vn -0.9905694 0.1370124 -5.989004E-09
vn -0.9350035 0.3543881 -0.01332802

vt 0.974552 0.738574
vt 0.986119 0.703122
vt 0.976936 0.702345
vt 0.982046 0.738894
vt 0.970456 0.782773
vt 0.974907 0.782656
vt 0.96748 0.815159
vt 0.970467 0.814899
vt 0.964536 0.815559
vt 0.961079 0.782566
vt 0.96167 0.814899
vt 0.965543 0.78322
vt 0.966908 0.737965
vt 0.959164 0.737438
vt 0.967894 0.700433
vt 0.958664 0.700371
vt 0.965543 0.78322
vt 0.958664 0.700371
vt 0.951647 0.73806
vt 0.959164 0.737438
vt 0.949635 0.702134
vt 0.956185 0.782162
vt 0.961079 0.782566
vt 0.958761 0.814414
vt 0.96167 0.814899
vt 0.970456 0.782773
vt 0.964536 0.815559
vt 0.96748 0.815159
vt 0.965543 0.78322
vt 0.966908 0.737965
vt 0.974552 0.738574
vt 0.976936 0.702345
vt 0.967894 0.700433
vt 0.195084 0.535825
vt 0.154809 0.549697
vt 0.170145 0.558973
vt 0.186475 0.521453
vt 0.198469 0.536022
vt 0.236089 0.548268
vt 0.206051 0.522078
vt 0.223173 0.557474
vt 0.199923 0.583096
vt 0.240198 0.569225
vt 0.224861 0.559949
vt 0.208531 0.597468
vt 0.171834 0.561448
vt 0.188955 0.596844
vt 0.196536 0.582899
vt 0.158917 0.570654
vt 0.171834 0.561448
vt 0.154809 0.549697
vt 0.158917 0.570654
vt 0.171834 0.561448
vt 0.170145 0.558973
vt 0.195084 0.535825
vt 0.206051 0.522078
vt 0.186475 0.521453
vt 0.198469 0.536022
vt 0.236089 0.548268
vt 0.224861 0.559949
vt 0.240198 0.569225
vt 0.223173 0.557474
vt 0.188955 0.596844
vt 0.199923 0.583096
vt 0.196536 0.582899
vt 0.208531 0.597468
vt 0.198288 0.551737
vt 0.195084 0.535825
vt 0.196186 0.552138
vt 0.198469 0.536022
vt 0.223173 0.557474
vt 0.206879 0.559515
vt 0.224861 0.559949
vt 0.207484 0.559589
vt 0.198821 0.566784
vt 0.199923 0.583096
vt 0.196536 0.582899
vt 0.196718 0.567185
vt 0.188127 0.559407
vt 0.171834 0.561448
vt 0.170145 0.558973
vt 0.187522 0.559333
vt 0.197503 0.559461
vt 0.166848 0.529091
vt 0.13883 0.529592
vt 0.166485 0.532522
vt 0.153088 0.543351
vt 0.149659 0.542988
vt 0.156019 0.515695
vt 0.152589 0.515332
vt 0.139193 0.526161
vt 0.141958 0.696989
vt 0.103707 0.678878
vt 0.107126 0.695343
vt 0.146172 0.680532
vt 0.144877 0.699151
vt 0.165774 0.739227
vt 0.161955 0.694222
vt 0.147086 0.735398
vt 0.109241 0.734579
vt 0.147492 0.752691
vt 0.144075 0.736225
vt 0.105029 0.751037
vt 0.104114 0.69617
vt 0.089245 0.737347
vt 0.106323 0.732418
vt 0.085426 0.692342
vt 0.104114 0.69617
vt 0.103707 0.678878
vt 0.085426 0.692342
vt 0.107126 0.695343
vt 0.141958 0.696989
vt 0.161955 0.694222
vt 0.146172 0.680532
vt 0.144877 0.699151
vt 0.165774 0.739227
vt 0.144075 0.736225
vt 0.147492 0.752691
vt 0.147086 0.735398
vt 0.089245 0.737347
vt 0.109241 0.734579
vt 0.106323 0.732418
vt 0.105029 0.751037
vt 0.132414 0.710967
vt 0.141958 0.696989
vt 0.130572 0.709547
vt 0.144877 0.699151
vt 0.147086 0.735398
vt 0.132659 0.723729
vt 0.144075 0.736225
vt 0.118659 0.708101
vt 0.107126 0.695343
vt 0.1256 0.715784
vt 0.120627 0.722021
vt 0.109241 0.734579
vt 0.132542 0.723467
vt 0.106323 0.732418
vt 0.118786 0.720602
vt 0.118541 0.707839
vt 0.104114 0.69617
vt 0.104114 0.69617
vt 0.144075 0.736225
vt 0.132659 0.723729
vt 0.132542 0.723467
vt 0.1256 0.715784
vt 0.118541 0.707839
vt 0.118659 0.708101
vt 0.107126 0.695343
vt 0.180611 0.753033
vt 0.155056 0.752219
vt 0.180511 0.756204
vt 0.168961 0.76704
vt 0.154954 0.755389
vt 0.165791 0.766939
vt 0.169775 0.741484
vt 0.166605 0.741382
vt 0.774198 0.95154
vt 0.770871 0.978275
vt 0.780161 0.977495
vt 0.766894 0.951413
vt 0.767279 0.921636
vt 0.762831 0.921184
vt 0.759635 0.891526
vt 0.756603 0.891109
vt 0.762323 0.890096
vt 0.775256 0.916579
vt 0.76465 0.88816
vt 0.762323 0.890096
vt 0.771662 0.919348
vt 0.780788 0.948725
vt 0.787026 0.944946
vt 0.788759 0.973936
vt 0.79716 0.969827
vt 0.771662 0.919348
vt 0.79716 0.969827
vt 0.79421 0.942797
vt 0.787026 0.944946
vt 0.806127 0.967154
vt 0.780112 0.915582
vt 0.775256 0.916579
vt 0.767626 0.88768
vt 0.76465 0.88816
vt 0.767279 0.921636
vt 0.762323 0.890096
vt 0.759635 0.891526
vt 0.762323 0.890096
vt 0.771662 0.919348
vt 0.780788 0.948725
vt 0.774198 0.95154
vt 0.780161 0.977495
vt 0.788759 0.973936
vt 0.771662 0.919348

usemtl MAT_Leaf_01
f 1/1/1 2/2/2 3/3/3
f 2/2/2 1/1/1 4/4/4
f 5/5/5 4/4/4 1/1/1
f 4/4/4 5/5/5 6/6/6
f 7/7/7 6/6/6 5/5/5
f 6/6/6 7/7/7 8/8/8
f 9/9/9 10/10/10 11/11/11
f 10/10/10 9/9/9 12/12/12
f 10/10/10 13/13/13 14/14/14
f 15/15/15 14/14/14 13/13/13
f 14/14/14 15/15/15 16/16/16
f 13/13/13 10/10/10 17/17/17
f 18/18/18 19/19/19 20/20/20
f 19/19/19 18/18/18 21/21/21
f 22/22/22 20/20/20 19/19/19
f 20/20/20 22/22/22 23/23/23
f 24/24/24 23/23/23 22/22/22
f 23/23/23 24/24/24 25/25/25
f 26/26/26 27/27/27 28/28/28
f 27/27/27 26/26/26 29/29/29
f 26/26/26 30/30/30 29/29/29
f 30/30/30 26/26/26 31/31/31
f 32/32/32 30/30/30 31/31/31
f 30/30/30 32/32/32 33/33/33
f 34/34/34 35/35/35 36/36/36
f 35/35/35 34/34/34 37/37/37
f 38/38/38 39/39/39 40/40/40
f 39/39/39 38/38/38 41/41/41
f 42/42/42 43/43/43 44/44/44
f 43/43/43 42/42/42 45/45/45
f 46/46/46 47/47/47 48/48/48
f 47/47/47 46/46/46 49/49/49
f 50/50/50 51/51/51 52/52/52
f 51/51/51 53/53/53 54/54/54
f 55/55/55 56/56/56 57/57/57
f 56/56/56 55/55/55 58/58/58
f 59/59/59 60/60/60 61/61/61
f 60/60/60 59/59/59 62/62/62
f 63/63/63 64/64/64 65/65/65
f 64/64/64 63/63/63 66/66/66
f 67/67/67 68/68/68 69/69/69
f 68/68/68 67/67/67 70/70/70
f 67/67/67 71/71/71 70/70/70
f 71/71/71 67/67/67 72/72/72
f 72/72/72 73/73/73 71/71/71
f 73/73/73 72/72/72 74/74/74
f 75/75/75 73/73/73 74/74/74
f 73/73/73 75/75/75 76/76/76
f 75/75/75 77/77/77 76/76/76
f 77/77/77 75/75/75 78/78/78
f 79/79/79 77/77/77 78/78/78
f 77/77/77 79/79/79 80/80/80
f 79/79/79 81/81/81 80/80/80
f 81/81/81 79/79/79 82/82/82
f 82/82/82 68/68/68 81/81/81
f 68/68/68 82/82/82 69/69/69
f 72/72/72 83/83/83 74/74/74
f 74/74/74 83/83/83 75/75/75
f 75/75/75 83/83/83 78/78/78
f 78/78/78 83/83/83 79/79/79
f 79/79/79 83/83/83 82/82/82
f 82/82/82 83/83/83 69/69/69
f 69/69/69 83/83/83 67/67/67
f 67/67/67 83/83/83 72/72/72
f 84/84/84 85/85/85 86/86/86
f 86/86/86 85/85/85 87/87/87
f 87/87/87 85/85/85 88/88/88
f 89/89/89 85/85/85 84/84/84
f 90/90/90 85/85/85 89/89/89
f 85/85/85 90/90/90 91/91/91
f 92/92/92 93/93/93 94/94/94
f 93/93/93 92/92/92 95/95/95
f 96/96/96 97/97/97 98/98/98
f 97/97/97 96/96/96 99/99/99
f 100/100/100 101/101/101 102/102/102
f 101/101/101 100/100/100 103/103/103
f 104/104/104 105/105/105 106/106/106
f 105/105/105 104/104/104 107/107/107
f 108/108/108 109/109/109 110/110/110
f 109/109/109 108/108/108 111/111/111
f 112/112/112 113/113/113 114/114/114
f 113/113/113 112/112/112 115/115/115
f 116/116/116 117/117/117 118/118/118
f 117/117/117 116/116/116 119/119/119
f 120/120/120 121/121/121 122/122/122
f 121/121/121 120/120/120 123/123/123
f 124/124/124 125/125/125 126/126/126
f 125/125/125 124/124/124 127/127/127
f 124/124/124 128/128/128 127/127/127
f 128/128/128 124/124/124 129/129/129
f 129/129/129 130/130/130 128/128/128
f 125/125/125 131/131/131 126/126/126
f 131/131/131 125/125/125 132/132/132
f 131/131/131 133/133/133 126/126/126
f 126/126/126 133/133/133 124/124/124
f 124/124/124 133/133/133 129/129/129
f 130/130/130 134/134/134 135/135/135
f 134/134/134 130/130/130 136/136/136
f 136/136/136 133/133/133 134/134/134
f 134/134/134 137/137/137 135/135/135
f 137/137/137 134/134/134 138/138/138
f 134/134/134 133/133/133 138/138/138
f 139/139/139 137/137/137 138/138/138
f 138/138/138 133/133/133 139/139/139
f 137/137/137 139/139/139 140/140/140
f 139/139/139 132/132/132 141/141/141
f 142/142/142 143/143/143 144/144/144
f 143/143/143 145/145/145 144/144/144
f 146/146/146 145/145/145 147/147/147
f 148/148/148 146/146/146 147/147/147
f 149/149/149 150/150/150 151/151/151
f 151/151/151 150/150/150 152/152/152
f 153/153/153 152/152/152 150/150/150
f 152/152/152 153/153/153 154/154/154
f 155/155/155 150/150/150 149/149/149
f 156/156/156 150/150/150 155/155/155
f 157/157/157 158/158/158 159/159/159
f 158/158/158 157/157/157 160/160/160
f 161/161/161 160/160/160 157/157/157
f 160/160/160 161/161/161 162/162/162
f 163/163/163 162/162/162 161/161/161
f 162/162/162 163/163/163 164/164/164
f 165/165/165 166/166/166 167/167/167
f 166/166/166 168/168/168 169/169/169
f 166/166/166 170/170/170 171/171/171
f 172/172/172 171/171/171 170/170/170
f 171/171/171 172/172/172 173/173/173
f 170/170/170 166/166/166 174/174/174
f 175/175/175 176/176/176 177/177/177
f 176/176/176 175/175/175 178/178/178
f 179/179/179 177/177/177 176/176/176
f 177/177/177 179/179/179 180/180/180
f 181/181/181 180/180/180 179/179/179
f 180/180/180 181/181/181 182/182/182
f 183/183/183 184/184/184 185/185/185
f 186/186/186 183/183/183 187/187/187
f 188/188/188 183/183/183 189/189/189
f 190/190/190 188/188/188 189/189/189
f 188/188/188 190/190/190 191/191/191
f 183/183/183 188/188/188 192/192/192
