#FOL_Grass_09.obj
#Friday, January 12, 2018
#3:42:28 PM
#-------

mtllib FOL_Grass_09.mtl
#FOL_Grass_09
#-------
g FOL_Grass_09
v -0.100791 -0.005639041 -0.07081421
v -0.0432373 0.1213177 -0.1106183
v -0.1701953 0.1213177 -0.122815
v -0.2211963 0.2267279 -0.1758789
v -0.100791 -0.005639041 -0.07081421
v -0.1701953 0.1213177 -0.01304871
v -0.1314307 -0.005639039 -0.01113464
v -0.1701953 0.1213177 -0.122815
v -0.2211963 0.2267279 -0.04997926
v -0.2211963 0.2267279 -0.1758789
v -0.3259619 0.4068353 -0.2460376
v -0.3353125 0.4318451 -0.1037268
v -0.205083 0.4863141 -0.2520618
v -0.3353125 0.4318451 -0.1037268
v -0.3259619 0.4068353 -0.2460376
v -0.2144336 0.5113239 -0.109751
v 0.04034668 0.4062561 -0.3089862
v 0.1876025 0.4250891 -0.1869086
v 0.06623535 0.472511 -0.1869086
v 0.1617139 0.3588342 -0.3089862
v -0.0432373 0.1213178 0.1099243
v 0.07384277 0.1213177 0.07822937
v 0.03172851 -0.005639036 0.05726626
v 0.1372803 0.2587549 0.1586261
v -0.002045898 0.2587549 0.1586261
v 0.06807617 0.4751733 0.3089862
v 0.2277832 0.4518439 0.2994867
v -0.002045898 0.2587549 0.1586261
v -0.1088574 -0.005639037 0.04150268
v -0.0432373 0.1213178 0.1099243
v -0.1314307 -0.005639039 -0.01113464
v -0.1505225 0.1213177 0.09901547
v -0.1088574 -0.005639037 0.04150268
v -0.1701953 0.1213177 -0.01304871
v -0.2054639 0.2977545 0.1666602
v -0.1701953 0.1213177 -0.01304871
v -0.2054639 0.3423175 0.02963011
v -0.2668262 0.6429523 0.1143335
v -0.2668262 0.583919 0.2734375
v -0.2668262 0.6429523 0.1143335
v -0.09162597 0.583919 0.2734375
v -0.2668262 0.583919 0.2734375
v -0.09162597 0.6429523 0.1143335
v 0.1384961 0.1213177 -0.03828003
v 0.07368164 -0.005639037 0.02703125
v 0.1384961 0.1213177 0.04106142
v 0.2225586 0.2186053 -0.06033631
v 0.2225586 0.2186053 0.04106141
v 0.3345605 0.3045935 0.02210751
v 0.3353076 0.3055859 -0.07928285
v 0.1384961 0.1213177 -0.03828003
v 0.05345215 -0.005639039 -0.03126953
v 0.2277832 0.5158447 0.1423144
v 0.06807617 0.4751733 0.3089862
v 0.06807617 0.5391742 0.1518139
v 0.2277832 0.4518439 0.2994867
v -0.0432373 0.1213177 -0.01304871
v -0.2054639 0.3423175 0.02963011
v -0.1701953 0.1213177 -0.01304871
v -0.05438476 0.3423175 0.02963011
v -0.09162597 0.6429523 0.1143335
v -0.2668262 0.6429523 0.1143335
v -0.1505225 0.1213177 0.09901547
v -0.05438476 0.2977545 0.1666602
v -0.0432373 0.1213178 0.1099243
v -0.1088574 -0.005639037 0.04150268
v -0.05438476 0.2977545 0.1666602
v -0.2054639 0.2977545 0.1666602
v -0.2668262 0.583919 0.2734375
v -0.09162597 0.583919 0.2734375
v -0.0432373 0.1213177 -0.01304871
v -0.05438476 0.2977545 0.1666602
v -0.05438476 0.3423175 0.02963011
v -0.0432373 0.1213178 0.1099243
v -0.09162597 0.583919 0.2734375
v -0.09162597 0.6429523 0.1143335
v 0.07384277 0.1213177 -0.02052063
v -0.002045898 0.3092499 0.05356747
v -0.0432373 0.1213177 -0.01304871
v 0.1372803 0.3092499 0.05356747
v 0.2277832 0.5158447 0.1423144
v 0.2277832 0.5158447 0.1423144
v 0.06807617 0.5391742 0.1518139
v -0.0432373 0.1213178 0.1099243
v -0.002045898 0.3092499 0.05356747
v -0.002045898 0.2587549 0.1586261
v 0.06807617 0.5391742 0.1518139
v 0.06807617 0.4751733 0.3089862
v -0.0432373 0.1213178 0.1099243
v -0.0432373 0.1213177 -0.01304871
v 0.07384277 0.1213177 0.07822937
v 0.1372803 0.3092499 0.05356747
v 0.07384277 0.1213177 -0.02052063
v 0.1372803 0.3092499 0.05356747
v 0.1372803 0.2587549 0.1586261
v 0.2277832 0.5158447 0.1423144
v 0.2277832 0.4518439 0.2994867
v -0.003662109 0.2853778 -0.07576234
v -0.0432373 0.1213177 -0.1106183
v 0.006289063 0.2479822 -0.1869678
v -0.0432373 0.1213177 -0.01304871
v 0.06623535 0.472511 -0.1869086
v 0.04034668 0.4062561 -0.3089862
v 0.130127 0.2559759 -0.07576233
v -0.0432373 0.1213177 -0.01304871
v -0.003662109 0.2853778 -0.07576234
v 0.07384277 0.1213177 -0.02052063
v 0.06623535 0.472511 -0.1869086
v 0.130127 0.2559759 -0.07576233
v 0.1876025 0.4250891 -0.1869086
v 0.130127 0.2559759 -0.07576233
v 0.07384277 0.1213177 -0.1106183
v 0.07384277 0.1213177 -0.02052063
v 0.1023828 0.2303754 -0.1869678
v 0.03172851 -0.005639042 -0.07584716
v 0.05345215 -0.005639039 -0.03126953
v 0.1617139 0.3588342 -0.3089862
v 0.130127 0.2559759 -0.07576233
v 0.1876025 0.4250891 -0.1869086
v -0.0432373 0.1213177 -0.1106183
v 0.1023828 0.2303754 -0.1869678
v 0.006289063 0.2479822 -0.1869678
v 0.1617139 0.3588342 -0.3089862
v 0.04034668 0.4062561 -0.3089862
v -0.0432373 0.1213177 -0.1106183
v 0.07384277 0.1213177 -0.1106183
v 0.03172851 -0.005639042 -0.07584716
v -0.100791 -0.005639041 -0.07081421
v -0.2211963 0.2267279 -0.1758789
v -0.0432373 0.1213177 -0.1106183
v -0.1103955 0.282265 -0.163634
v -0.3259619 0.4068353 -0.2460376
v -0.205083 0.4863141 -0.2520618
v -0.1103955 0.282265 -0.04997926
v -0.1701953 0.1213177 -0.01304871
v -0.2211963 0.2267279 -0.04997926
v -0.0432373 0.1213177 -0.01304871
v -0.3353125 0.4318451 -0.1037268
v -0.2144336 0.5113239 -0.109751
v -0.1103955 0.282265 -0.04997926
v -0.0432373 0.1213177 -0.1106183
v -0.0432373 0.1213177 -0.01304871
v -0.1103955 0.282265 -0.163634
v -0.2144336 0.5113239 -0.109751
v -0.205083 0.4863141 -0.2520618
v 0.03172851 -0.005639036 0.05726626
v 0.1384961 0.1213177 0.04106142
v 0.07368164 -0.005639037 0.02703125
v 0.07384277 0.1213177 0.07822937
v 0.1517773 0.2649945 0.07454833
v 0.2225586 0.2186053 0.04106141
v 0.2567334 0.3896442 0.04015135
v 0.3345605 0.3045935 0.02210751
v 0.2567334 0.3896442 0.04015135
v 0.3353076 0.3055859 -0.07928285
v 0.3345605 0.3045935 0.02210751
v 0.2576416 0.3908478 -0.08281252
v 0.1384961 0.1213177 -0.03828003
v 0.1517773 0.2649945 -0.04842469
v 0.07384277 0.1213177 -0.02052063
v 0.2225586 0.2186053 -0.06033631
v 0.05345215 -0.005639039 -0.03126953
v 0.3353076 0.3055859 -0.07928285
v 0.2576416 0.3908478 -0.08281252
v 0.07384277 0.1213177 0.07822937
v 0.1517773 0.2649945 -0.04842469
v 0.1517773 0.2649945 0.07454833
v 0.07384277 0.1213177 -0.02052063
v 0.2567334 0.3896442 0.04015135
v 0.2576416 0.3908478 -0.08281252

vn -0.01846508 0.3067265 0.9516187
vn -0.0378629 0.3584127 0.9327951
vn -0.08817808 0.3869745 0.9178645
vn -0.1985833 0.2648241 0.9436275
vn 0.8918278 0.3675408 0.2637365
vn 0.8979405 0.4348168 0.06809736
vn 0.856989 0.2683041 0.4399804
vn 0.891785 0.4524593 -1.977762E-08
vn 0.8877705 0.4602652 -0.00442358
vn 0.8784713 0.477795 -2.088508E-08
vn 0.8729987 0.4873609 -0.01878491
vn 0.876523 0.4806095 -0.02687027
vn 0.5466877 -0.8178383 0.1796476
vn 0.5466877 -0.8178383 0.1796476
vn 0.5466876 -0.8178383 0.1796476
vn 0.5466876 -0.8178383 0.1796476
vn -0.3144483 -0.8047702 0.5034553
vn -0.3144483 -0.8047702 0.5034553
vn -0.3144484 -0.8047702 0.5034553
vn -0.3144484 -0.8047702 0.5034553
vn -0.01388708 0.3836948 -0.9233556
vn -0.3577145 0.3606912 -0.8613607
vn -0.2600353 0.360284 -0.8958666
vn -0.02974458 0.525216 -0.8504489
vn 0 0.435987 -0.8999529
vn 0.02486687 0.5757481 -0.8172489
vn 0.03592726 0.5779283 -0.8152963
vn 0 0.435987 -0.8999529
vn 0.09677138 0.4329748 -0.8961965
vn -0.01388708 0.3836948 -0.9233556
vn 0.8855937 0.3731364 -0.2765737
vn 0.9217612 0.3410498 -0.1845026
vn 0.8284955 0.4328509 -0.355296
vn 0.952916 0.2776431 -0.1219236
vn 0.9803023 0.1957704 0.02610159
vn 0.952916 0.2776431 -0.1219236
vn 0.9844886 0.1668471 0.05425966
vn 0.9806437 0.184329 0.06603493
vn 0.9804105 0.1846637 0.06851675
vn 0 -0.9375455 -0.3478625
vn 0 -0.9375455 -0.3478625
vn 0 -0.9375455 -0.3478625
vn 0 -0.9375455 -0.3478625
vn -0.815855 0.5772645 0.03385774
vn -0.8281311 0.5245008 0.1977313
vn -0.8274683 0.5615124 -2.454449E-08
vn -0.6794001 0.7337678 0.0006962992
vn -0.6896486 0.7241442 -3.165335E-08
vn -0.6098908 0.792483 0.001999153
vn -0.6104695 0.7920331 0.003254467
vn -0.815855 0.5772645 0.03385774
vn -0.7917691 0.5455492 0.2747319
vn -0.1557965 -0.9148497 -0.3725286
vn -0.1557965 -0.9148497 -0.3725286
vn -0.1557965 -0.9148497 -0.3725286
vn -0.1557965 -0.9148497 -0.3725286
vn 0 -0.1896137 0.9818587
vn 0 -0.2350876 0.9719743
vn 0 -0.1896137 0.9818587
vn 0 -0.2283696 0.9735745
vn 0 -0.2711901 0.9625258
vn 0 -0.2711901 0.9625258
vn 0.07114384 0.3754113 -0.9241238
vn 0.01665105 0.3460525 -0.9380673
vn -0.01388708 0.3836948 -0.9233556
vn 0.09677138 0.4329748 -0.8961965
vn 0.01665105 0.3460525 -0.9380673
vn 0 0.3531296 -0.9355744
vn 0 0.3495891 -0.9369031
vn 0 0.3495891 -0.9369031
vn -0.9983957 -0.05621863 -0.006736148
vn -0.9961587 -0.08414055 -0.02425341
vn -0.9962049 -0.08251674 -0.02769011
vn -0.9980101 -0.06305534 2.756236E-09
vn -0.9928457 -0.1124115 -0.04026125
vn -0.9929212 -0.1113572 -0.04131746
vn 0.03837867 -0.3530356 0.9348225
vn 0.01053829 -0.3743399 0.9272317
vn 0.05977625 -0.3451172 0.9366542
vn 0 -0.3837475 0.9234381
vn -0.001790959 -0.3930111 0.919532
vn -0.001790959 -0.3930111 0.919532
vn -0.002586882 -0.3922622 0.9198498
vn 0.9736168 -0.2249276 -0.03844233
vn 0.9665196 -0.2387256 -0.0940741
vn 0.9627432 -0.2449686 -0.1145242
vn 0.9642822 -0.2436535 -0.1038882
vn 0.9647715 -0.2436625 -0.09921986
vn 0.9736168 -0.2249276 -0.03844233
vn 0.9768118 -0.2140999 9.358605E-09
vn -0.9444246 0.3251463 0.04839442
vn -0.9325911 0.3340181 0.1367691
vn -0.9474764 0.3198257 -1.398003E-08
vn -0.9325911 0.3340181 0.1367691
vn -0.9288791 0.3357413 0.1564013
vn -0.9305368 0.33671 0.1439707
vn -0.9315991 0.3366469 0.1370833
vn 0.956643 -0.2552772 0.1402417
vn 0.9673071 -0.2462351 0.06070637
vn 0.9571514 -0.2607368 0.1260061
vn 0.9721167 -0.2344977 1.025022E-08
vn 0.9660741 -0.2579327 0.01309236
vn 0.9641336 -0.2573941 -0.06476633
vn -0.1046849 -0.422266 -0.9004068
vn -0.06690288 -0.3491653 -0.9346698
vn -0.08952831 -0.4073862 -0.908857
vn -0.05948063 -0.3574877 -0.9320218
vn -0.1606416 -0.4878236 -0.8580341
vn -0.1046849 -0.422266 -0.9004068
vn -0.192419 -0.4924594 -0.8487985
vn -0.9168075 0.3907107 0.08251827
vn -0.9357538 0.3507729 0.03637716
vn -0.9442096 0.3245614 0.0559301
vn -0.8902579 0.439083 0.1210251
vn -0.9409146 0.1899435 0.2803591
vn -0.89381 0.1066774 0.4355727
vn -0.9217969 0.3850553 0.04497566
vn -0.9168075 0.3907107 0.08251827
vn -0.9427278 0.3330106 0.01918771
vn -0.0378629 0.3584127 0.9327951
vn 0.08932703 0.5965204 0.7976115
vn 0.1230787 0.552958 0.8240688
vn 0.192368 0.5918706 0.7827412
vn 0.2208524 0.5652292 0.7948208
vn -0.0378629 0.3584127 0.9327951
vn 0 0.4517529 0.8921431
vn 0.02047187 0.2753247 0.9611333
vn -0.01846508 0.3067265 0.9516187
vn -0.1985833 0.2648241 0.9436275
vn -0.0378629 0.3584127 0.9327951
vn -0.2099923 0.2469655 0.9459976
vn -0.1847221 0.2995308 0.9360337
vn -0.1676335 0.3254868 0.9305683
vn 0.08372451 -0.2251327 -0.9707242
vn 0.05274587 -0.2419107 -0.9688638
vn 0.1173853 -0.2341928 -0.9650775
vn 0 -0.2236454 -0.9746706
vn 0.0937172 -0.2088622 -0.9734442
vn 0.09120177 -0.2124513 -0.9729063
vn -0.9176695 -0.3973445 1.736848E-08
vn -0.9228797 -0.3850885 1.683275E-08
vn -0.9228797 -0.3850885 1.683275E-08
vn -0.9152871 -0.4027946 0.002434209
vn -0.9095803 -0.4154148 0.009714322
vn -0.9092144 -0.4161127 0.01338757
vn -0.2600353 0.360284 -0.8958666
vn -0.4504276 0.2677376 -0.8517228
vn -0.5450532 0.3618421 -0.7562984
vn -0.3577145 0.3606912 -0.8613607
vn -0.367227 0.1619669 -0.9159209
vn -0.30193 0.1375084 -0.9433609
vn -0.2636729 0.04755751 -0.963439
vn -0.1913535 0.03301432 -0.9809657
vn -0.7389634 -0.6736378 -0.01204569
vn -0.7389632 -0.6736381 -0.0120454
vn -0.7389585 -0.6736434 -0.01203858
vn -0.7389676 -0.6736332 -0.01205169
vn 0.2523293 -0.005269467 0.9676271
vn 0.1842556 0.05982473 0.981056
vn 0.2644016 -0.05979172 0.9625574
vn 0.1796093 0.0215106 0.9835028
vn 0.2628564 -0.123237 0.9569322
vn 0.1404634 0.1126935 0.9836515
vn 0.1295204 0.1585031 0.9788265
vn 0.8790109 -0.4768018 2.084167E-08
vn 0.8194431 -0.5731605 -0.0001447659
vn 0.830669 -0.5567665 2.433704E-08
vn 0.8790109 -0.4768018 2.084167E-08
vn 0.7650856 -0.6439285 -0.0003940363
vn 0.7651752 -0.6438218 -0.0006503896

vt 0.517838 0.788098
vt 0.50523 0.796706
vt 0.516509 0.80445
vt 0.51428 0.8182
vt 0.517838 0.788098
vt 0.527761 0.801547
vt 0.52481 0.787963
vt 0.516509 0.80445
vt 0.527667 0.814853
vt 0.51428 0.8182
vt 0.512296 0.841966
vt 0.527968 0.841085
vt 0.513177 0.857638
vt 0.527968 0.841085
vt 0.512296 0.841966
vt 0.528849 0.856757
vt 0.591679 0.842006
vt 0.576032 0.857005
vt 0.590699 0.857909
vt 0.577013 0.841101
vt 0.398733 0.852851
vt 0.409813 0.856205
vt 0.410389 0.843106
vt 0.409458 0.873163
vt 0.396118 0.867761
vt 0.393019 0.895156
vt 0.408629 0.898914
vt 0.396118 0.867761
vt 0.397833 0.837352
vt 0.398733 0.852851
vt 0.724276 0.918101
vt 0.731451 0.93231
vt 0.729692 0.918822
vt 0.721007 0.930334
vt 0.733212 0.950034
vt 0.721007 0.930334
vt 0.720289 0.951169
vt 0.721724 0.980099
vt 0.737104 0.978057
vt 0.721724 0.980099
vt 0.739212 0.993935
vt 0.737104 0.978057
vt 0.723832 0.995977
vt 0.459031 0.793339
vt 0.450033 0.770716
vt 0.446622 0.792437
vt 0.460418 0.813699
vt 0.445167 0.811796
vt 0.444911 0.832834
vt 0.459727 0.835474
vt 0.459031 0.793339
vt 0.459129 0.769831
vt 0.404684 0.915298
vt 0.393019 0.895156
vt 0.389075 0.91154
vt 0.408629 0.898914
vt 0.709413 0.928263
vt 0.720289 0.951169
vt 0.721007 0.930334
vt 0.706695 0.948956
vt 0.705859 0.977767
vt 0.721724 0.980099
vt 0.731451 0.93231
vt 0.746025 0.945325
vt 0.740964 0.928904
vt 0.729692 0.918822
vt 0.746025 0.945325
vt 0.733212 0.950034
vt 0.737104 0.978057
vt 0.752195 0.972712
vt 0.750449 0.922471
vt 0.746025 0.945325
vt 0.758733 0.941773
vt 0.740964 0.928904
vt 0.752195 0.972712
vt 0.767351 0.969264
vt 0.41779 0.851477
vt 0.433316 0.865096
vt 0.427808 0.846405
vt 0.421316 0.871872
vt 0.425176 0.895776
vt 0.425176 0.895776
vt 0.439995 0.889847
vt 0.398733 0.852851
vt 0.384671 0.865378
vt 0.396118 0.867761
vt 0.376998 0.889817
vt 0.393019 0.895156
vt 0.398733 0.852851
vt 0.389055 0.846572
vt 0.409813 0.856205
vt 0.421316 0.871872
vt 0.41779 0.851477
vt 0.421316 0.871872
vt 0.409458 0.873163
vt 0.425176 0.895776
vt 0.408629 0.898914
vt 0.603399 0.814195
vt 0.590723 0.800586
vt 0.590499 0.818554
vt 0.599827 0.7949
vt 0.607531 0.839766
vt 0.591679 0.842006
vt 0.566584 0.81493
vt 0.559023 0.791863
vt 0.552702 0.810231
vt 0.569754 0.79872
vt 0.547974 0.834585
vt 0.566584 0.81493
vt 0.561909 0.837125
vt 0.566584 0.81493
vt 0.578264 0.803712
vt 0.569754 0.79872
vt 0.578678 0.819731
vt 0.580407 0.788793
vt 0.575688 0.787175
vt 0.577013 0.841101
vt 0.566584 0.81493
vt 0.561909 0.837125
vt 0.590723 0.800586
vt 0.578678 0.819731
vt 0.590499 0.818554
vt 0.577013 0.841101
vt 0.591679 0.842006
vt 0.590723 0.800586
vt 0.578264 0.803712
vt 0.580407 0.788793
vt 0.593819 0.785915
vt 0.51428 0.8182
vt 0.50523 0.796706
vt 0.500964 0.815864
vt 0.512296 0.841966
vt 0.496656 0.841692
vt 0.541145 0.814336
vt 0.527761 0.801547
vt 0.527667 0.814853
vt 0.539753 0.795579
vt 0.527968 0.841085
vt 0.543603 0.842224
vt 0.490363 0.809663
vt 0.50523 0.796706
vt 0.496181 0.791494
vt 0.500964 0.815864
vt 0.481996 0.836268
vt 0.496656 0.841692
vt 0.443136 0.766975
vt 0.446622 0.792437
vt 0.450033 0.770716
vt 0.437196 0.786363
vt 0.43311 0.808484
vt 0.445167 0.811796
vt 0.427983 0.830728
vt 0.444911 0.832834
vt 0.439309 0.849222
vt 0.459727 0.835474
vt 0.444911 0.832834
vt 0.457278 0.852425
vt 0.459031 0.793339
vt 0.472831 0.810351
vt 0.46697 0.786975
vt 0.460418 0.813699
vt 0.459129 0.769831
vt 0.459727 0.835474
vt 0.476885 0.835013
vt 0.437196 0.786363
vt 0.416318 0.807205
vt 0.43311 0.808484
vt 0.423077 0.784551
vt 0.427983 0.830728
vt 0.410699 0.830157

usemtl MAT_Leaf_01
f 1/1/1 2/2/2 3/3/3
f 2/2/2 4/4/4 3/3/3
f 5/5/5 6/6/6 7/7/7
f 6/6/6 5/5/5 8/8/8
f 8/8/8 9/9/9 6/6/6
f 9/9/9 8/8/8 10/10/10
f 11/11/11 9/9/9 10/10/10
f 9/9/9 11/11/11 12/12/12
f 13/13/13 14/14/14 15/15/15
f 14/14/14 13/13/13 16/16/16
f 17/17/17 18/18/18 19/19/19
f 18/18/18 17/17/17 20/20/20
f 21/21/21 22/22/22 23/23/23
f 21/21/21 24/24/24 22/22/22
f 24/24/24 21/21/21 25/25/25
f 24/24/24 26/26/26 27/27/27
f 26/26/26 24/24/24 28/28/28
f 23/23/23 29/29/29 30/30/30
f 31/31/31 32/32/32 33/33/33
f 32/32/32 31/31/31 34/34/34
f 34/34/34 35/35/35 32/32/32
f 35/35/35 36/36/36 37/37/37
f 38/38/38 35/35/35 37/37/37
f 35/35/35 38/38/38 39/39/39
f 40/40/40 41/41/41 42/42/42
f 41/41/41 40/40/40 43/43/43
f 44/44/44 45/45/45 46/46/46
f 46/46/46 47/47/47 44/44/44
f 47/47/47 46/46/46 48/48/48
f 49/49/49 47/47/47 48/48/48
f 47/47/47 49/49/49 50/50/50
f 45/45/45 51/51/51 52/52/52
f 53/53/53 54/54/54 55/55/55
f 54/54/54 53/53/53 56/56/56
f 57/57/57 58/58/58 59/59/59
f 58/58/58 57/57/57 60/60/60
f 61/61/61 58/58/58 60/60/60
f 58/58/58 61/61/61 62/62/62
f 63/63/63 64/64/64 65/65/65
f 65/65/65 66/66/66 63/63/63
f 67/67/67 63/63/63 68/68/68
f 69/69/69 67/67/67 68/68/68
f 67/67/67 69/69/69 70/70/70
f 71/71/71 72/72/72 73/73/73
f 72/72/72 71/71/71 74/74/74
f 75/75/75 73/73/73 72/72/72
f 73/73/73 75/75/75 76/76/76
f 77/77/77 78/78/78 79/79/79
f 78/78/78 77/77/77 80/80/80
f 81/81/81 78/78/78 80/80/80
f 78/78/78 82/82/82 83/83/83
f 84/84/84 85/85/85 86/86/86
f 87/87/87 86/86/86 85/85/85
f 86/86/86 87/87/87 88/88/88
f 85/85/85 89/89/89 90/90/90
f 91/91/91 92/92/92 93/93/93
f 94/94/94 91/91/91 95/95/95
f 95/95/95 96/96/96 94/94/94
f 96/96/96 95/95/95 97/97/97
f 98/98/98 99/99/99 100/100/100
f 99/99/99 98/98/98 101/101/101
f 100/100/100 102/102/102 98/98/98
f 102/102/102 100/100/100 103/103/103
f 104/104/104 105/105/105 106/106/106
f 105/105/105 104/104/104 107/107/107
f 108/108/108 109/109/109 106/106/106
f 104/104/104 108/108/108 110/110/110
f 111/111/111 112/112/112 113/113/113
f 112/112/112 111/111/111 114/114/114
f 115/115/115 113/113/113 112/112/112
f 113/113/113 115/115/115 116/116/116
f 111/111/111 117/117/117 114/114/114
f 117/117/117 118/118/118 119/119/119
f 120/120/120 121/121/121 122/122/122
f 123/123/123 122/122/122 121/121/121
f 122/122/122 123/123/123 124/124/124
f 121/121/121 125/125/125 126/126/126
f 120/120/120 127/127/127 126/126/126
f 128/128/128 127/127/127 120/120/120
f 129/129/129 130/130/130 131/131/131
f 131/131/131 132/132/132 129/129/129
f 132/132/132 131/131/131 133/133/133
f 134/134/134 135/135/135 136/136/136
f 135/135/135 134/134/134 137/137/137
f 138/138/138 134/134/134 136/136/136
f 134/134/134 138/138/138 139/139/139
f 140/140/140 141/141/141 142/142/142
f 141/141/141 140/140/140 143/143/143
f 144/144/144 143/143/143 140/140/140
f 143/143/143 144/144/144 145/145/145
f 146/146/146 147/147/147 148/148/148
f 147/147/147 146/146/146 149/149/149
f 150/150/150 147/147/147 149/149/149
f 147/147/147 150/150/150 151/151/151
f 152/152/152 151/151/151 150/150/150
f 151/151/151 152/152/152 153/153/153
f 154/154/154 155/155/155 156/156/156
f 155/155/155 154/154/154 157/157/157
f 158/158/158 159/159/159 160/160/160
f 159/159/159 158/158/158 161/161/161
f 160/160/160 162/162/162 158/158/158
f 163/163/163 159/159/159 161/161/161
f 159/159/159 163/163/163 164/164/164
f 165/165/165 166/166/166 167/167/167
f 166/166/166 165/165/165 168/168/168
f 166/166/166 169/169/169 167/167/167
f 169/169/169 166/166/166 170/170/170
