#FOL_Grass_02.obj
#Friday, January 12, 2018
#3:42:14 PM
#-------

mtllib FOL_Grass_02.mtl
#FOL_Grass_02
#-------
g FOL_Grass_02
v -0.3181519 -0.07216934 0.008500307
v -0.1759033 0.1514226 0.1249432
v -0.1283081 -0.03946976 0.02735124
v -0.3810791 0.1172758 0.1088598
v -0.211615 0.3004227 0.1610599
v -0.404657 0.2681665 0.1486035
v -0.3002014 0.4604985 0.1927864
v -0.3771973 0.4474572 0.1883025
v -0.4032898 0.3898764 0.16685
v -0.3181519 -0.02816717 -0.06782813
v -0.1759033 0.1889642 0.04523879
v -0.3810791 0.1548184 0.02915519
v -0.1283081 0.004532412 -0.04897718
v -0.211615 0.324401 0.09896709
v -0.404657 0.2921444 0.08651139
v -0.3771973 0.46153 0.1473735
v -0.4032898 0.4029321 0.1288805
v -0.3002014 0.4745707 0.151857
v -0.2544128 0.4276984 0.1388678
v -0.3810791 0.1172758 0.1088598
v -0.3181519 -0.02816717 -0.06782813
v -0.3810791 0.1548184 0.02915519
v -0.404657 0.2681665 0.1486035
v -0.404657 0.2921444 0.08651139
v -0.4032898 0.3898764 0.16685
v -0.3181519 -0.02816717 -0.06782813
v -0.3181519 -0.07216934 0.008500307
v -0.404657 0.2921444 0.08651139
v -0.4032898 0.4029321 0.1288805
v -0.3771973 0.4474572 0.1883025
v -0.3771973 0.46153 0.1473735
v -0.3771973 0.46153 0.1473735
v -0.3002014 0.4604985 0.1927864
v -0.3771973 0.4474572 0.1883025
v -0.3002014 0.4745707 0.151857
v -0.1759033 0.1514226 0.1249432
v -0.1283081 0.004532412 -0.04897718
v -0.1283081 -0.03946976 0.02735124
v -0.1283081 0.004532412 -0.04897718
v -0.1759033 0.1889642 0.04523879
v -0.211615 0.3004227 0.1610599
v -0.211615 0.324401 0.09896709
v -0.2544128 0.4276984 0.1388678
v -0.2544128 0.4155487 0.1742048
v -0.211615 0.324401 0.09896709
v -0.3002014 0.4604985 0.1927864
v -0.3002014 0.4745707 0.151857
v -0.2544128 0.4155487 0.1742048
v -0.211615 0.3004227 0.1610599
v -0.3002014 0.4604985 0.1927864
v 0.1198059 0.1724671 0.1709179
v -0.1292603 -0.04556621 0.03444533
v -0.1391968 0.1724671 0.1709179
v 0.1103882 -0.04556621 0.03444533
v 0.1089416 0.3268076 0.2673526
v -0.1283325 0.3268076 0.2673526
v 0.0416687 0.4941909 0.393658
v 0.0963562 0.4416972 0.3509326
v -0.06105957 0.4941909 0.393658
v -0.115741 0.4407046 0.3522933
v 0.1198059 0.2291526 0.080643
v -0.1292603 0.007731959 -0.05786979
v 0.1103882 0.007731959 -0.05786979
v -0.1391968 0.2291526 0.080643
v -0.1283325 0.3726884 0.2011677
v 0.1089416 0.3726884 0.2011677
v -0.06105957 0.525054 0.3513543
v -0.115741 0.4693366 0.3130482
v 0.0416687 0.525054 0.3513543
v 0.0963562 0.4683433 0.3144084
v -0.1292603 -0.04556621 0.03444533
v -0.1391968 0.2291526 0.080643
v -0.1391968 0.1724671 0.1709179
v -0.1292603 0.007731959 -0.05786979
v -0.1283325 0.3268076 0.2673526
v -0.1283325 0.3726884 0.2011677
v -0.115741 0.4693366 0.3130482
v -0.115741 0.4407046 0.3522933
v 0.0416687 0.525054 0.3513543
v -0.06105957 0.4941909 0.393658
v -0.06105957 0.525054 0.3513543
v 0.0416687 0.4941909 0.393658
v 0.1198059 0.2291526 0.080643
v 0.1103882 -0.04556621 0.03444533
v 0.1198059 0.1724671 0.1709179
v 0.1103882 0.007731959 -0.05786979
v 0.1089416 0.3268076 0.2673526
v 0.1089416 0.3726884 0.2011677
v 0.0963562 0.4416972 0.3509326
v 0.0963562 0.4683433 0.3144084
v -0.115741 0.4407046 0.3522933
v -0.06105957 0.525054 0.3513543
v -0.06105957 0.4941909 0.393658
v -0.115741 0.4693366 0.3130482
v 0.0416687 0.4941909 0.393658
v 0.0963562 0.4683433 0.3144084
v 0.0963562 0.4416972 0.3509326
v 0.0416687 0.525054 0.3513543
v 0.1562622 0.1423843 0.1584249
v 0.3057068 -0.0763662 0.01060894
v 0.1076599 -0.04224408 0.03032698
v 0.3703003 0.1093063 0.1370006
v 0.404657 0.239837 0.2334565
v 0.1939636 0.2692501 0.2543972
v 0.3733765 0.3977887 0.3498359
v 0.4021912 0.3462692 0.3073259
v 0.2890747 0.409362 0.3584814
v 0.2396973 0.3676687 0.3252063
v 0.1076599 0.005805292 -0.05282067
v 0.3703003 0.1615125 0.05639736
v 0.1562622 0.1945899 0.07782124
v 0.3057068 -0.0283168 -0.07253875
v 0.1939636 0.3113287 0.1952937
v 0.404657 0.2819156 0.174353
v 0.2890747 0.4375958 0.3206874
v 0.2396973 0.3938617 0.2901446
v 0.3733765 0.4260226 0.3120418
v 0.1076599 -0.04224408 0.03032698
v 0.1562622 0.1945899 0.07782124
v 0.1562622 0.1423843 0.1584249
v 0.1076599 0.005805292 -0.05282067
v 0.1939636 0.3113287 0.1952937
v 0.1939636 0.2692501 0.2543972
v 0.2396973 0.3938617 0.2901446
v 0.2396973 0.3676687 0.3252063
v 0.2890747 0.4375958 0.3206874
v 0.2396973 0.3676687 0.3252063
v 0.2890747 0.409362 0.3584814
v 0.3733765 0.3977887 0.3498359
v 0.2890747 0.4375958 0.3206874
v 0.3733765 0.4260226 0.3120418
v 0.2890747 0.409362 0.3584814
v 0.3703003 0.1093063 0.1370006
v 0.3057068 -0.0283168 -0.07253875
v 0.3057068 -0.0763662 0.01060894
v 0.3703003 0.1615125 0.05639736
v 0.404657 0.2819156 0.174353
v 0.404657 0.239837 0.2334565
v 0.4021912 0.3706455 0.2746951
v 0.4021912 0.3462692 0.3073259
v 0.404657 0.2819156 0.174353
v 0.3733765 0.4260226 0.3120418
v 0.3733765 0.3977887 0.3498359
v 0.3733765 0.4260226 0.3120418
v 0.404657 0.2819156 0.174353
v 0.4021912 0.3706455 0.2746951

vn 0.001023821 0.4613865 -0.8871986
vn 0.01730799 0.3582461 -0.9334667
vn 0.009583733 0.4570749 -0.8893765
vn 0.00953265 0.3584756 -0.9334903
vn 0.0285197 0.2319127 -0.9723185
vn 0.04424873 0.2324049 -0.971612
vn 0.02459486 0.2111157 -0.9771516
vn 0.07744198 0.2042159 -0.9758579
vn 0.4462547 0.1277747 -0.8857372
vn -0.0008519658 -0.4614234 0.8871797
vn -0.005377357 -0.4185365 0.9081841
vn 0.003054243 -0.4218056 0.9066811
vn -0.009629264 -0.4568714 0.8894807
vn -0.0118772 -0.3620732 0.932074
vn 0.007499466 -0.3638706 0.9314193
vn 0.0152727 -0.3374784 0.9412094
vn 0.1426435 -0.3550868 0.9238865
vn -0.01933401 -0.3422644 0.9394047
vn -0.1731693 -0.4164916 0.8924949
vn 0.9746036 0.2012733 0.09816838
vn 0.9588756 0.2486879 0.136792
vn 0.9749141 0.2019681 0.09354909
vn 0.9967067 0.07491393 0.0310442
vn 0.9972993 0.06849828 0.02649887
vn 0.9806193 -0.1852531 -0.06377231
vn 0.9588756 0.2486879 0.136792
vn 0.9594711 0.2441434 0.1407449
vn 0.9972993 0.06849828 0.02649887
vn 0.9788674 -0.1933834 -0.06649327
vn 0.920406 -0.3697193 -0.1271236
vn 0.9204057 -0.3697205 -0.1271224
vn 0.1763002 -0.9308515 -0.3200526
vn 0.176297 -0.9308541 -0.3200471
vn 0.1763032 -0.9308492 -0.3200575
vn 0.176294 -0.9308563 -0.320042
vn -0.9740161 -0.2038594 -0.0986611
vn -0.9758243 -0.1915249 -0.1052864
vn -0.9761747 -0.187986 -0.1083711
vn -0.9758243 -0.1915249 -0.1052864
vn -0.973533 -0.2076845 -0.09539682
vn -0.956863 -0.2703656 -0.1063748
vn -0.9540263 -0.2795993 -0.1079724
vn -0.8469521 -0.5020686 -0.1749264
vn -0.8527974 -0.4938657 -0.1698041
vn -0.9540263 -0.2795993 -0.1079724
vn -0.7274855 -0.6488437 -0.2230845
vn -0.7274845 -0.6488456 -0.2230826
vn -0.4192154 -0.05235427 -0.906376
vn -0.4192154 -0.05235427 -0.9063759
vn -0.4192154 -0.05235427 -0.9063759
vn 0 0.5302279 -0.8478552
vn 0 0.5305629 -0.8476456
vn 0 0.5302277 -0.8478553
vn 0 0.5305629 -0.8476456
vn -0.00538048 0.5635051 -0.8260952
vn 0.001735602 0.5644769 -0.825447
vn -0.0123669 0.5991233 -0.8005613
vn -0.07512365 0.581225 -0.8102677
vn 0.003991481 0.6013137 -0.7990031
vn 0.0242997 0.5959221 -0.8026746
vn 0 -0.5877207 0.8090639
vn 0 -0.5303428 0.8477833
vn 0 -0.5303428 0.8477833
vn 0 -0.5877572 0.8090374
vn 0.02467305 -0.6772141 0.7353722
vn -0.02808084 -0.6779413 0.7345795
vn 0.05903059 -0.71387 0.6977857
vn 0.329086 -0.7325985 0.5958202
vn -0.06730215 -0.7153184 0.69555
vn -0.3680852 -0.730063 0.575779
vn 0.9992711 0.03288295 0.01938879
vn 0.9999666 -0.006629814 -0.004786333
vn 0.9999454 -0.008850113 -0.005557162
vn 0.9992762 0.03294501 0.01902082
vn 0.997324 -0.06021323 -0.04146437
vn 0.9974641 -0.05849236 -0.04054807
vn 0.9961141 -0.07152535 -0.05138782
vn 0.9960957 -0.0713175 -0.05203104
vn 0 -0.8078567 -0.5893791
vn 0 -0.8078567 -0.5893791
vn 0 -0.8078567 -0.5893791
vn 0 -0.8078567 -0.5893791
vn -0.9999574 -0.007523058 -0.005335844
vn -0.9993451 0.03116839 0.01837786
vn -0.9999343 -0.009703899 -0.006093272
vn -0.9993497 0.0312272 0.01802904
vn -0.997309 -0.06050538 -0.04140004
vn -0.9974559 -0.05847804 -0.04076936
vn -0.9961697 -0.07104344 -0.05097737
vn -0.9962034 -0.07032984 -0.05130901
vn 0.7774314 -0.5081142 -0.3707027
vn 0.7774318 -0.5081145 -0.3707012
vn 0.7774322 -0.5081148 -0.3706998
vn 0.7774308 -0.508114 -0.3707042
vn -0.7773992 -0.5081487 -0.3707228
vn -0.7773986 -0.5081502 -0.3707219
vn -0.7773982 -0.5081516 -0.3707211
vn -0.7773997 -0.5081474 -0.3707235
vn 0.008378617 0.5808946 -0.8139357
vn 0.01010179 0.5645877 -0.8253114
vn 0.0157363 0.5671765 -0.823446
vn 0.007604767 0.5778098 -0.816136
vn -0.003977631 0.593869 -0.8045519
vn 0.007560986 0.596984 -0.8022177
vn -0.02223536 0.5915952 -0.8059285
vn -0.1974158 0.5558659 -0.80749
vn 0.01013175 0.5918565 -0.8059798
vn 0.09044984 0.5535906 -0.8278624
vn -0.009781794 -0.5631105 0.8263237
vn -0.02046087 -0.6363071 0.7711644
vn -0.02117222 -0.6364102 0.7710602
vn -0.01367969 -0.5586275 0.8293059
vn -0.008047017 -0.7058463 0.7083194
vn -0.02515481 -0.6951064 0.7184666
vn 0.03157863 -0.7148213 0.6985937
vn 0.3862082 -0.7799578 0.492452
vn -0.02125233 -0.6930745 0.7205526
vn 0.9779958 -0.1793184 -0.106627
vn 0.9759388 -0.1837792 -0.1173396
vn 0.9755166 -0.1838557 -0.120683
vn 0.978178 -0.1798914 -0.1039557
vn 0.9591577 -0.231483 -0.1625797
vn 0.9564129 -0.237398 -0.1700482
vn 0.8560671 -0.4148624 -0.3082828
vn 0.8502601 -0.4216864 -0.315021
vn 0.7336901 -0.544358 -0.4066612
vn 0.8502601 -0.4216864 -0.315021
vn 0.7336906 -0.5443581 -0.4066598
vn -0.1688987 -0.7896255 -0.5898855
vn -0.1688987 -0.7896255 -0.5898855
vn -0.1688987 -0.7896255 -0.5898855
vn -0.1688987 -0.7896255 -0.5898855
vn -0.9713358 0.199783 0.1288164
vn -0.9613069 0.236757 0.1408373
vn -0.9608484 0.2398986 0.1386326
vn -0.9707888 0.2013847 0.1304356
vn -0.9941295 0.08906876 0.06142676
vn -0.9955231 0.07702296 0.05478411
vn -0.979261 -0.1623554 -0.121197
vn -0.9771999 -0.1700987 -0.12707
vn -0.9941295 0.08906876 0.06142676
vn -0.9180342 -0.3176517 -0.2372988
vn -0.9180339 -0.3176515 -0.2372999
vn -0.5183374 -0.6469138 0.559311
vn -0.5183375 -0.6469138 0.559311
vn -0.5183374 -0.6469138 0.559311

vt 0.618561 0.865963
vt 0.638135 0.88926
vt 0.639011 0.86605
vt 0.616893 0.888616
vt 0.635859 0.906113
vt 0.615348 0.903963
vt 0.627136 0.924226
vt 0.618339 0.923213
vt 0.613895 0.916872
vt 0.608628 0.866236
vt 0.587786 0.887543
vt 0.609077 0.888466
vt 0.588283 0.865157
vt 0.588696 0.903497
vt 0.608844 0.903566
vt 0.603354 0.921226
vt 0.60789 0.915663
vt 0.595321 0.921329
vt 0.591305 0.915826
vt 0.616893 0.888616
vt 0.608628 0.866236
vt 0.609077 0.888466
vt 0.615348 0.903963
vt 0.608844 0.903566
vt 0.613895 0.916872
vt 0.608628 0.866236
vt 0.618561 0.865963
vt 0.608844 0.903566
vt 0.60789 0.915663
vt 0.605265 0.925634
vt 0.603354 0.921226
vt 0.603354 0.921226
vt 0.59383 0.925423
vt 0.605265 0.925634
vt 0.595321 0.921329
vt 0.578413 0.887615
vt 0.588283 0.865157
vt 0.579016 0.86446
vt 0.588283 0.865157
vt 0.587786 0.887543
vt 0.581639 0.904332
vt 0.588696 0.903497
vt 0.591305 0.915826
vt 0.587461 0.917414
vt 0.588696 0.903497
vt 0.59383 0.925423
vt 0.595321 0.921329
vt 0.632073 0.91894
vt 0.635859 0.906113
vt 0.627136 0.924226
vt 0.635236 0.955833
vt 0.613666 0.931126
vt 0.612021 0.954106
vt 0.635609 0.932276
vt 0.632622 0.972719
vt 0.610685 0.970295
vt 0.624011 0.991717
vt 0.6299 0.985952
vt 0.614162 0.990701
vt 0.609149 0.983923
vt 0.58085 0.953574
vt 0.603386 0.930449
vt 0.581749 0.930165
vt 0.603458 0.953475
vt 0.603281 0.969507
vt 0.582221 0.970334
vt 0.598471 0.988646
vt 0.603765 0.982587
vt 0.589349 0.989131
vt 0.583779 0.983789
vt 0.613666 0.931126
vt 0.603458 0.953475
vt 0.612021 0.954106
vt 0.603386 0.930449
vt 0.610685 0.970295
vt 0.603281 0.969507
vt 0.603765 0.982587
vt 0.609149 0.983923
vt 0.589349 0.989131
vt 0.600491 0.993159
vt 0.598471 0.988646
vt 0.588108 0.993691
vt 0.58085 0.953574
vt 0.571841 0.930194
vt 0.571058 0.954106
vt 0.581749 0.930165
vt 0.574738 0.97209
vt 0.582221 0.970334
vt 0.579973 0.986111
vt 0.583779 0.983789
vt 0.609149 0.983923
vt 0.598471 0.988646
vt 0.600491 0.993159
vt 0.603765 0.982587
vt 0.588108 0.993691
vt 0.583779 0.983789
vt 0.579973 0.986111
vt 0.589349 0.989131
vt 0.551267 0.882613
vt 0.572168 0.860279
vt 0.551429 0.859505
vt 0.573235 0.884242
vt 0.572129 0.901582
vt 0.550366 0.89878
vt 0.562755 0.92013
vt 0.567787 0.914422
vt 0.553636 0.918931
vt 0.549669 0.912139
vt 0.541251 0.85903
vt 0.521694 0.884112
vt 0.542413 0.881977
vt 0.52133 0.860744
vt 0.543583 0.898009
vt 0.52315 0.900705
vt 0.54023 0.917096
vt 0.544104 0.910992
vt 0.532016 0.918258
vt 0.551429 0.859505
vt 0.542413 0.881977
vt 0.551267 0.882613
vt 0.541251 0.85903
vt 0.543583 0.898009
vt 0.550366 0.89878
vt 0.544104 0.910992
vt 0.549669 0.912139
vt 0.54023 0.917096
vt 0.549669 0.912139
vt 0.542531 0.921289
vt 0.531152 0.922705
vt 0.54023 0.917096
vt 0.532016 0.918258
vt 0.542531 0.921289
vt 0.512368 0.885324
vt 0.52133 0.860744
vt 0.511673 0.861715
vt 0.521694 0.884112
vt 0.52315 0.900705
vt 0.516107 0.903059
vt 0.526906 0.913418
vt 0.523291 0.916053
vt 0.52315 0.900705
vt 0.532016 0.918258
vt 0.531152 0.922705
vt 0.532016 0.918258
vt 0.52315 0.900705
vt 0.526906 0.913418

usemtl MAT_Leaf_01
f 1/1/1 2/2/2 3/3/3
f 2/2/2 1/1/1 4/4/4
f 4/4/4 5/5/5 2/2/2
f 5/5/5 4/4/4 6/6/6
f 6/6/6 7/7/7 5/5/5
f 7/7/7 6/6/6 8/8/8
f 8/8/8 6/6/6 9/9/9
f 10/10/10 11/11/11 12/12/12
f 11/11/11 10/10/10 13/13/13
f 14/14/14 12/12/12 11/11/11
f 12/12/12 14/14/14 15/15/15
f 14/14/14 16/16/16 15/15/15
f 17/17/17 15/15/15 16/16/16
f 16/16/16 14/14/14 18/18/18
f 18/18/18 14/14/14 19/19/19
f 20/20/20 21/21/21 22/22/22
f 22/22/22 23/23/23 20/20/20
f 23/23/23 22/22/22 24/24/24
f 24/24/24 25/25/25 23/23/23
f 26/26/26 20/20/20 27/27/27
f 25/25/25 28/28/28 29/29/29
f 29/29/29 30/30/30 25/25/25
f 30/30/30 29/29/29 31/31/31
f 32/32/32 33/33/33 34/34/34
f 33/33/33 32/32/32 35/35/35
f 36/36/36 37/37/37 38/38/38
f 39/39/39 36/36/36 40/40/40
f 41/41/41 40/40/40 36/36/36
f 40/40/40 41/41/41 42/42/42
f 43/43/43 41/41/41 44/44/44
f 41/41/41 43/43/43 45/45/45
f 46/46/46 43/43/43 44/44/44
f 43/43/43 46/46/46 47/47/47
f 48/48/48 49/49/49 50/50/50
f 51/51/51 52/52/52 53/53/53
f 52/52/52 51/51/51 54/54/54
f 53/53/53 55/55/55 51/51/51
f 55/55/55 53/53/53 56/56/56
f 56/56/56 57/57/57 55/55/55
f 58/58/58 55/55/55 57/57/57
f 57/57/57 56/56/56 59/59/59
f 59/59/59 56/56/56 60/60/60
f 61/61/61 62/62/62 63/63/63
f 62/62/62 61/61/61 64/64/64
f 61/61/61 65/65/65 64/64/64
f 65/65/65 61/61/61 66/66/66
f 66/66/66 67/67/67 65/65/65
f 68/68/68 65/65/65 67/67/67
f 67/67/67 66/66/66 69/69/69
f 69/69/69 66/66/66 70/70/70
f 71/71/71 72/72/72 73/73/73
f 72/72/72 71/71/71 74/74/74
f 72/72/72 75/75/75 73/73/73
f 75/75/75 72/72/72 76/76/76
f 77/77/77 75/75/75 76/76/76
f 75/75/75 77/77/77 78/78/78
f 79/79/79 80/80/80 81/81/81
f 80/80/80 79/79/79 82/82/82
f 83/83/83 84/84/84 85/85/85
f 84/84/84 83/83/83 86/86/86
f 87/87/87 83/83/83 85/85/85
f 83/83/83 87/87/87 88/88/88
f 89/89/89 88/88/88 87/87/87
f 88/88/88 89/89/89 90/90/90
f 91/91/91 92/92/92 93/93/93
f 92/92/92 91/91/91 94/94/94
f 95/95/95 96/96/96 97/97/97
f 96/96/96 95/95/95 98/98/98
f 99/99/99 100/100/100 101/101/101
f 100/100/100 99/99/99 102/102/102
f 99/99/99 103/103/103 102/102/102
f 103/103/103 99/99/99 104/104/104
f 104/104/104 105/105/105 103/103/103
f 106/106/106 103/103/103 105/105/105
f 105/105/105 104/104/104 107/107/107
f 107/107/107 104/104/104 108/108/108
f 109/109/109 110/110/110 111/111/111
f 110/110/110 109/109/109 112/112/112
f 110/110/110 113/113/113 111/111/111
f 113/113/113 110/110/110 114/114/114
f 114/114/114 115/115/115 113/113/113
f 116/116/116 113/113/113 115/115/115
f 115/115/115 114/114/114 117/117/117
f 118/118/118 119/119/119 120/120/120
f 119/119/119 118/118/118 121/121/121
f 122/122/122 120/120/120 119/119/119
f 120/120/120 122/122/122 123/123/123
f 124/124/124 123/123/123 122/122/122
f 123/123/123 124/124/124 125/125/125
f 126/126/126 127/127/127 124/124/124
f 127/127/127 126/126/126 128/128/128
f 129/129/129 130/130/130 131/131/131
f 130/130/130 129/129/129 132/132/132
f 133/133/133 134/134/134 135/135/135
f 134/134/134 133/133/133 136/136/136
f 133/133/133 137/137/137 136/136/136
f 137/137/137 133/133/133 138/138/138
f 139/139/139 138/138/138 140/140/140
f 138/138/138 139/139/139 141/141/141
f 140/140/140 142/142/142 139/139/139
f 142/142/142 140/140/140 143/143/143
f 144/144/144 145/145/145 146/146/146
