#OBJ_SmallRock_03.obj
#Friday, January 12, 2018
#3:42:40 PM
#-------

mtllib OBJ_SmallRock_03.mtl
#OBJ_SmallRock_03
#-------
g OBJ_SmallRock_03
v -0.1590814 0.1677853 0.4709887
v -0.1590814 0.2806822 0.3580918
v -0.04618439 0.2806822 0.4709887
v 0.3521585 0.2806821 -0.0216759
v 0.4022906 0.1677853 -0.09038325
v 0.4022906 0.2806821 0.02251364
v 0.3481454 0.2223619 -0.08353338
v 0.2801147 0.2806821 -0.04382898
v 0.2771719 0.2519945 -0.0745545
v -0.1590814 0.2806821 -0.0193642
v 0.4022906 -0.2806898 0.389322
v 0.3206241 -0.2806898 0.4709887
v 0.4022906 -0.1990231 0.4709887
v -0.1016412 -0.220468 0.4709887
v -0.1590814 -0.2806898 0.3533268
v -0.1590814 -0.220468 0.4135486
v -0.04141968 -0.2806898 0.4709887
v -0.1590814 -0.08179541 0.4709887
v 0.4022906 0.2806821 0.02251364
v 0.4022906 0.2806822 0.4709887
v 0.3521585 0.2806821 -0.0216759
v 0.2801147 0.2806821 -0.04382898
v -0.1590814 0.2806821 -0.0193642
v -0.1590814 0.2806822 0.3580918
v -0.04618439 0.2806822 0.4709887
v -0.1590814 -0.2806898 0.3533268
v -0.1590814 -0.2806898 -0.01936417
v -0.1590814 -0.220468 0.4135486
v -0.1590814 -0.08179541 0.4709887
v -0.1590814 0.1677853 0.4709887
v -0.1590814 0.2806822 0.3580918
v -0.1590814 0.2806821 -0.0193642
v -0.04618439 0.2806822 0.4709887
v 0.4022906 0.2806822 0.4709887
v -0.1590814 0.1677853 0.4709887
v -0.1590814 -0.08179541 0.4709887
v -0.1016412 -0.220468 0.4709887
v -0.04141968 -0.2806898 0.4709887
v 0.3206241 -0.2806898 0.4709887
v 0.4022906 -0.1990231 0.4709887
v 0.4022906 -0.2806898 -0.09038323
v 0.4022906 0.2806822 0.4709887
v 0.4022906 0.1677853 -0.09038325
v 0.4022906 0.2806821 0.02251364
v 0.4022906 -0.2806898 0.389322
v 0.4022906 -0.1990231 0.4709887
v -0.1590814 0.2806821 -0.0193642
v -0.1590814 -0.2806898 -0.01936417
v 0.2771719 0.2519945 -0.0745545
v 0.3481454 0.2223619 -0.08353338
v 0.4022906 0.1677853 -0.09038325
v 0.4022906 -0.2806898 -0.09038323
v 0.4022906 -0.2806898 0.389322
v 0.4022906 -0.2806898 -0.09038323
v 0.3206241 -0.2806898 0.4709887
v -0.04141968 -0.2806898 0.4709887
v -0.1590814 -0.2806898 0.3533268
v -0.1590814 -0.2806898 -0.01936417
v 0.0196283 0.1006373 -0.3590927
v 0.07260925 0.04172993 -0.4709811
v 0.1315167 0.1006373 -0.4709811
v 0.0196283 0.04172995 -0.418
v 0.0488913 -0.01553055 -0.4709811
v 0.0196283 -0.01553055 -0.4417181
v 0.0196283 -0.2806898 -0.4709811
v 0.06576355 0.1006373 -0.09025163
v 0.0196283 0.02180277 -0.04977781
v 0.0196283 0.05821086 -0.08618592
v 0.09713928 0.1006373 -0.06416322
v 0.0196283 0.1006373 -0.3590927
v 0.06576355 0.1006373 -0.09025163
v 0.0196283 0.05821086 -0.08618592
v 0.4022906 -0.232678 -0.4177898
v 0.3010876 -0.2806898 -0.4709811
v 0.4022906 -0.2806898 -0.3697779
v 0.3490995 -0.2326781 -0.4709811
v 0.4022906 -0.1042628 -0.4709811
v 0.36393 0.1006373 -0.1921944
v 0.3605765 0.02553102 -0.1130551
v 0.2867312 0.1006373 -0.09934995
v 0.4022906 0.1006373 -0.2983295
v 0.4022906 -0.07689536 -0.1207969
v 0.4022906 -0.2806898 -0.1207969
v 0.4022906 -0.2806898 -0.3697779
v 0.4022906 -0.232678 -0.4177898
v 0.4022906 -0.1042628 -0.4709811
v 0.4022906 0.1006373 -0.4709811
v 0.1315167 0.1006373 -0.4709811
v 0.4022906 0.1006373 -0.4709811
v 0.0196283 0.1006373 -0.3590927
v 0.4022906 0.1006373 -0.2983295
v 0.36393 0.1006373 -0.1921944
v 0.2867312 0.1006373 -0.09934995
v 0.09713928 0.1006373 -0.06416322
v 0.06576355 0.1006373 -0.09025163
v 0.0488913 -0.01553055 -0.4709811
v 0.4022906 0.1006373 -0.4709811
v 0.07260925 0.04172993 -0.4709811
v 0.1315167 0.1006373 -0.4709811
v 0.3010876 -0.2806898 -0.4709811
v 0.3490995 -0.2326781 -0.4709811
v 0.4022906 -0.1042628 -0.4709811
v 0.0196283 -0.2806898 -0.4709811
v 0.0196283 0.02180277 -0.04977781
v 0.0196283 -0.01553055 -0.4417181
v 0.0196283 0.04172995 -0.418
v 0.0196283 -0.2806898 -0.4709811
v 0.0196283 -0.2806898 -0.0497778
v 0.0196283 0.1006373 -0.3590927
v 0.0196283 0.05821086 -0.08618592
v 0.09713928 0.1006373 -0.06416322
v 0.0196283 -0.2806898 -0.0497778
v 0.0196283 0.02180277 -0.04977781
v 0.2867312 0.1006373 -0.09934995
v 0.3605765 0.02553102 -0.1130551
v 0.4022906 -0.07689536 -0.1207969
v 0.4022906 -0.2806898 -0.1207969
v 0.0196283 -0.2806898 -0.4709811
v 0.0196283 -0.2806898 -0.0497778
v 0.3010876 -0.2806898 -0.4709811
v 0.4022906 -0.2806898 -0.3697779
v 0.4022906 -0.2806898 -0.1207969
v -0.0196283 -0.2806898 -0.0497778
v -0.4022906 -0.2806898 -0.326416
v -0.4022906 -0.2806898 -0.1207969
v -0.0196283 -0.2806898 -0.3654765
v -0.2232208 -0.06224362 -0.3446946
v -0.3329919 -0.06224362 -0.2833228
v -0.3251178 -0.10467 -0.3342934
v -0.4022906 -0.1310304 -0.2752028
v -0.3600836 -0.1398173 -0.3307243
v -0.4022906 -0.2806898 -0.326416
v -0.0196283 -0.06224361 -0.1097778
v -0.0196283 -0.1222436 -0.04977781
v -0.07862091 -0.06224361 -0.06072635
v -0.4022906 -0.1650271 -0.1207969
v -0.4022906 -0.1222436 -0.1635804
v -0.3725461 -0.09199107 -0.1152765
v -0.4022906 -0.2806898 -0.1207969
v -0.4022906 -0.1310304 -0.2752028
v -0.4022906 -0.2806898 -0.326416
v -0.2232208 -0.06224362 -0.3446946
v -0.07862091 -0.06224361 -0.06072635
v -0.3329919 -0.06224362 -0.2833228
v -0.343298 -0.06224361 -0.1098483
v -0.0196283 -0.06224362 -0.3654765
v -0.0196283 -0.06224361 -0.1097778
v -0.4022906 -0.2806898 -0.326416
v -0.0196283 -0.2806898 -0.3654765
v -0.3600836 -0.1398173 -0.3307243
v -0.3251178 -0.10467 -0.3342934
v -0.2232208 -0.06224362 -0.3446946
v -0.0196283 -0.06224362 -0.3654765
v -0.4022906 -0.1310304 -0.2752028
v -0.3329919 -0.06224362 -0.2833228
v -0.4022906 -0.1222436 -0.1635804
v -0.3725461 -0.09199107 -0.1152765
v -0.343298 -0.06224361 -0.1098483
v -0.0196283 -0.06224362 -0.3654765
v -0.0196283 -0.2806898 -0.3654765
v -0.0196283 -0.06224361 -0.1097778
v -0.0196283 -0.1222436 -0.04977781
v -0.0196283 -0.2806898 -0.0497778
v -0.343298 -0.06224361 -0.1098483
v -0.0196283 -0.2806898 -0.0497778
v -0.3725461 -0.09199107 -0.1152765
v -0.4022906 -0.1650271 -0.1207969
v -0.4022906 -0.2806898 -0.1207969
v -0.07862091 -0.06224361 -0.06072635
v -0.0196283 -0.1222436 -0.04977781

vn 0.5773498 -0.5773506 -0.5773504
vn 0.5773498 -0.5773506 -0.5773504
vn 0.5773498 -0.5773506 -0.5773505
vn -0.4122312 -0.6494055 0.6390133
vn -0.5289525 -0.6000869 0.6000874
vn -0.5289534 -0.6000869 0.6000868
vn -0.4149413 -0.6484195 0.63826
vn -0.09744195 -0.72278 0.6841741
vn -0.09894907 -0.7225989 0.684149
vn 0.03787956 -0.7322137 0.6800209
vn -0.577351 0.5773499 -0.57735
vn -0.577351 0.5773499 -0.57735
vn -0.577351 0.5773499 -0.57735
vn 0.6240986 0.4701078 -0.624099
vn 0.5773504 0.5773497 -0.5773506
vn 0.6240979 0.4701084 -0.6240992
vn 0.5773513 0.577349 -0.5773506
vn 0.6785975 0.2810848 -0.6785991
vn 0 -1 4.371139E-08
vn 0 -1 4.371139E-08
vn 0 -1 4.371139E-08
vn 0 -1 4.371139E-08
vn 0 -1 4.371139E-08
vn 0 -1 4.371139E-08
vn 0 -1 4.371139E-08
vn 1 0 0
vn 1 0 0
vn 1 0 0
vn 1 0 0
vn 1 0 0
vn 1 0 0
vn 1 0 0
vn 0 -4.371139E-08 -1
vn 0 -4.371139E-08 -1
vn 0 -4.371139E-08 -1
vn 0 -4.371139E-08 -1
vn 0 -4.371139E-08 -1
vn 0 -4.371139E-08 -1
vn 0 -4.371139E-08 -1
vn 0 -4.371139E-08 -1
vn -1 0 0
vn -1 0 0
vn -1 0 0
vn -1 0 0
vn -1 0 0
vn -1 0 0
vn 0.1255094 4.336574E-08 0.9920924
vn 0.1255094 4.336574E-08 0.9920924
vn 0.1255095 -7.053703E-08 0.9920923
vn 0.1255094 4.336574E-08 0.9920924
vn 0.1255093 1.497914E-07 0.9920924
vn 0.1255094 4.336574E-08 0.9920924
vn 0 1 -4.371139E-08
vn 0 1 -4.371139E-08
vn 0 1 -4.371139E-08
vn 0 1 -4.371139E-08
vn 0 1 -4.371139E-08
vn 0 1 -4.371139E-08
vn 0.5773503 -0.5773506 0.5773501
vn 0.6240988 -0.4701081 0.6240985
vn 0.5773497 -0.577351 0.5773501
vn 0.624099 -0.4701079 0.6240985
vn 0.6940665 -0.191162 0.6940668
vn 0.6940662 -0.1911625 0.6940671
vn 0.704963 -0.07779976 0.704964
vn 0.5068361 -0.6095562 -0.609556
vn 0.5068359 -0.6095562 -0.6095561
vn 0.5068358 -0.6095562 -0.6095562
vn 0.5068361 -0.6095563 -0.6095558
vn 0.6669686 -0.7362421 -0.114457
vn 0.6669685 -0.7362422 -0.114457
vn 0.6669685 -0.7362422 -0.1144571
vn -0.6240991 0.4701083 0.6240982
vn -0.5773506 0.5773505 0.5773498
vn -0.5773506 0.5773503 0.5773499
vn -0.6240992 0.4701084 0.6240981
vn -0.678599 0.2810844 0.6785979
vn -0.8387561 -0.3767669 -0.3931092
vn -0.8143991 -0.4089352 -0.4117355
vn -0.6478319 -0.5386615 -0.5386629
vn -0.9923476 -0.08586695 -0.08873083
vn -0.9906939 -0.0962439 -0.09624388
vn -1 0 0
vn -1 0 0
vn -1 0 0
vn -1 0 0
vn -1 0 0
vn 0 -1 4.371139E-08
vn 0 -1 4.371139E-08
vn 0 -1 4.371139E-08
vn 0 -1 4.371139E-08
vn 0 -1 4.371139E-08
vn 0 -1 4.371139E-08
vn 0 -1 4.371139E-08
vn 0 -1 4.371139E-08
vn 0 4.371139E-08 1
vn 0 4.371139E-08 1
vn 0 4.371139E-08 1
vn 0 4.371139E-08 1
vn 0 4.371139E-08 1
vn 0 4.371139E-08 1
vn 0 4.371139E-08 1
vn 0 4.371139E-08 1
vn 1 0 0
vn 1 0 0
vn 1 0 0
vn 1 0 0
vn 1 0 0
vn 1 0 0
vn 1 0 0
vn -0.1824759 -4.297749E-08 -0.9832103
vn -0.182476 -4.297749E-08 -0.9832103
vn -0.1824757 -4.297749E-08 -0.9832103
vn -0.1824761 1.320203E-07 -0.9832103
vn -0.1824761 -4.297749E-08 -0.9832103
vn -0.1824759 -4.297749E-08 -0.9832103
vn -0.1824759 -4.297749E-08 -0.9832103
vn 0 1 -4.371139E-08
vn 0 1 -4.371139E-08
vn 0 1 -4.371139E-08
vn 0 1 -4.371139E-08
vn 0 1 -4.371139E-08
vn 0 1 -4.371139E-08
vn 0 1 -4.371139E-08
vn 0 1 -4.371139E-08
vn 0 1 -4.371139E-08
vn 0.3523774 -0.6918018 0.6302701
vn 0.5012379 -0.6254161 0.5980094
vn 0.5051749 -0.6235374 0.5966569
vn 0.7031373 -0.3875928 0.5961289
vn 0.6916814 -0.4145009 0.59141
vn 0.7621371 -0.2096116 0.6125439
vn -0.5068364 -0.6095559 -0.6095559
vn -0.5068364 -0.6095559 -0.6095559
vn -0.5068364 -0.6095559 -0.6095559
vn 0.9906939 -0.09624361 -0.09624356
vn 0.9832028 -0.1290584 -0.1290584
vn 0.8815669 -0.3337961 -0.3337961
vn 1 0 0
vn 1 0 0
vn 1 0 0
vn 0 -1 4.371139E-08
vn 0 -1 4.371139E-08
vn 0 -1 4.371139E-08
vn 0 -1 4.371139E-08
vn 0 -1 4.371139E-08
vn 0 -1 4.371139E-08
vn 0.1015478 -1.096326E-07 0.9948307
vn 0.1015479 4.348543E-08 0.9948307
vn 0.1015478 -1.264344E-07 0.9948307
vn 0.1015478 -8.200007E-08 0.9948307
vn 0.1015479 4.348543E-08 0.9948307
vn 0.1015479 4.348543E-08 0.9948307
vn 0.7066634 -0.7053678 0.05552584
vn 0.7018208 -0.7107679 0.04750447
vn 0.6920019 -0.7208254 0.03929539
vn 0.6993093 -0.7137953 0.03824539
vn 0.7085839 -0.7043697 0.04209689
vn -1 0 0
vn -1 0 0
vn -1 0 0
vn -1 0 0
vn -1 0 0
vn 0.1824761 2.250349E-07 -0.9832103
vn 0.1824759 -4.297749E-08 -0.9832103
vn 0.182476 -4.297749E-08 -0.9832103
vn 0.1824759 -4.297749E-08 -0.9832103
vn 0.1824759 -4.297749E-08 -0.9832103
vn 0.1824759 -4.297749E-08 -0.9832103
vn 0.1824757 -4.297749E-08 -0.9832103

vt 0.59007 0.828423
vt 0.608419 0.81045
vt 0.589201 0.793354
vt 0.65887 0.726408
vt 0.670639 0.700578
vt 0.65174 0.718958
vt 0.672737 0.717261
vt 0.662643 0.737852
vt 0.669746 0.738052
vt 0.669639 0.809433
vt 0.124343 0.354855
vt 0.094573 0.354302
vt 0.109636 0.370069
vt 0.587825 0.899186
vt 0.610511 0.89981
vt 0.6005 0.891332
vt 0.591136 0.918279
vt 0.590554 0.869046
vt 0.65174 0.718958
vt 0.587844 0.719713
vt 0.65887 0.726408
vt 0.662643 0.737852
vt 0.669639 0.809433
vt 0.608419 0.81045
vt 0.589201 0.793354
vt 0.610511 0.89981
vt 0.670614 0.900538
vt 0.6005 0.891332
vt 0.590554 0.869046
vt 0.59007 0.828423
vt 0.608419 0.81045
vt 0.669639 0.809433
vt 0.025113 0.459951
vt 0.109703 0.459773
vt 0.003774 0.438702
vt 0.003908 0.39158
vt 0.014871 0.365452
vt 0.026347 0.354138
vt 0.094573 0.354302
vt 0.109636 0.370069
vt 0.213777 0.354481
vt 0.109703 0.459773
vt 0.21412 0.438141
vt 0.192755 0.458919
vt 0.124343 0.354855
vt 0.109636 0.370069
vt 0.319762 0.458768
vt 0.319332 0.354047
vt 0.237711 0.453753
vt 0.224343 0.44828
vt 0.21412 0.438141
vt 0.213777 0.354481
vt 0.603266 0.990155
vt 0.680761 0.991305
vt 0.590268 0.976766
vt 0.591136 0.918279
vt 0.610511 0.89981
vt 0.670614 0.900538
vt 0.126884 0.33572
vt 0.092349 0.331226
vt 0.097073 0.350265
vt 0.113481 0.323657
vt 0.09726 0.314854
vt 0.108246 0.311609
vt 0.101974 0.247927
vt 0.637739 0.464853
vt 0.651406 0.451681
vt 0.6389 0.450498
vt 0.643454 0.472556
vt 0.581913 0.454713
vt 0.637739 0.464853
vt 0.6389 0.450498
vt 0.567879 0.609891
vt 0.556409 0.642878
vt 0.579306 0.619253
vt 0.551625 0.620167
vt 0.553703 0.58121
vt 0.613591 0.528463
vt 0.634579 0.541865
vt 0.634509 0.513043
vt 0.590472 0.534325
vt 0.632948 0.570353
vt 0.635812 0.616299
vt 0.579306 0.619253
vt 0.567879 0.609891
vt 0.553703 0.58121
vt 0.553668 0.533433
vt 0.556386 0.475905
vt 0.553668 0.533433
vt 0.581913 0.454713
vt 0.590472 0.534325
vt 0.613591 0.528463
vt 0.634509 0.513043
vt 0.643454 0.472556
vt 0.637739 0.464853
vt 0.09726 0.314854
vt 0.006803 0.347566
vt 0.092349 0.331226
vt 0.077214 0.346726
vt 0.03033 0.248213
vt 0.018244 0.260967
vt 0.005377 0.294558
vt 0.101974 0.247927
vt 0.202693 0.321488
vt 0.108246 0.311609
vt 0.113481 0.323657
vt 0.101974 0.247927
vt 0.203417 0.248316
vt 0.126884 0.33572
vt 0.193435 0.330797
vt 0.221764 0.340542
vt 0.203417 0.248316
vt 0.202693 0.321488
vt 0.268373 0.340758
vt 0.286624 0.322655
vt 0.296985 0.297906
vt 0.297152 0.248676
vt 0.558742 0.70818
vt 0.657069 0.703799
vt 0.556409 0.642878
vt 0.579306 0.619253
vt 0.635812 0.616299
vt 0.193311 0.793777
vt 0.129943 0.752465
vt 0.126015 0.788477
vt 0.197454 0.75627
vt 0.551654 0.426557
vt 0.503948 0.395128
vt 0.498358 0.423132
vt 0.472325 0.39098
vt 0.473893 0.424022
vt 0.416144 0.408415
vt 0.647936 0.328024
vt 0.673765 0.303257
vt 0.624697 0.302035
vt 0.460945 0.332616
vt 0.475087 0.347648
vt 0.488655 0.324082
vt 0.41931 0.330052
vt 0.472325 0.39098
vt 0.416144 0.408415
vt 0.551654 0.426557
vt 0.624697 0.302035
vt 0.503948 0.395128
vt 0.501878 0.315439
vt 0.643829 0.441822
vt 0.647936 0.328024
vt 0.410954 0.427803
vt 0.413882 0.278598
vt 0.353602 0.419855
vt 0.339205 0.405083
vt 0.322146 0.362355
vt 0.323237 0.277434
vt 0.472325 0.39098
vt 0.503948 0.395128
vt 0.475087 0.347648
vt 0.488655 0.324082
vt 0.501878 0.315439
vt 0.643829 0.441822
vt 0.742561 0.444527
vt 0.647936 0.328024
vt 0.673765 0.303257
vt 0.742473 0.305388
vt 0.768472 0.976743
vt 0.684139 0.8549
vt 0.755332 0.985512
vt 0.727705 0.99431
vt 0.686047 0.992143
vt 0.766495 0.875796
vt 0.743555 0.853737

usemtl MAT_SmallRock_01
f 1/1/1 2/2/2 3/3/3
f 4/4/4 5/5/5 6/6/6
f 5/5/5 4/4/4 7/7/7
f 8/8/8 7/7/7 4/4/4
f 7/7/7 8/8/8 9/9/9
f 8/8/8 10/10/10 9/9/9
f 11/11/11 12/12/12 13/13/13
f 14/14/14 15/15/15 16/16/16
f 15/15/15 14/14/14 17/17/17
f 16/16/16 18/18/18 14/14/14
f 19/19/19 20/20/20 21/21/21
f 21/21/21 20/20/20 22/22/22
f 22/22/22 20/20/20 23/23/23
f 23/23/23 20/20/20 24/24/24
f 24/24/24 20/20/20 25/25/25
f 26/26/26 27/27/27 28/28/28
f 28/28/28 27/27/27 29/29/29
f 29/29/29 27/27/27 30/30/30
f 30/30/30 27/27/27 31/31/31
f 31/31/31 27/27/27 32/32/32
f 33/33/33 34/34/34 35/35/35
f 35/35/35 34/34/34 36/36/36
f 36/36/36 34/34/34 37/37/37
f 37/37/37 34/34/34 38/38/38
f 38/38/38 34/34/34 39/39/39
f 39/39/39 34/34/34 40/40/40
f 41/41/41 42/42/42 43/43/43
f 43/43/43 42/42/42 44/44/44
f 45/45/45 42/42/42 41/41/41
f 46/46/46 42/42/42 45/45/45
f 47/47/47 48/48/48 49/49/49
f 49/49/49 48/48/48 50/50/50
f 50/50/50 48/48/48 51/51/51
f 51/51/51 48/48/48 52/52/52
f 53/53/53 54/54/54 55/55/55
f 55/55/55 54/54/54 56/56/56
f 56/56/56 54/54/54 57/57/57
f 57/57/57 54/54/54 58/58/58
f 59/59/59 60/60/60 61/61/61
f 60/60/60 59/59/59 62/62/62
f 62/62/62 63/63/63 60/60/60
f 63/63/63 62/62/62 64/64/64
f 64/64/64 65/65/65 63/63/63
f 66/66/66 67/67/67 68/68/68
f 67/67/67 66/66/66 69/69/69
f 70/70/70 71/71/71 72/72/72
f 73/73/73 74/74/74 75/75/75
f 74/74/74 73/73/73 76/76/76
f 73/73/73 77/77/77 76/76/76
f 78/78/78 79/79/79 80/80/80
f 81/81/81 79/79/79 78/78/78
f 79/79/79 81/81/81 82/82/82
f 81/81/81 83/83/83 82/82/82
f 81/81/81 84/84/84 83/83/83
f 81/81/81 85/85/85 84/84/84
f 81/81/81 86/86/86 85/85/85
f 86/86/86 81/81/81 87/87/87
f 88/88/88 89/89/89 90/90/90
f 91/91/91 90/90/90 89/89/89
f 90/90/90 91/91/91 92/92/92
f 90/90/90 92/92/92 93/93/93
f 90/90/90 93/93/93 94/94/94
f 90/90/90 94/94/94 95/95/95
f 96/96/96 97/97/97 98/98/98
f 98/98/98 97/97/97 99/99/99
f 96/96/96 100/100/100 97/97/97
f 97/97/97 100/100/100 101/101/101
f 97/97/97 101/101/101 102/102/102
f 100/100/100 96/96/96 103/103/103
f 104/104/104 105/105/105 106/106/106
f 105/105/105 104/104/104 107/107/107
f 107/107/107 104/104/104 108/108/108
f 104/104/104 106/106/106 109/109/109
f 104/104/104 109/109/109 110/110/110
f 111/111/111 112/112/112 113/113/113
f 114/114/114 112/112/112 111/111/111
f 115/115/115 112/112/112 114/114/114
f 116/116/116 112/112/112 115/115/115
f 117/117/117 112/112/112 116/116/116
f 118/118/118 119/119/119 120/120/120
f 120/120/120 119/119/119 121/121/121
f 121/121/121 119/119/119 122/122/122
f 123/123/123 124/124/124 125/125/125
f 124/124/124 123/123/123 126/126/126
f 127/127/127 128/128/128 129/129/129
f 130/130/130 129/129/129 128/128/128
f 131/131/131 129/129/129 130/130/130
f 130/130/130 132/132/132 131/131/131
f 133/133/133 134/134/134 135/135/135
f 136/136/136 137/137/137 138/138/138
f 136/136/136 139/139/139 137/137/137
f 137/137/137 139/139/139 140/140/140
f 140/140/140 139/139/139 141/141/141
f 142/142/142 143/143/143 144/144/144
f 144/144/144 143/143/143 145/145/145
f 143/143/143 142/142/142 146/146/146
f 143/143/143 146/146/146 147/147/147
f 148/148/148 149/149/149 150/150/150
f 150/150/150 149/149/149 151/151/151
f 151/151/151 149/149/149 152/152/152
f 152/152/152 149/149/149 153/153/153
f 154/154/154 155/155/155 156/156/156
f 156/156/156 155/155/155 157/157/157
f 157/157/157 155/155/155 158/158/158
f 159/159/159 160/160/160 161/161/161
f 161/161/161 160/160/160 162/162/162
f 162/162/162 160/160/160 163/163/163
f 164/164/164 165/165/165 166/166/166
f 166/166/166 165/165/165 167/167/167
f 167/167/167 165/165/165 168/168/168
f 169/169/169 165/165/165 164/164/164
f 170/170/170 165/165/165 169/169/169
