#OBJ_SmallRock_05.obj
#Friday, January 12, 2018
#3:42:45 PM
#-------

mtllib OBJ_SmallRock_05.mtl
#OBJ_SmallRock_05
#-------
g OBJ_SmallRock_05
v 0.3542699 -0.09495601 -0.1342922
v -0.008703918 -0.094956 0.08745505
v 0.3542699 -0.094956 0.1342922
v -0.008703918 -0.094956 -0.08745505
v 0.02128143 -0.005900204 -0.09132424
v -0.008703918 0.02186518 -0.02282086
v -0.008703918 -0.04276901 -0.08745505
v 0.02026916 0.02769944 -0.0563499
v 0.3542699 0.094956 -0.1342922
v 0.3542699 0.094956 0.07429215
v 0.3542699 0.03495601 0.1342922
v 0.2959155 0.08320539 0.1267623
v 0.2959155 0.08320539 0.1267623
v 0.3542699 0.094956 -0.1342922
v 0.3542699 0.094956 0.07429215
v 0.02026916 0.02769944 -0.0563499
v -0.008703918 0.02186518 -0.02282086
v -0.008703918 0.02186518 0.08745505
v -0.008703918 0.02186518 -0.02282086
v -0.008703918 -0.094956 0.08745505
v -0.008703918 -0.04276901 -0.08745505
v -0.008703918 -0.094956 -0.08745505
v -0.008703918 0.02186518 0.08745505
v -0.008703918 -0.094956 -0.08745505
v 0.3542699 -0.09495601 -0.1342922
v -0.008703918 -0.04276901 -0.08745505
v 0.02128143 -0.005900204 -0.09132424
v 0.3542699 0.094956 -0.1342922
v 0.3542699 0.094956 -0.1342922
v 0.3542699 -0.09495601 -0.1342922
v 0.3542699 0.094956 0.07429215
v 0.3542699 0.03495601 0.1342922
v 0.3542699 -0.094956 0.1342922
v 0.3542699 -0.094956 0.1342922
v -0.008703918 -0.094956 0.08745505
v 0.3542699 0.03495601 0.1342922
v 0.2959155 0.08320539 0.1267623
v -0.008703918 0.02186518 0.08745505
v 0.3599887 -0.09495598 0.368912
v 0.3163357 0.04193518 0.3294337
v 0.3163357 -0.09495598 0.3294337
v 0.3599866 0.03814276 0.3687456
v 0.1215887 0.02565764 0.5315941
v 0.1716019 -0.09495597 0.5703491
v 0.1215619 -0.09495598 0.5314297
v 0.1716019 0.0218652 0.5703491
v 0.1703275 0.04193518 0.3422078
v 0.1044739 0.03502872 0.4265153
v 0.09186066 -0.03683124 0.3490728
v 0.3624048 -0.0381348 0.553656
v 0.302633 0.0218652 0.5588855
v 0.3616232 0.02712616 0.4938922
v 0.3599866 0.03814276 0.3687456
v 0.1215887 0.02565764 0.5315941
v 0.1044739 0.03502872 0.4265153
v 0.3616232 0.02712616 0.4938922
v 0.302633 0.0218652 0.5588855
v 0.1716019 0.0218652 0.5703491
v 0.3163357 0.04193518 0.3294337
v 0.1703275 0.04193518 0.3422078
v 0.3624048 -0.09495597 0.553656
v 0.1716019 -0.09495597 0.5703491
v 0.3624048 -0.0381348 0.553656
v 0.302633 0.0218652 0.5588855
v 0.1716019 0.0218652 0.5703491
v 0.1215887 0.02565764 0.5315941
v 0.1215619 -0.09495598 0.5314297
v 0.1044739 0.03502872 0.4265153
v 0.09186066 -0.03683124 0.3490728
v 0.09186066 -0.09495598 0.3490728
v 0.3616232 0.02712616 0.4938922
v 0.3599887 -0.09495598 0.368912
v 0.3624048 -0.0381348 0.553656
v 0.3624048 -0.09495597 0.553656
v 0.3599866 0.03814276 0.3687456
v 0.09186066 -0.09495598 0.3490728
v 0.3163357 -0.09495598 0.3294337
v 0.09186066 -0.03683124 0.3490728
v 0.1703275 0.04193518 0.3422078
v 0.3163357 0.04193518 0.3294337
v 0.09186066 -0.09495598 0.3490728
v 0.3599887 -0.09495598 0.368912
v 0.3163357 -0.09495598 0.3294337
v 0.3624048 -0.09495597 0.553656
v 0.1716019 -0.09495597 0.5703491
v 0.1215619 -0.09495598 0.5314297

vn 0 1 -4.371139E-08
vn 0 1 -4.371139E-08
vn 0 1 -4.371139E-08
vn 0 1 -4.371139E-08
vn 0.539869 -0.5991576 0.5912289
vn 0.6927881 -0.5099216 0.509926
vn 0.6927843 -0.5099264 0.5099264
vn 0.537025 -0.600508 0.5924476
vn 0.2935342 -0.6851115 0.6666783
vn -0.4424846 -0.6341165 -0.6341164
vn -0.4424846 -0.6341165 -0.6341164
vn -0.4424846 -0.6341165 -0.6341164
vn 0.1974041 -0.9803222 4.285124E-08
vn 0.1974041 -0.9803222 4.285124E-08
vn 0.1974043 -0.9803222 4.285124E-08
vn 0.1974045 -0.9803221 -6.372429E-07
vn 0.1974044 -0.9803221 -4.808649E-07
vn 0.1974042 -0.9803222 4.285124E-08
vn 1 0 0
vn 1 0 0
vn 1 0 0
vn 1 0 0
vn 1 0 0
vn 0.1279761 4.335196E-08 0.9917773
vn 0.1279762 4.335196E-08 0.9917773
vn 0.1279761 -2.183794E-07 0.9917773
vn 0.1279761 -4.476864E-07 0.9917773
vn 0.1279762 4.335196E-08 0.9917772
vn -1 0 0
vn -1 0 0
vn -1 0 0
vn -1 0 0
vn -1 0 0
vn 0.1279762 -4.335196E-08 -0.9917773
vn 0.1279761 -4.335196E-08 -0.9917773
vn 0.1279762 -4.335196E-08 -0.9917773
vn 0.1279762 -4.335196E-08 -0.9917773
vn 0.1279761 -4.335196E-08 -0.9917773
vn -0.6703433 0.0002371544 0.7420512
vn -0.6695939 0.0006710869 0.7427272
vn -0.6707524 3.241992E-08 0.7416814
vn -0.6691657 0.0009187413 0.7431127
vn 0.6129738 0.0003005753 -0.7901031
vn 0.6134999 0.000650033 -0.7896945
vn 0.6139343 0.0009387742 -0.7893565
vn 0.6125209 -3.455186E-08 -0.7904543
vn 0.6495419 -0.6071867 0.4576239
vn 0.6495419 -0.6071867 0.4576239
vn 0.6495419 -0.6071867 0.4576238
vn -0.5984319 -0.5449697 -0.587271
vn -0.5984319 -0.5449697 -0.587271
vn -0.5984319 -0.5449697 -0.587271
vn -0.007662973 -0.9961273 -0.08758809
vn -0.007662964 -0.9961273 -0.08758824
vn -0.007662894 -0.9961273 -0.087588
vn -0.007663104 -0.9961273 -0.08758824
vn -0.007663055 -0.9961273 -0.08758809
vn -0.007662949 -0.9961272 -0.08758877
vn -0.007662876 -0.9961273 -0.08758792
vn -0.007662956 -0.9961273 -0.08758811
vn -0.08715586 -4.354505E-08 -0.9961947
vn -0.08715546 4.434632E-07 -0.9961947
vn -0.08715608 7.527096E-07 -0.9961947
vn -0.08715591 1.165125E-06 -0.9961947
vn -0.08715483 -4.354506E-08 -0.9961948
vn 0.9869937 -7.347675E-07 -0.1607582
vn 0.9869941 3.423044E-07 -0.1607567
vn 0.9869941 9.257979E-07 -0.1607563
vn 0.9869942 8.106712E-07 -0.1607555
vn 0.9869942 -7.026858E-09 -0.1607558
vn -0.9999145 3.731282E-07 0.01307677
vn -0.9999145 2.804742E-07 0.0130768
vn -0.9999145 1.926601E-07 0.0130768
vn -0.9999145 5.716075E-10 0.01307686
vn -0.9999145 3.083202E-07 0.01307683
vn 0.08715553 4.354505E-08 0.9961947
vn 0.08715555 4.354505E-08 0.9961947
vn 0.08715553 4.354505E-08 0.9961947
vn 0.08715554 4.354505E-08 0.9961947
vn 0.08715558 4.354505E-08 0.9961947
vn 0 1 -4.371139E-08
vn 0 1 -4.371139E-08
vn 0 1 -4.371139E-08
vn 0 1 -4.371139E-08
vn 0 1 -4.371139E-08
vn 0 1 -4.371139E-08

vt 0.905155 0.639377
vt 0.948974 0.704402
vt 0.954466 0.637192
vt 0.916781 0.70591
vt 0.911211 0.542194
vt 0.927138 0.541236
vt 0.915694 0.533699
vt 0.920327 0.544971
vt 0.904423 0.604588
vt 0.941537 0.603804
vt 0.953119 0.613532
vt 0.950856 0.5954
vt 0.950856 0.5954
vt 0.904423 0.604588
vt 0.941537 0.603804
vt 0.920327 0.544971
vt 0.927138 0.541236
vt 0.946493 0.542192
vt 0.020024 0.489068
vt 0.046137 0.466625
vt 0.006453 0.478013
vt 0.005929 0.46512
vt 0.044497 0.492782
vt 0.011666 0.596202
vt 0.102445 0.610131
vt 0.01273 0.583343
vt 0.020727 0.574038
vt 0.110064 0.561888
vt 0.904423 0.604588
vt 0.905155 0.639377
vt 0.941537 0.603804
vt 0.953119 0.613532
vt 0.954466 0.637192
vt 0.130454 0.46913
vt 0.046137 0.466625
vt 0.129368 0.495942
vt 0.115264 0.504321
vt 0.044497 0.492782
vt 0.795548 0.928012
vt 0.779773 0.897906
vt 0.785432 0.934638
vt 0.793159 0.904377
vt 0.273624 0.032128
vt 0.291279 0.006936
vt 0.275272 0.006834
vt 0.287193 0.039039
vt 0.225877 0.043403
vt 0.249759 0.031577
vt 0.235793 0.019435
vt 0.834917 0.915476
vt 0.834366 0.887029
vt 0.820223 0.901551
vt 0.793159 0.904377
vt 0.820421 0.84608
vt 0.795938 0.845514
vt 0.820223 0.901551
vt 0.834366 0.887029
vt 0.834341 0.853169
vt 0.779773 0.897906
vt 0.771439 0.857646
vt 0.345183 0.006926
vt 0.291279 0.006936
vt 0.344609 0.024038
vt 0.326383 0.041289
vt 0.287193 0.039039
vt 0.273624 0.032128
vt 0.275272 0.006834
vt 0.249759 0.031577
vt 0.235793 0.019435
vt 0.23081 0.00694
vt 0.820223 0.901551
vt 0.795548 0.928012
vt 0.834917 0.915476
vt 0.834459 0.930555
vt 0.793159 0.904377
vt 0.23081 0.00694
vt 0.182035 0.00761
vt 0.235793 0.019435
vt 0.225877 0.043403
vt 0.184606 0.046157
vt 0.78566 0.983281
vt 0.795548 0.928012
vt 0.785432 0.934638
vt 0.834459 0.930555
vt 0.833821 0.971657
vt 0.823872 0.982568

usemtl MAT_SmallRock_01
f 1/1/1 2/2/2 3/3/3
f 2/2/2 1/1/1 4/4/4
f 5/5/5 6/6/6 7/7/7
f 6/6/6 5/5/5 8/8/8
f 9/9/9 8/8/8 5/5/5
f 10/10/10 11/11/11 12/12/12
f 13/13/13 14/14/14 15/15/15
f 13/13/13 16/16/16 14/14/14
f 13/13/13 17/17/17 16/16/16
f 17/17/17 13/13/13 18/18/18
f 19/19/19 20/20/20 21/21/21
f 21/21/21 20/20/20 22/22/22
f 23/23/23 20/20/20 19/19/19
f 24/24/24 25/25/25 26/26/26
f 26/26/26 25/25/25 27/27/27
f 27/27/27 25/25/25 28/28/28
f 29/29/29 30/30/30 31/31/31
f 31/31/31 30/30/30 32/32/32
f 32/32/32 30/30/30 33/33/33
f 34/34/34 35/35/35 36/36/36
f 36/36/36 35/35/35 37/37/37
f 37/37/37 35/35/35 38/38/38
f 39/39/39 40/40/40 41/41/41
f 40/40/40 39/39/39 42/42/42
f 43/43/43 44/44/44 45/45/45
f 44/44/44 43/43/43 46/46/46
f 47/47/47 48/48/48 49/49/49
f 50/50/50 51/51/51 52/52/52
f 53/53/53 54/54/54 55/55/55
f 56/56/56 54/54/54 53/53/53
f 54/54/54 56/56/56 57/57/57
f 54/54/54 57/57/57 58/58/58
f 53/53/53 55/55/55 59/59/59
f 59/59/59 55/55/55 60/60/60
f 61/61/61 62/62/62 63/63/63
f 63/63/63 62/62/62 64/64/64
f 64/64/64 62/62/62 65/65/65
f 66/66/66 67/67/67 68/68/68
f 68/68/68 67/67/67 69/69/69
f 69/69/69 67/67/67 70/70/70
f 71/71/71 72/72/72 73/73/73
f 73/73/73 72/72/72 74/74/74
f 75/75/75 72/72/72 71/71/71
f 76/76/76 77/77/77 78/78/78
f 78/78/78 77/77/77 79/79/79
f 79/79/79 77/77/77 80/80/80
f 81/81/81 82/82/82 83/83/83
f 81/81/81 84/84/84 82/82/82
f 84/84/84 81/81/81 85/85/85
f 85/85/85 81/81/81 86/86/86
