#OBJ_Trigger_A.obj
#Friday, January 12, 2018
#3:53:49 PM
#-------

mtllib OBJ_Trigger_A.mtl
#OBJ_Trigger_A
#-------
g OBJ_Trigger_A
#OBJ_Trigger_A_01
#-------
g OBJ_Trigger_A_01
v 0.4477775 0.2075707 -0.6
v 0.6 0.05534902 -0.6
v 0.6 0.2075707 -0.4477775
v -0.6 0.05534902 -0.6
v -0.4477775 0.2075707 -0.6
v -0.6 0.2075707 -0.4477775
v 0.6 0.2075709 0.4477775
v 0.6 0.05534922 0.6
v 0.4477775 0.2075709 0.6
v -0.6 0.05534922 0.6
v -0.6 0.2075709 0.4477775
v -0.4477775 0.2075709 0.6
v -0.6 0.05534902 -0.6
v -0.6 -0.2924293 -0.6
v -0.4477775 0.2075707 -0.6
v 0.4477775 0.2075707 -0.6
v 0.6 0.05534902 -0.6
v 0.6 0.05534902 -0.6
v 0.6 -0.2924293 -0.6
v 0.6 -0.2924293 -0.6
v 0.6 -0.2924291 0.6
v 0.6 0.05534902 -0.6
v 0.6 0.2075707 -0.4477775
v 0.6 0.2075707 -0.4477775
v 0.6 0.2075709 0.4477775
v 0.6 0.05534922 0.6
v 0.6 -0.2924291 0.6
v -0.6 -0.2924291 0.6
v 0.6 0.05534922 0.6
v 0.6 0.05534922 0.6
v 0.4477775 0.2075709 0.6
v -0.4477775 0.2075709 0.6
v -0.6 0.05534922 0.6
v -0.6 -0.2924291 0.6
v -0.6 -0.2924293 -0.6
v -0.6 0.05534922 0.6
v -0.6 0.2075709 0.4477775
v -0.6 0.2075707 -0.4477775
v -0.6 0.05534902 -0.6
v 0.4477775 0.2075709 0.6
v -0.6 0.2075709 0.4477775
v 0.6 0.2075709 0.4477775
v 0.6 0.2075707 -0.4477775
v -0.4477775 0.2075709 0.6
v 0.6 0.2075707 -0.4477775
v 0.4477775 0.2075707 -0.6
v -0.4477775 0.2075707 -0.6
v -0.6 0.2075707 -0.4477775

vn -0.5773492 -0.5773523 0.5773493
vn -0.5773492 -0.5773523 0.5773493
vn -0.5773492 -0.5773523 0.5773493
vn 0.5773492 -0.5773523 0.5773493
vn 0.5773492 -0.5773523 0.5773493
vn 0.5773492 -0.5773523 0.5773493
vn -0.5773492 -0.5773525 -0.5773491
vn -0.5773492 -0.5773525 -0.5773491
vn -0.5773492 -0.5773525 -0.5773491
vn 0.5773492 -0.5773525 -0.5773491
vn 0.5773492 -0.5773525 -0.5773491
vn 0.5773492 -0.5773525 -0.5773491
vn 0 1.629207E-07 1
vn 0 1.629207E-07 1
vn 0 1.629207E-07 1
vn 0 1.629207E-07 1
vn 0 1.629207E-07 1
vn 0 1.629207E-07 1
vn 0 1.629207E-07 1
vn -1 0 0
vn -1 0 0
vn -1 0 0
vn -1 0 0
vn -1 0 0
vn -1 0 0
vn -1 0 0
vn 0 -1.629207E-07 -1
vn 0 -1.629207E-07 -1
vn 0 -1.629207E-07 -1
vn 0 -1.629207E-07 -1
vn 0 -1.629207E-07 -1
vn 0 -1.629207E-07 -1
vn 0 -1.629207E-07 -1
vn 1 0 0
vn 1 0 0
vn 1 0 0
vn 1 0 0
vn 1 0 0
vn 1 0 0
vn 0 -1 1.629207E-07
vn 0 -1 1.629207E-07
vn 0 -1 1.629207E-07
vn 0 -1 1.629207E-07
vn 0 -1 1.629207E-07
vn 0 -1 1.629207E-07
vn 0 -1 1.629207E-07
vn 0 -1 1.629207E-07
vn 0 -1 1.629207E-07

vt 0.503561 0.828698
vt 0.490464 0.823013
vt 0.496722 0.835503
vt 0.566809 0.824893
vt 0.55449 0.828989
vt 0.560912 0.83721
vt 0.495978 0.885236
vt 0.4934 0.9002
vt 0.503366 0.892629
vt 0.567855 0.895878
vt 0.561115 0.886415
vt 0.553685 0.892982
vt 0.566809 0.824893
vt 0.56783 0.79829
vt 0.55449 0.828989
vt 0.503561 0.828698
vt 0.490464 0.823013
vt 0.490464 0.823013
vt 0.490633 0.798196
vt 0.468551 0.825128
vt 0.468147 0.895482
vt 0.490464 0.823013
vt 0.496722 0.835503
vt 0.496722 0.835503
vt 0.495978 0.885236
vt 0.4934 0.9002
vt 0.493129 0.920655
vt 0.562802 0.920869
vt 0.4934 0.9002
vt 0.4934 0.9002
vt 0.503366 0.892629
vt 0.553685 0.892982
vt 0.567855 0.895878
vt 0.586987 0.896093
vt 0.586998 0.828314
vt 0.567855 0.895878
vt 0.561115 0.886415
vt 0.560912 0.83721
vt 0.566809 0.824893
vt 0.503366 0.892629
vt 0.561115 0.886415
vt 0.495978 0.885236
vt 0.496722 0.835503
vt 0.553685 0.892982
vt 0.496722 0.835503
vt 0.503561 0.828698
vt 0.55449 0.828989
vt 0.560912 0.83721

usemtl MAT_Prop_01
f 1/1/1 2/2/2 3/3/3
f 4/4/4 5/5/5 6/6/6
f 7/7/7 8/8/8 9/9/9
f 10/10/10 11/11/11 12/12/12
f 13/13/13 14/14/14 15/15/15
f 15/15/15 14/14/14 16/16/16
f 16/16/16 14/14/14 17/17/17
f 18/18/18 14/14/14 19/19/19
f 20/20/20 21/21/21 22/22/22
f 22/22/22 21/21/21 23/23/23
f 24/24/24 21/21/21 25/25/25
f 25/25/25 21/21/21 26/26/26
f 27/27/27 28/28/28 29/29/29
f 30/30/30 28/28/28 31/31/31
f 31/31/31 28/28/28 32/32/32
f 32/32/32 28/28/28 33/33/33
f 34/34/34 35/35/35 36/36/36
f 36/36/36 35/35/35 37/37/37
f 37/37/37 35/35/35 38/38/38
f 38/38/38 35/35/35 39/39/39
f 40/40/40 41/41/41 42/42/42
f 42/42/42 41/41/41 43/43/43
f 44/44/44 41/41/41 40/40/40
f 45/45/45 41/41/41 46/46/46
f 46/46/46 41/41/41 47/47/47
f 47/47/47 41/41/41 48/48/48
#OBJ_Trigger_A_02
#-------
g OBJ_Trigger_A_02
v 0.3404264 0.2924315 -0.4729927
v -0.3846819 0.1810888 -0.5344818
v 0.3846819 0.1810888 -0.5344818
v -0.3404264 0.2924315 -0.4729927
v -0.5344818 0.1810888 -0.3846819
v -0.4729927 0.2924317 0.3404264
v -0.5344818 0.1810889 0.3846819
v -0.4729927 0.2924316 -0.3404265
v 0.3846819 0.181089 0.5344818
v -0.3404264 0.2924317 0.4729927
v 0.3404264 0.2924317 0.4729927
v -0.3846819 0.181089 0.5344818
v 0.4729927 0.2924317 0.3404264
v 0.5344818 0.1810888 -0.3846819
v 0.5344818 0.1810889 0.3846819
v 0.4729927 0.2924316 -0.3404265
v 0.4729927 0.2924316 -0.3404265
v 0.3846819 0.1810888 -0.5344818
v 0.5344818 0.1810888 -0.3846819
v 0.3404264 0.2924315 -0.4729927
v -0.5344818 0.1810888 -0.3846819
v -0.3404264 0.2924315 -0.4729927
v -0.4729927 0.2924316 -0.3404265
v -0.3846819 0.1810888 -0.5344818
v -0.5344818 0.1810889 0.3846819
v -0.3404264 0.2924317 0.4729927
v -0.3846819 0.181089 0.5344818
v -0.4729927 0.2924317 0.3404264
v 0.4729927 0.2924317 0.3404264
v 0.3846819 0.181089 0.5344818
v 0.3404264 0.2924317 0.4729927
v 0.5344818 0.1810889 0.3846819
v 0.3404264 0.2924317 0.4729927
v 0.4729927 0.2924316 -0.3404265
v 0.4729927 0.2924317 0.3404264
v -0.3404264 0.2924315 -0.4729927
v 0.3404264 0.2924315 -0.4729927
v -0.3404264 0.2924317 0.4729927
v -0.4729927 0.2924317 0.3404264
v -0.4729927 0.2924316 -0.3404265

vn 0 -0.4834301 0.8753829
vn 0 -0.4834301 0.8753829
vn 0 -0.4834302 0.8753829
vn 0 -0.4834301 0.8753829
vn 0.8753828 -0.4834303 7.876079E-08
vn 0.8753828 -0.4834303 7.876079E-08
vn 0.8753828 -0.4834304 7.876081E-08
vn 0.8753828 -0.4834303 7.876079E-08
vn 0 -0.4834304 -0.8753828
vn 0 -0.4834304 -0.8753828
vn 0 -0.4834304 -0.8753828
vn 0 -0.4834305 -0.8753828
vn -0.8753828 -0.4834303 7.876079E-08
vn -0.8753828 -0.4834303 7.876079E-08
vn -0.8753828 -0.4834304 7.876081E-08
vn -0.8753828 -0.4834303 7.876079E-08
vn -0.587021 -0.5575057 0.5870211
vn -0.587021 -0.5575057 0.5870211
vn -0.587021 -0.5575057 0.5870211
vn -0.587021 -0.5575057 0.5870211
vn 0.587021 -0.5575057 0.5870211
vn 0.587021 -0.5575057 0.5870211
vn 0.587021 -0.5575057 0.5870211
vn 0.587021 -0.5575057 0.5870211
vn 0.587021 -0.557506 -0.5870209
vn 0.587021 -0.557506 -0.5870209
vn 0.587021 -0.557506 -0.5870209
vn 0.587021 -0.557506 -0.5870209
vn -0.587021 -0.557506 -0.5870209
vn -0.587021 -0.557506 -0.5870209
vn -0.587021 -0.557506 -0.5870209
vn -0.587021 -0.557506 -0.5870209
vn 0 -1 1.629207E-07
vn 0 -1 1.629207E-07
vn 0 -1 1.629207E-07
vn 0 -1 1.629207E-07
vn 0 -1 1.629207E-07
vn 0 -1 1.629207E-07
vn 0 -1 1.629207E-07
vn 0 -1 1.629207E-07

vt 0.261071 0.698959
vt 0.31289 0.689968
vt 0.257506 0.69001
vt 0.309269 0.698894
vt 0.327692 0.704603
vt 0.318479 0.756346
vt 0.327379 0.760016
vt 0.318603 0.708133
vt 0.257567 0.774464
vt 0.309215 0.765607
vt 0.26118 0.765583
vt 0.312747 0.774526
vt 0.251948 0.756376
vt 0.242781 0.704603
vt 0.24302 0.759962
vt 0.251841 0.708204
vt 0.251841 0.708204
vt 0.257506 0.69001
vt 0.242781 0.704603
vt 0.261071 0.698959
vt 0.327692 0.704603
vt 0.309269 0.698894
vt 0.318603 0.708133
vt 0.31289 0.689968
vt 0.327379 0.760016
vt 0.309215 0.765607
vt 0.312747 0.774526
vt 0.318479 0.756346
vt 0.251948 0.756376
vt 0.257567 0.774464
vt 0.26118 0.765583
vt 0.24302 0.759962
vt 0.26118 0.765583
vt 0.251841 0.708204
vt 0.251948 0.756376
vt 0.309269 0.698894
vt 0.261071 0.698959
vt 0.309215 0.765607
vt 0.318479 0.756346
vt 0.318603 0.708133

usemtl MAT_Prop_01
f 49/49/49 50/50/50 51/51/51
f 50/50/50 49/49/49 52/52/52
f 53/53/53 54/54/54 55/55/55
f 54/54/54 53/53/53 56/56/56
f 57/57/57 58/58/58 59/59/59
f 58/58/58 57/57/57 60/60/60
f 61/61/61 62/62/62 63/63/63
f 62/62/62 61/61/61 64/64/64
f 65/65/65 66/66/66 67/67/67
f 66/66/66 65/65/65 68/68/68
f 69/69/69 70/70/70 71/71/71
f 70/70/70 69/69/69 72/72/72
f 73/73/73 74/74/74 75/75/75
f 74/74/74 73/73/73 76/76/76
f 77/77/77 78/78/78 79/79/79
f 78/78/78 77/77/77 80/80/80
f 81/81/81 82/82/82 83/83/83
f 81/81/81 84/84/84 82/82/82
f 82/82/82 84/84/84 85/85/85
f 86/86/86 84/84/84 81/81/81
f 84/84/84 86/86/86 87/87/87
f 84/84/84 87/87/87 88/88/88
