#OBJ_Bucket_01.obj
#Friday, January 12, 2018
#3:53:33 PM
#-------

mtllib OBJ_Bucket_01.mtl
#OBJ_Bucket_01
#-------
g OBJ_Bucket_01
v -0.363054 -0.1404382 3.66211E-06
v -0.2682334 -0.3605072 -0.2515679
v -0.3005214 -0.1403064 -0.2818501
v -0.324057 -0.3605072 3.66211E-06
v -0.2682334 -0.3605072 0.2515753
v -0.3005214 -0.1403064 0.2818575
v -0.363054 0.1404309 3.66211E-06
v -0.3005214 0.1402991 -0.2818501
v -0.324057 0.3604999 3.66211E-06
v -0.2682334 0.3604999 -0.2515679
v -0.3005214 0.1402991 0.2818575
v -0.2682334 0.3604999 0.2515753
v 0.363054 -0.1404382 3.66211E-06
v 0.2682334 -0.3605072 -0.2515679
v 0.324057 -0.3605072 3.66211E-06
v 0.3005214 -0.1403064 -0.2818501
v 0.3005214 -0.1403064 0.2818575
v 0.2682334 -0.3605072 0.2515753
v 0.3005214 0.1402991 -0.2818501
v 0.363054 0.1404309 3.66211E-06
v 0.324057 0.3604999 3.66211E-06
v 0.2682334 0.3604999 -0.2515679
v 0.3005214 0.1402991 0.2818575
v 0.2682334 0.3604999 0.2515753
v 0 0.3604999 0.3240608
v -0.3005214 0.1402991 0.2818575
v -0.2682334 0.3604999 0.2515753
v 0 0.1404309 0.3630579
v 0 -0.1404382 0.3630579
v -0.3005214 -0.1403064 0.2818575
v -0.2682334 -0.3605072 0.2515753
v 0 -0.3605072 0.3240608
v 0.2682334 0.3604999 0.2515753
v 0 0.1404309 0.3630579
v 0 0.3604999 0.3240608
v 0.3005214 0.1402991 0.2818575
v 0 -0.1404382 0.3630579
v 0.3005214 -0.1403064 0.2818575
v 0.2682334 -0.3605072 0.2515753
v 0 -0.3605072 0.3240608
v -0.3005214 -0.1403064 -0.2818501
v 0 -0.3605072 -0.3240534
v 0 -0.1404382 -0.3630506
v -0.2682334 -0.3605072 -0.2515679
v -0.3005214 0.1402991 -0.2818501
v 0 0.1404309 -0.3630506
v 0 0.3604999 -0.3240534
v -0.2682334 0.3604999 -0.2515679
v 0.2682334 -0.3605072 -0.2515679
v 0 -0.1404382 -0.3630506
v 0 -0.3605072 -0.3240534
v 0.3005214 -0.1403064 -0.2818501
v 0.3005214 0.1402991 -0.2818501
v 0 0.1404309 -0.3630506
v 0.2682334 0.3604999 -0.2515679
v 0 0.3604999 -0.3240534
v 0 0.4580328 -0.3509777
v -0.2902004 0.379292 -0.2725562
v 0 0.379292 -0.3509777
v -0.2902004 0.4580328 -0.2725562
v 0.2902004 0.379292 -0.2725562
v 0 0.4580328 -0.3509777
v 0 0.379292 -0.3509777
v 0.2902004 0.4580328 -0.2725562
v -0.3506812 0.4580328 3.66211E-06
v -0.2902004 0.379292 -0.2725562
v -0.2902004 0.4580328 -0.2725562
v -0.3506812 0.379292 3.66211E-06
v -0.2902004 0.4580328 0.2725635
v -0.2902004 0.379292 0.2725635
v 0.3506812 0.4580328 3.66211E-06
v 0.2902004 0.379292 -0.2725562
v 0.3506812 0.379292 3.66211E-06
v 0.2902004 0.4580328 -0.2725562
v 0.2902004 0.4580328 0.2725635
v 0.2902004 0.379292 0.2725635
v -0.3506812 -0.4580402 3.66211E-06
v -0.2902004 -0.3792993 -0.2725562
v -0.3506812 -0.3792993 3.66211E-06
v -0.2902004 -0.4580402 -0.2725562
v -0.2902004 -0.4580402 0.2725635
v -0.2902004 -0.3792993 0.2725635
v 0.2902004 -0.3792993 -0.2725562
v 0.3506812 -0.4580402 3.66211E-06
v 0.3506812 -0.3792993 3.66211E-06
v 0.2902004 -0.4580402 -0.2725562
v 0.2902004 -0.4580402 0.2725635
v 0.2902004 -0.3792993 0.2725635
v -0.2902004 -0.3792993 -0.2725562
v 0 -0.4580402 -0.3509777
v 0 -0.3792993 -0.3509777
v -0.2902004 -0.4580402 -0.2725562
v 0 -0.4580402 -0.3509777
v 0.2902004 -0.3792993 -0.2725562
v 0 -0.3792993 -0.3509777
v 0.2902004 -0.4580402 -0.2725562
v 0 0.4580328 0.3509851
v -0.2902004 0.379292 0.2725635
v -0.2902004 0.4580328 0.2725635
v 0 0.379292 0.3509851
v 0.2902004 0.4580328 0.2725635
v 0 0.379292 0.3509851
v 0 0.4580328 0.3509851
v 0.2902004 0.379292 0.2725635
v 0 -0.4580402 0.3509851
v -0.2902004 -0.3792993 0.2725635
v 0 -0.3792993 0.3509851
v -0.2902004 -0.4580402 0.2725635
v 0 -0.4580402 0.3509851
v 0.2902004 -0.3792993 0.2725635
v 0.2902004 -0.4580402 0.2725635
v 0 -0.3792993 0.3509851
v 0 0.3604999 -0.3240534
v -0.2902004 0.379292 -0.2725562
v -0.2682334 0.3604999 -0.2515679
v 0 0.379292 -0.3509777
v 0.2682334 0.3604999 -0.2515679
v 0 0.379292 -0.3509777
v 0 0.3604999 -0.3240534
v 0.2902004 0.379292 -0.2725562
v -0.2682334 0.3604999 -0.2515679
v -0.3506812 0.379292 3.66211E-06
v -0.324057 0.3604999 3.66211E-06
v -0.2902004 0.379292 -0.2725562
v -0.2682334 0.3604999 0.2515753
v -0.2902004 0.379292 0.2725635
v 0.324057 0.3604999 3.66211E-06
v 0.2902004 0.379292 -0.2725562
v 0.2682334 0.3604999 -0.2515679
v 0.3506812 0.379292 3.66211E-06
v 0.2902004 0.379292 0.2725635
v 0.2682334 0.3604999 0.2515753
v 0 0.4580328 -0.3509777
v -0.3506812 0.4580328 3.66211E-06
v -0.2902004 0.4580328 -0.2725562
v -0.2902004 0.4580328 0.2725635
v 0 0.4580328 0.3509851
v 0.3506812 0.4580328 3.66211E-06
v 0 0.4580328 -0.3509777
v 0.2902004 0.4580328 -0.2725562
v 0.2902004 0.4580328 0.2725635
v 0 0.4580328 0.3509851
v -0.2682334 -0.3605072 -0.2515679
v -0.3506812 -0.3792993 3.66211E-06
v -0.2902004 -0.3792993 -0.2725562
v -0.324057 -0.3605072 3.66211E-06
v -0.2682334 -0.3605072 0.2515753
v -0.2902004 -0.3792993 0.2725635
v 0.3506812 -0.3792993 3.66211E-06
v 0.2682334 -0.3605072 -0.2515679
v 0.2902004 -0.3792993 -0.2725562
v 0.324057 -0.3605072 3.66211E-06
v 0.2682334 -0.3605072 0.2515753
v 0.2902004 -0.3792993 0.2725635
v 0 -0.4580402 -0.3509777
v -0.2902004 -0.4580402 -0.2725562
v -0.3506812 -0.4580402 3.66211E-06
v -0.2902004 -0.4580402 0.2725635
v 0 -0.4580402 0.3509851
v 0.2902004 -0.4580402 -0.2725562
v 0 -0.4580402 -0.3509777
v 0.3506812 -0.4580402 3.66211E-06
v 0.2902004 -0.4580402 0.2725635
v 0 -0.4580402 0.3509851
v -0.2902004 -0.3792993 -0.2725562
v 0 -0.3605072 -0.3240534
v -0.2682334 -0.3605072 -0.2515679
v 0 -0.3792993 -0.3509777
v 0.2682334 -0.3605072 -0.2515679
v 0 -0.3792993 -0.3509777
v 0.2902004 -0.3792993 -0.2725562
v 0 -0.3605072 -0.3240534
v -0.2902004 0.379292 0.2725635
v 0 0.3604999 0.3240608
v -0.2682334 0.3604999 0.2515753
v 0 0.379292 0.3509851
v 0 0.3604999 0.3240608
v 0.2902004 0.379292 0.2725635
v 0.2682334 0.3604999 0.2515753
v 0 0.379292 0.3509851
v 0 -0.3605072 0.3240608
v -0.2902004 -0.3792993 0.2725635
v -0.2682334 -0.3605072 0.2515753
v 0 -0.3792993 0.3509851
v 0 -0.3792993 0.3509851
v 0.2682334 -0.3605072 0.2515753
v 0.2902004 -0.3792993 0.2725635
v 0 -0.3605072 0.3240608

vn 0.9962469 0.08655765 0
vn 0.9619648 0.1704348 0.213485
vn 0.972912 0.0826637 0.2158909
vn 0.9846598 0.1744855 0
vn 0.9619648 0.1704348 -0.213485
vn 0.972912 0.0826637 -0.2158909
vn 0.9962459 -0.08656868 0
vn 0.9729136 -0.0826734 0.2158798
vn 0.9846638 -0.1744623 0
vn 0.9619744 -0.1704098 0.2134618
vn 0.9729136 -0.0826734 -0.2158798
vn 0.9619744 -0.1704098 -0.2134618
vn -0.9962464 0.08656316 -5.546896E-06
vn -0.9619648 0.1704348 0.213485
vn -0.9846618 0.1744739 -1.281489E-05
vn -0.972912 0.08266369 0.2158909
vn -0.9729136 0.0826734 -0.2158798
vn -0.9619744 0.1704098 -0.2134618
vn -0.9729136 -0.0826734 0.2158798
vn -0.9962459 -0.08656868 0
vn -0.9846638 -0.1744623 0
vn -0.9619744 -0.1704098 0.2134618
vn -0.9729136 -0.0826734 -0.2158798
vn -0.9619744 -0.1704098 -0.2134618
vn 1.250687E-05 -0.1744746 -0.9846618
vn 0.2599956 -0.08168244 -0.9621487
vn 0.2571425 -0.168564 -0.9515586
vn 5.327396E-06 -0.08635444 -0.9962644
vn 0 0.08634915 -0.9962649
vn 0.2600063 0.08167326 -0.9621467
vn 0.2571647 0.1685879 -0.9515485
vn 0 0.1744857 -0.9846598
vn -0.2571647 -0.1685879 -0.9515485
vn 5.327396E-06 -0.08635444 -0.9962644
vn 1.250687E-05 -0.1744746 -0.9846618
vn -0.2600063 -0.08167325 -0.9621467
vn 0 0.08634915 -0.9962649
vn -0.2600063 0.08167326 -0.9621467
vn -0.2571647 0.1685879 -0.9515485
vn 0 0.1744857 -0.9846598
vn 0.2599956 0.08168245 0.9621487
vn 1.250687E-05 0.1744746 0.9846618
vn 5.329897E-06 0.08635444 0.9962644
vn 0.2571425 0.168564 0.9515586
vn 0.2599956 -0.08168244 0.9621487
vn 5.327396E-06 -0.08635444 0.9962644
vn 1.250687E-05 -0.1744746 0.9846618
vn 0.2571425 -0.168564 0.9515586
vn -0.2571647 0.1685879 0.9515485
vn 5.329897E-06 0.08635444 0.9962644
vn 1.250687E-05 0.1744746 0.9846618
vn -0.2600063 0.08167326 0.9621467
vn -0.2600063 -0.08167325 0.9621467
vn 5.327396E-06 -0.08635444 0.9962644
vn -0.2571647 -0.1685879 0.9515485
vn 1.250687E-05 -0.1744746 0.9846618
vn 0.260875 0 0.9653726
vn 0.260875 0 0.9653726
vn 0.260875 0 0.9653726
vn 0.260875 0 0.9653726
vn -0.260875 0 0.9653726
vn -0.260875 0 0.9653726
vn -0.260875 0 0.9653726
vn -0.260875 0 0.9653726
vn 1 0 0
vn 0.9762538 0 0.2166303
vn 0.9762538 0 0.2166303
vn 1 0 0
vn 0.9762538 0 -0.2166303
vn 0.9762538 0 -0.2166303
vn -1 0 0
vn -0.9762538 0 0.2166303
vn -1 0 0
vn -0.9762538 0 0.2166303
vn -0.9762538 0 -0.2166303
vn -0.9762538 0 -0.2166303
vn 1 0 0
vn 0.9762538 0 0.2166303
vn 1 0 0
vn 0.9762538 0 0.2166303
vn 0.9762538 0 -0.2166303
vn 0.9762538 0 -0.2166303
vn -0.9762538 0 0.2166303
vn -1 0 0
vn -1 0 0
vn -0.9762538 0 0.2166303
vn -0.9762538 0 -0.2166303
vn -0.9762538 0 -0.2166303
vn 0.260875 0 0.9653726
vn 0.260875 0 0.9653726
vn 0.260875 0 0.9653726
vn 0.260875 0 0.9653726
vn -0.260875 0 0.9653726
vn -0.260875 0 0.9653726
vn -0.260875 0 0.9653726
vn -0.260875 0 0.9653726
vn 0.260875 0 -0.9653726
vn 0.260875 0 -0.9653726
vn 0.260875 0 -0.9653726
vn 0.260875 0 -0.9653726
vn -0.260875 0 -0.9653726
vn -0.260875 0 -0.9653726
vn -0.260875 0 -0.9653726
vn -0.260875 0 -0.9653726
vn 0.260875 0 -0.9653726
vn 0.260875 0 -0.9653726
vn 0.260875 0 -0.9653726
vn 0.260875 0 -0.9653726
vn -0.260875 0 -0.9653726
vn -0.260875 0 -0.9653726
vn -0.260875 0 -0.9653726
vn -0.260875 0 -0.9653726
vn -1.68814E-07 0.8200165 0.5723398
vn 0.1528472 0.8103826 0.5656128
vn 0.1528472 0.8103827 0.5656126
vn -1.27256E-07 0.8200167 0.5723398
vn -0.152847 0.8103825 0.5656129
vn -1.27256E-07 0.8200167 0.5723398
vn -1.68814E-07 0.8200165 0.5723398
vn -0.1528469 0.8103826 0.5656129
vn 0.571989 0.8103819 0.1269241
vn 0.576653 0.8169892 0
vn 0.576653 0.8169892 0
vn 0.571989 0.8103819 0.1269241
vn 0.571989 0.8103819 -0.1269241
vn 0.571989 0.8103819 -0.1269241
vn -0.5766529 0.8169892 0
vn -0.571989 0.8103819 0.1269242
vn -0.571989 0.8103819 0.1269242
vn -0.5766529 0.8169892 0
vn -0.571989 0.8103819 -0.1269242
vn -0.571989 0.8103819 -0.1269242
vn 0 -1 0
vn 0 -1 0
vn 0 -1 0
vn 0 -1 0
vn 0 -1 0
vn 0 -1 0
vn 0 -1 0
vn 0 -1 0
vn 0 -1 0
vn 0 -1 0
vn 0.571989 -0.8103819 0.1269241
vn 0.576653 -0.8169892 0
vn 0.571989 -0.8103819 0.1269241
vn 0.576653 -0.8169892 0
vn 0.571989 -0.8103819 -0.1269241
vn 0.571989 -0.8103819 -0.1269241
vn -0.576653 -0.8169892 0
vn -0.571989 -0.8103819 0.1269241
vn -0.571989 -0.8103819 0.1269241
vn -0.576653 -0.8169892 0
vn -0.571989 -0.8103819 -0.1269241
vn -0.571989 -0.8103819 -0.1269241
vn 0 1 0
vn 0 1 0
vn 0 1 0
vn 0 1 0
vn 0 1 0
vn 0 1 0
vn 0 1 0
vn 0 1 0
vn 0 1 0
vn 0 1 0
vn 0.1528472 -0.8103826 0.5656128
vn -1.68814E-07 -0.8200165 0.5723398
vn 0.1528472 -0.8103827 0.5656126
vn -1.279514E-07 -0.8200166 0.5723398
vn -0.152847 -0.8103825 0.5656129
vn -1.279514E-07 -0.8200166 0.5723398
vn -0.1528469 -0.8103826 0.5656129
vn -1.68814E-07 -0.8200165 0.5723398
vn 0.1528472 0.8103826 -0.5656128
vn 0 0.8200166 -0.5723398
vn 0.1528472 0.8103827 -0.5656126
vn 0 0.8200165 -0.5723399
vn 0 0.8200166 -0.5723398
vn -0.1528472 0.8103826 -0.5656128
vn -0.1528472 0.8103827 -0.5656126
vn 0 0.8200165 -0.5723399
vn -1.68814E-07 -0.8200165 -0.5723398
vn 0.1528472 -0.8103826 -0.5656128
vn 0.1528472 -0.8103827 -0.5656126
vn -1.279514E-07 -0.8200166 -0.5723398
vn -1.279514E-07 -0.8200166 -0.5723398
vn -0.152847 -0.8103825 -0.5656129
vn -0.1528469 -0.8103826 -0.5656129
vn -1.68814E-07 -0.8200165 -0.5723398

vt 0.923649 0.078498
vt 0.955881 0.050549
vt 0.957283 0.078067
vt 0.923454 0.052037
vt 0.891047 0.051006
vt 0.890019 0.078529
vt 0.923882 0.111428
vt 0.957721 0.111276
vt 0.924155 0.138147
vt 0.956995 0.139093
vt 0.890038 0.111724
vt 0.89121 0.13953
vt 0.923649 0.078498
vt 0.955881 0.050549
vt 0.923454 0.052037
vt 0.957283 0.078067
vt 0.890019 0.078529
vt 0.891047 0.051006
vt 0.957721 0.111276
vt 0.923882 0.111428
vt 0.924155 0.138147
vt 0.956995 0.139093
vt 0.890038 0.111724
vt 0.89121 0.13953
vt 0.854733 0.142133
vt 0.890038 0.111724
vt 0.89121 0.13953
vt 0.851324 0.112972
vt 0.8517 0.077142
vt 0.890019 0.078529
vt 0.891047 0.051006
vt 0.855098 0.048415
vt 0.89121 0.13953
vt 0.851324 0.112972
vt 0.854733 0.142133
vt 0.890038 0.111724
vt 0.8517 0.077142
vt 0.890019 0.078529
vt 0.891047 0.051006
vt 0.855098 0.048415
vt 0.957283 0.078067
vt 0.991793 0.047466
vt 0.995584 0.076145
vt 0.955881 0.050549
vt 0.957721 0.111276
vt 0.996462 0.111964
vt 0.993486 0.141157
vt 0.956995 0.139093
vt 0.955881 0.050549
vt 0.995584 0.076145
vt 0.991793 0.047466
vt 0.957283 0.078067
vt 0.957721 0.111276
vt 0.996462 0.111964
vt 0.956995 0.139093
vt 0.993486 0.141157
vt 0.99382 0.155507
vt 0.956205 0.143777
vt 0.994233 0.145388
vt 0.955189 0.15393
vt 0.956205 0.143777
vt 0.99382 0.155507
vt 0.994233 0.145388
vt 0.955189 0.15393
vt 0.924126 0.147867
vt 0.956205 0.143777
vt 0.955189 0.15393
vt 0.924074 0.140426
vt 0.893151 0.15437
vt 0.89199 0.144235
vt 0.924126 0.147867
vt 0.956205 0.143777
vt 0.924074 0.140426
vt 0.955189 0.15393
vt 0.893151 0.15437
vt 0.89199 0.144235
vt 0.923458 0.0424
vt 0.955095 0.045935
vt 0.923521 0.049757
vt 0.953884 0.035986
vt 0.892934 0.036439
vt 0.891855 0.046412
vt 0.955095 0.045935
vt 0.923458 0.0424
vt 0.923521 0.049757
vt 0.953884 0.035986
vt 0.892934 0.036439
vt 0.891855 0.046412
vt 0.955095 0.045935
vt 0.991757 0.033367
vt 0.992442 0.043287
vt 0.953884 0.035986
vt 0.991757 0.033367
vt 0.955095 0.045935
vt 0.992442 0.043287
vt 0.953884 0.035986
vt 0.854566 0.156496
vt 0.89199 0.144235
vt 0.893151 0.15437
vt 0.854009 0.146389
vt 0.893151 0.15437
vt 0.854009 0.146389
vt 0.854566 0.156496
vt 0.89199 0.144235
vt 0.854987 0.034319
vt 0.891855 0.046412
vt 0.854432 0.044258
vt 0.892934 0.036439
vt 0.854987 0.034319
vt 0.891855 0.046412
vt 0.892934 0.036439
vt 0.854432 0.044258
vt 0.993486 0.141157
vt 0.956205 0.143777
vt 0.956995 0.139093
vt 0.994233 0.145388
vt 0.956995 0.139093
vt 0.994233 0.145388
vt 0.993486 0.141157
vt 0.956205 0.143777
vt 0.956995 0.139093
vt 0.924074 0.140426
vt 0.924155 0.138147
vt 0.956205 0.143777
vt 0.89121 0.13953
vt 0.89199 0.144235
vt 0.924155 0.138147
vt 0.956205 0.143777
vt 0.956995 0.139093
vt 0.924074 0.140426
vt 0.89199 0.144235
vt 0.89121 0.13953
vt 0.964188 0.187331
vt 0.924126 0.147867
vt 0.955189 0.15393
vt 0.893151 0.15437
vt 0.88426 0.187423
vt 0.924126 0.147867
vt 0.964188 0.187331
vt 0.955189 0.15393
vt 0.893151 0.15437
vt 0.88426 0.187423
vt 0.955881 0.050549
vt 0.923521 0.049757
vt 0.955095 0.045935
vt 0.923454 0.052037
vt 0.891047 0.051006
vt 0.891855 0.046412
vt 0.923521 0.049757
vt 0.955881 0.050549
vt 0.955095 0.045935
vt 0.923454 0.052037
vt 0.891047 0.051006
vt 0.891855 0.046412
vt 0.962253 0.003055
vt 0.953884 0.035986
vt 0.923458 0.0424
vt 0.892934 0.036439
vt 0.883732 0.004094
vt 0.953884 0.035986
vt 0.962253 0.003055
vt 0.923458 0.0424
vt 0.892934 0.036439
vt 0.883732 0.004094
vt 0.955095 0.045935
vt 0.991793 0.047466
vt 0.955881 0.050549
vt 0.992442 0.043287
vt 0.955881 0.050549
vt 0.992442 0.043287
vt 0.955095 0.045935
vt 0.991793 0.047466
vt 0.89199 0.144235
vt 0.854733 0.142133
vt 0.89121 0.13953
vt 0.854009 0.146389
vt 0.854733 0.142133
vt 0.89199 0.144235
vt 0.89121 0.13953
vt 0.854009 0.146389
vt 0.855098 0.048415
vt 0.891855 0.046412
vt 0.891047 0.051006
vt 0.854432 0.044258
vt 0.854432 0.044258
vt 0.891047 0.051006
vt 0.891855 0.046412
vt 0.855098 0.048415

usemtl MAT_Prop_01
f 1/1/1 2/2/2 3/3/3
f 2/2/2 1/1/1 4/4/4
f 1/1/1 5/5/5 4/4/4
f 5/5/5 1/1/1 6/6/6
f 3/3/3 7/7/7 1/1/1
f 7/7/7 6/6/6 1/1/1
f 7/7/7 3/3/3 8/8/8
f 8/8/8 9/9/9 7/7/7
f 9/9/9 8/8/8 10/10/10
f 9/9/9 11/11/11 7/7/7
f 6/6/6 7/7/7 11/11/11
f 11/11/11 9/9/9 12/12/12
f 13/13/13 14/14/14 15/15/15
f 14/14/14 13/13/13 16/16/16
f 15/15/15 17/17/17 13/13/13
f 17/17/17 15/15/15 18/18/18
f 13/13/13 19/19/19 16/16/16
f 19/19/19 13/13/13 20/20/20
f 21/21/21 19/19/19 20/20/20
f 19/19/19 21/21/21 22/22/22
f 23/23/23 21/21/21 20/20/20
f 13/13/13 23/23/23 20/20/20
f 23/23/23 13/13/13 17/17/17
f 21/21/21 23/23/23 24/24/24
f 25/25/25 26/26/26 27/27/27
f 26/26/26 25/25/25 28/28/28
f 29/29/29 26/26/26 28/28/28
f 26/26/26 29/29/29 30/30/30
f 29/29/29 31/31/31 30/30/30
f 31/31/31 29/29/29 32/32/32
f 33/33/33 34/34/34 35/35/35
f 34/34/34 33/33/33 36/36/36
f 36/36/36 37/37/37 34/34/34
f 37/37/37 36/36/36 38/38/38
f 39/39/39 37/37/37 38/38/38
f 37/37/37 39/39/39 40/40/40
f 41/41/41 42/42/42 43/43/43
f 42/42/42 41/41/41 44/44/44
f 43/43/43 45/45/45 41/41/41
f 45/45/45 43/43/43 46/46/46
f 47/47/47 45/45/45 46/46/46
f 45/45/45 47/47/47 48/48/48
f 49/49/49 50/50/50 51/51/51
f 50/50/50 49/49/49 52/52/52
f 53/53/53 50/50/50 52/52/52
f 50/50/50 53/53/53 54/54/54
f 55/55/55 54/54/54 53/53/53
f 54/54/54 55/55/55 56/56/56
f 57/57/57 58/58/58 59/59/59
f 58/58/58 57/57/57 60/60/60
f 61/61/61 62/62/62 63/63/63
f 62/62/62 61/61/61 64/64/64
f 65/65/65 66/66/66 67/67/67
f 66/66/66 65/65/65 68/68/68
f 69/69/69 68/68/68 65/65/65
f 68/68/68 69/69/69 70/70/70
f 71/71/71 72/72/72 73/73/73
f 72/72/72 71/71/71 74/74/74
f 73/73/73 75/75/75 71/71/71
f 75/75/75 73/73/73 76/76/76
f 77/77/77 78/78/78 79/79/79
f 78/78/78 77/77/77 80/80/80
f 79/79/79 81/81/81 77/77/77
f 81/81/81 79/79/79 82/82/82
f 83/83/83 84/84/84 85/85/85
f 84/84/84 83/83/83 86/86/86
f 87/87/87 85/85/85 84/84/84
f 85/85/85 87/87/87 88/88/88
f 89/89/89 90/90/90 91/91/91
f 90/90/90 89/89/89 92/92/92
f 93/93/93 94/94/94 95/95/95
f 94/94/94 93/93/93 96/96/96
f 97/97/97 98/98/98 99/99/99
f 98/98/98 97/97/97 100/100/100
f 101/101/101 102/102/102 103/103/103
f 102/102/102 101/101/101 104/104/104
f 105/105/105 106/106/106 107/107/107
f 106/106/106 105/105/105 108/108/108
f 109/109/109 110/110/110 111/111/111
f 110/110/110 109/109/109 112/112/112
f 113/113/113 114/114/114 115/115/115
f 114/114/114 113/113/113 116/116/116
f 117/117/117 118/118/118 119/119/119
f 118/118/118 117/117/117 120/120/120
f 121/121/121 122/122/122 123/123/123
f 122/122/122 121/121/121 124/124/124
f 122/122/122 125/125/125 123/123/123
f 125/125/125 122/122/122 126/126/126
f 127/127/127 128/128/128 129/129/129
f 128/128/128 127/127/127 130/130/130
f 127/127/127 131/131/131 130/130/130
f 131/131/131 127/127/127 132/132/132
f 133/133/133 134/134/134 135/135/135
f 133/133/133 136/136/136 134/134/134
f 133/133/133 137/137/137 136/136/136
f 138/138/138 139/139/139 140/140/140
f 141/141/141 139/139/139 138/138/138
f 142/142/142 139/139/139 141/141/141
f 143/143/143 144/144/144 145/145/145
f 144/144/144 143/143/143 146/146/146
f 147/147/147 144/144/144 146/146/146
f 144/144/144 147/147/147 148/148/148
f 149/149/149 150/150/150 151/151/151
f 150/150/150 149/149/149 152/152/152
f 149/149/149 153/153/153 152/152/152
f 153/153/153 149/149/149 154/154/154
f 155/155/155 156/156/156 157/157/157
f 155/155/155 157/157/157 158/158/158
f 155/155/155 158/158/158 159/159/159
f 160/160/160 161/161/161 162/162/162
f 162/162/162 161/161/161 163/163/163
f 163/163/163 161/161/161 164/164/164
f 165/165/165 166/166/166 167/167/167
f 166/166/166 165/165/165 168/168/168
f 169/169/169 170/170/170 171/171/171
f 170/170/170 169/169/169 172/172/172
f 173/173/173 174/174/174 175/175/175
f 174/174/174 173/173/173 176/176/176
f 177/177/177 178/178/178 179/179/179
f 178/178/178 177/177/177 180/180/180
f 181/181/181 182/182/182 183/183/183
f 182/182/182 181/181/181 184/184/184
f 185/185/185 186/186/186 187/187/187
f 186/186/186 185/185/185 188/188/188
