#OBJ_Barrier_01.obj
#Friday, January 12, 2018
#3:53:28 PM
#-------

mtllib OBJ_Barrier_01.mtl
#OBJ_Barrier_01
#-------
g OBJ_Barrier_01
v -0.3537261 0.8964697 -0.1814384
v -0.2689036 0.8095166 -0.193711
v -0.248926 0.8964697 -0.1162299
v -0.5867492 0.8095166 -0.1252382
v -0.509268 0.8964697 -0.1452158
v -0.5744766 0.8964697 -0.04041572
v -0.2127033 0.8964697 0.03931213
v -0.2004308 0.8095166 0.1241346
v -0.2779119 0.8964697 0.1441122
v -0.5182763 0.8095166 0.1926074
v -0.538254 0.8964697 0.1151263
v -0.4334539 0.8964697 0.1803348
v -0.2779119 0.8964697 0.1441122
v -0.3537261 0.8964697 -0.1814384
v -0.2127033 0.8964697 0.03931213
v -0.248926 0.8964697 -0.1162299
v -0.4334539 0.8964697 0.1803348
v -0.5744766 0.8964697 -0.04041572
v -0.509268 0.8964697 -0.1452158
v -0.538254 0.8964697 0.1151263
v -0.5182763 0.8095166 0.1926074
v -0.5165799 -0.001513666 0.1224381
v -0.538254 0.8964697 0.1151263
v -0.5744766 0.8964697 -0.04041572
v -0.5867492 0.8095166 -0.1252382
v -0.5165799 -0.001513666 0.1224381
v -0.5165799 -0.001513677 -0.1235416
v -0.5165799 -0.001513677 -0.1235416
v -0.509268 0.8964697 -0.1452158
v -0.5867492 0.8095166 -0.1252382
v -0.3537261 0.8964697 -0.1814384
v -0.2689036 0.8095166 -0.193711
v -0.5165799 -0.001513677 -0.1235416
v -0.2706001 -0.001513677 -0.1235416
v -0.2689036 0.8095166 -0.193711
v -0.2706001 -0.001513677 -0.1235416
v -0.248926 0.8964697 -0.1162299
v -0.2127033 0.8964697 0.03931213
v -0.2004308 0.8095166 0.1241346
v -0.2706001 -0.001513666 0.1224381
v -0.2706001 -0.001513666 0.1224381
v -0.2779119 0.8964697 0.1441122
v -0.2004308 0.8095166 0.1241346
v -0.4334539 0.8964697 0.1803348
v -0.5182763 0.8095166 0.1926074
v -0.2706001 -0.001513666 0.1224381
v -0.5165799 -0.001513666 0.1224381
v 0.1473016 0.6138525 -0.1227629
v 0.1012204 -0.001513666 0.1310474
v 0.09183243 0.6138525 0.1771285
v 0.1012204 -0.001513678 -0.1321509
v 0.03209129 0.6736792 0.1698098
v 0.1473016 0.6138525 -0.1227629
v 0.09183243 0.6138525 0.1771285
v 0.09295318 0.6736792 -0.1336489
v -0.1657767 0.6138525 -0.1069376
v -0.1537104 0.6736792 0.1325454
v -0.2080589 0.6138525 0.1216594
v -0.1537104 0.6736792 0.1325454
v -0.1071061 0.6736792 -0.09982527
v -0.02176048 0.6736792 -0.1566559
v -0.1657767 0.6138525 -0.1069376
v -0.1536927 0.5415576 -0.1728185
v -0.1071061 0.6736792 -0.09982527
v 0.09295318 0.6736792 -0.1336489
v 0.03209129 0.6736792 0.1698098
v -0.02176048 0.6736792 -0.1566559
v -0.1071061 0.6736792 -0.09982527
v -0.1537104 0.6736792 0.1325454
v -0.1619779 -0.001513678 -0.1321509
v 0.1012204 -0.001513678 -0.1321509
v -0.1536927 0.5415576 -0.1728185
v -0.02176048 0.6736792 -0.1566559
v 0.09295318 0.6736792 -0.1336489
v 0.1473016 0.6138525 -0.1227629
v 0.09183243 0.6138525 0.1771285
v -0.2080589 0.6138525 0.1216594
v 0.03209129 0.6736792 0.1698098
v -0.1537104 0.6736792 0.1325454
v -0.1619779 -0.001513666 0.1310474
v -0.2080589 0.6138525 0.1216594
v 0.1012204 -0.001513666 0.1310474
v -0.2080589 0.6138525 0.1216594
v -0.1536927 0.5415576 -0.1728185
v -0.1657767 0.6138525 -0.1069376
v -0.1619779 -0.001513678 -0.1321509
v -0.2080589 0.6138525 0.1216594
v -0.1619779 -0.001513666 0.1310474
v 0.1911646 0.5772314 -0.1268961
v 0.2367932 0.6736792 -0.09493996
v 0.1923583 0.6736792 -0.03642529
v 0.2337834 0.6258886 -0.136585
v 0.2853024 0.6492236 -0.1454822
v 0.2874829 0.6736792 -0.1245459
v 0.3987398 0.6736792 -0.1629363
v 0.5145534 0.6736792 0.03532171
v 0.5157471 0.5772314 0.1257925
v 0.4312671 0.6736792 0.144998
v 0.2267098 0.5836743 0.1625413
v 0.2087875 0.6736792 0.08370569
v 0.3111359 0.6736792 0.1614273
v 0.3987398 0.6736792 -0.1629363
v 0.5145534 0.6736792 0.03532171
v 0.4312671 0.6736792 0.144998
v 0.2874829 0.6736792 -0.1245459
v 0.2367932 0.6736792 -0.09493996
v 0.1923583 0.6736792 -0.03642529
v 0.2087875 0.6736792 0.08370569
v 0.3111359 0.6736792 0.1614273
v 0.4858107 0.6736792 -0.1748443
v 0.2631772 -0.001513676 -0.0908304
v 0.2337834 0.6258886 -0.136585
v 0.1911646 0.5772314 -0.1268961
v 0.2853024 0.6492236 -0.1454822
v 0.3987398 0.6736792 -0.1629363
v 0.4858107 0.6736792 -0.1748443
v 0.2631772 -0.001513676 -0.0908304
v 0.4437345 -0.001513676 -0.0908304
v 0.2267098 0.5836743 0.1625413
v 0.2631772 -0.001513668 0.08972689
v 0.2087875 0.6736792 0.08370569
v 0.1923583 0.6736792 -0.03642529
v 0.1911646 0.5772314 -0.1268961
v 0.2631772 -0.001513668 0.08972689
v 0.2631772 -0.001513676 -0.0908304
v 0.5157471 0.5772314 0.1257925
v 0.4437345 -0.001513668 0.08972689
v 0.4312671 0.6736792 0.144998
v 0.3111359 0.6736792 0.1614273
v 0.2267098 0.5836743 0.1625413
v 0.4437345 -0.001513668 0.08972689
v 0.2631772 -0.001513668 0.08972689
v 0.4858107 0.6736792 -0.1748443
v 0.4437345 -0.001513676 -0.0908304
v 0.5145534 0.6736792 0.03532171
v 0.5157471 0.5772314 0.1257925
v 0.4437345 -0.001513668 0.08972689
v -0.5408092 -0.001513683 -0.2629787
v -0.5556605 0.1462939 -0.183385
v -0.5408092 -0.00151368 -0.1876363
v -0.5556605 0.1462939 -0.2672301
v 0.4828964 0.2386572 -0.3819295
v 0.4232178 0.1769409 -0.4688465
v 0.4769263 0.1257837 -0.4741887
v 0.4300075 0.2341406 -0.4196611
v 0.3691542 0.1988037 -0.4600979
v 0.3741202 0.2319775 -0.4313897
v 0.303703 0.2306152 -0.4314534
v 0.3006696 0.2121948 -0.4473889
v 0.1285901 0.2289013 -0.4135287
v 0.4850549 -0.001513692 -0.461398
v 0.5620947 -0.001513679 -0.151494
v 0.4769263 0.1257837 -0.4741887
v 0.4828964 0.2386572 -0.3819295
v 0.5082068 0.2583301 -0.175048
v -0.5239071 0.1822168 -0.2756123
v -0.5556605 0.1462939 -0.183385
v -0.5556605 0.1462939 -0.2672301
v -0.522718 0.1837158 -0.182134
v -0.4177062 0.232915 -0.1801958
v -0.4207095 0.2289013 -0.2993759
v 0.5082068 0.2583301 -0.175048
v -0.4177062 0.232915 -0.1801958
v -0.522718 0.1837158 -0.182134
v -0.5556605 0.1462939 -0.2672301
v -0.5408092 -0.001513683 -0.2629787
v -0.5239071 0.1822168 -0.2756123
v -0.4207095 0.2289013 -0.2993759
v 0.1285901 0.2289013 -0.4135287
v 0.3006696 0.2121948 -0.4473889
v 0.3691542 0.1988037 -0.4600979
v 0.4232178 0.1769409 -0.4688465
v 0.4769263 0.1257837 -0.4741887
v 0.4850549 -0.001513692 -0.461398
v 0.5082068 0.2583301 -0.175048
v 0.4300075 0.2341406 -0.4196611
v 0.4828964 0.2386572 -0.3819295
v 0.3741202 0.2319775 -0.4313897
v 0.303703 0.2306152 -0.4314534
v 0.1285901 0.2289013 -0.4135287
v -0.4207095 0.2289013 -0.2993759
v 0.5620947 -0.001513679 -0.151494
v -0.4177062 0.232915 -0.1801958
v 0.5082068 0.2583301 -0.175048
v -0.522718 0.1837158 -0.182134
v -0.4177062 0.232915 -0.1801958
v -0.5408092 -0.00151368 -0.1876363
v -0.5556605 0.1462939 -0.183385
v -0.6 -6.838561E-05 -0.5999994
v 0.6 -6.833315E-05 0.6000005
v -0.6 -6.833315E-05 0.6000005
v 0.6 -6.838561E-05 -0.5999994

vn -0.4459426 -0.5361708 0.7166981
vn -0.4459426 -0.5361708 0.7166981
vn -0.4459426 -0.5361707 0.7166981
vn 0.716698 -0.5361708 0.4459428
vn 0.716698 -0.5361708 0.4459428
vn 0.716698 -0.5361708 0.4459428
vn -0.7166981 -0.5361705 -0.4459429
vn -0.7166981 -0.5361705 -0.4459429
vn -0.7166981 -0.5361705 -0.4459429
vn 0.4459428 -0.5361709 -0.7166979
vn 0.4459428 -0.5361709 -0.7166979
vn 0.4459428 -0.5361709 -0.7166979
vn 0 -1 4.371139E-08
vn 0 -1 4.371139E-08
vn 0 -1 4.371139E-08
vn 0 -1 4.371139E-08
vn 0 -1 4.371139E-08
vn 0 -1 4.371139E-08
vn 0 -1 4.371139E-08
vn 0 -1 4.371139E-08
vn 0.9737104 0.02165552 -0.2267573
vn 0.9961576 0.07209682 -0.04971938
vn 0.9737104 0.02165552 -0.2267576
vn 0.9783155 0.0258064 -0.2055067
vn 0.9874143 0.03859165 -0.1533744
vn 0.9961576 0.07209682 -0.04971938
vn 0.9962781 0.08619675 -3.767779E-09
vn 0.04971938 0.07209691 0.9961576
vn 0.2267574 0.02165562 0.9737104
vn 0.2267573 0.02165562 0.9737104
vn 0.2055067 0.02580645 0.9783155
vn 0.1533747 0.03859165 0.9874142
vn 0.04971938 0.07209691 0.9961576
vn 0 0.08619685 0.9962781
vn -0.9737104 0.02165555 0.2267574
vn -0.9961576 0.07209686 0.0497194
vn -0.9737104 0.02165554 0.2267579
vn -0.9783154 0.02580647 0.2055068
vn -0.9874143 0.03859179 0.1533742
vn -0.9962781 0.0861968 -3.767782E-09
vn -0.04971937 0.07209682 -0.9961576
vn -0.2267574 0.02165556 -0.9737104
vn -0.2267575 0.02165556 -0.9737104
vn -0.2055066 0.0258064 -0.9783155
vn -0.1533746 0.0385916 -0.9874142
vn -0.04971937 0.07209682 -0.9961576
vn 0 0.08619676 -0.9962781
vn -0.9905833 0.01821127 -0.1356946
vn -0.9972199 0.05312512 -0.05225051
vn -0.9833199 -0.001381606 -0.1818791
vn -0.9972079 0.07467517 -3.264155E-09
vn -0.6982603 -0.7037444 -0.1310585
vn -0.7150223 -0.6846173 -0.1415702
vn -0.6938664 -0.7085747 -0.1283405
vn -0.7192367 -0.6796252 -0.1442506
vn 0.7033638 -0.6971623 0.1387235
vn 0.7163926 -0.6845295 0.1349112
vn 0.7213604 -0.6795858 0.1334259
vn 0.7163926 -0.6845295 0.1349112
vn 0.6985524 -0.7017093 0.1401019
vn 0.4670177 -0.5465588 0.6951028
vn 0.4672457 -0.5485218 0.6934012
vn 0.4675776 -0.5514225 0.6908723
vn 0.4663016 -0.5405409 0.7002701
vn 0 -1 4.371139E-08
vn 0 -1 4.371139E-08
vn 0 -1 4.371139E-08
vn 0 -1 4.371139E-08
vn 0 -1 4.371139E-08
vn 0 0.07467528 0.9972079
vn -0.05206747 0.05317904 0.9972265
vn -0.1077956 0.02382828 0.9938875
vn -0.1705753 0.004692114 0.9853335
vn -0.1966443 -0.0002324583 0.9804749
vn -0.1966445 -0.0002324608 0.9804748
vn 0.1510116 0.03252988 -0.9879966
vn 0.1855999 0.005388904 -0.9826106
vn 0.1831069 0.05497677 -0.9815546
vn 0.1966443 -0.0002325972 -0.9804749
vn 0.05225043 0.05312489 -0.9972199
vn 0.1855999 0.005388904 -0.9826106
vn 0 0.0746749 -0.9972079
vn 0.9905834 0.01821093 0.1356945
vn 0.9833199 -0.001381967 0.1818789
vn 0.9833199 -0.001382254 0.181879
vn 0.9972199 0.05312478 0.05225047
vn 0.9905834 0.01821093 0.1356945
vn 0.9972079 0.0746748 -3.264139E-09
vn 0.6897651 -0.4998697 0.5237884
vn 0.5872322 -0.5524656 0.5915574
vn 0.6897621 -0.4998696 0.5237926
vn 0.5849223 -0.5534866 0.59289
vn 0.3333319 -0.630117 0.7013147
vn 0.3338691 -0.6300181 0.701148
vn 0.2499663 -0.6424527 0.724411
vn -0.6897614 -0.4998701 -0.523793
vn -0.6897614 -0.4998701 -0.523793
vn -0.6897614 -0.4998701 -0.5237929
vn 0.523795 -0.4998658 -0.6897631
vn 0.5237949 -0.4998658 -0.6897631
vn 0.5237949 -0.4998658 -0.6897631
vn 0 -1 4.371139E-08
vn 0 -1 4.371139E-08
vn 0 -1 4.371139E-08
vn 0 -1 4.371139E-08
vn 0 -1 4.371139E-08
vn 0 -1 4.371139E-08
vn 0 -1 4.371139E-08
vn 0 -1 4.371139E-08
vn 0 -1 4.371139E-08
vn 0.03537788 0.1119043 0.993089
vn 0.1350856 0.07836099 0.9877304
vn 0.1350852 0.07836098 0.9877306
vn 0.1350849 0.07836103 0.9877306
vn 0.1350839 0.07836116 0.9877307
vn 0.1122562 0.08616266 0.9899366
vn 0.03537788 0.1119043 0.993089
vn 0 0.1234772 0.9923474
vn 0.9877307 0.07836126 -0.1350838
vn 0.993141 0.1114819 -0.03525274
vn 0.9877307 0.07836126 -0.1350836
vn 0.9892042 0.08092841 -0.1221707
vn 0.9918751 0.08962517 -0.09028313
vn 0.993141 0.1114819 -0.03525274
vn 0.9923475 0.1234767 -5.397339E-09
vn -0.1350861 0.07836098 -0.9877303
vn -0.03526995 0.1115413 -0.9931337
vn -0.1350845 0.07836103 -0.9877306
vn -0.1221543 0.08105583 -0.9891958
vn -0.09065042 0.08979325 -0.9918264
vn -0.03526995 0.1115413 -0.9931337
vn 0 0.123477 -0.9923474
vn -0.9877307 0.07836121 0.1350838
vn -0.993141 0.1114819 0.03525278
vn -0.9892042 0.08092839 0.1221709
vn -0.9918751 0.08962519 0.09028312
vn -0.9923475 0.1234767 -5.397339E-09
vn 0.9949899 0.09997437 -4.370019E-09
vn 0.9949899 0.09997436 -4.370018E-09
vn 0.9949899 0.09997435 -4.370018E-09
vn 0.9949899 0.09997436 -4.370018E-09
vn -0.4536192 -0.54949 0.7016341
vn -0.3376445 -0.590345 0.7331364
vn -0.4536079 -0.5495001 0.7016334
vn -0.3349626 -0.5911525 0.7337156
vn -0.07108499 -0.6466144 0.7594976
vn -0.07052033 -0.6466914 0.7594848
vn 0.04524532 -0.657839 0.7517983
vn 0.04511725 -0.657827 0.7518165
vn 0.08290855 -0.6597756 0.746875
vn -0.9697731 -0.03770214 0.2410783
vn -0.9740104 -0.1310402 0.1847492
vn -0.9711388 -0.08158161 0.2241291
vn -0.9723971 -0.1460995 0.1819309
vn -0.9723345 -0.1892342 0.1369523
vn 0.5793948 -0.815003 0.008475755
vn 0.7501829 -0.66123 0.0007333659
vn 0.7492495 -0.6622878 2.894952E-08
vn 0.595669 -0.8032125 0.005303023
vn 0.2225747 -0.9745979 0.02488936
vn 0.2032364 -0.9785271 0.03434578
vn 0.01989268 -0.996003 0.08707745
vn 0.2225747 -0.9745979 0.02488936
vn 0.595669 -0.8032125 0.005303023
vn 0.2032287 0.04854771 0.977927
vn 0.2011812 0.05667227 0.9779133
vn 0.2032284 0.04854774 0.977927
vn 0.2032281 0.04854785 0.9779271
vn 0.1990216 0.06088265 0.9781021
vn 0.1960687 0.07185953 0.9779537
vn 0.1932587 0.08403671 0.9775423
vn 0.1909517 0.09547966 0.9769447
vn 0.1893865 0.1055793 0.9762099
vn 0.1887427 0.1101036 0.9758347
vn 0.01989268 -0.996003 0.08707745
vn 0.0191555 -0.9955447 0.09232433
vn 0.01915117 -0.9955447 0.09232572
vn 0.01917055 -0.995545 0.09231675
vn 0.01918722 -0.9955459 0.09230517
vn 0.0191858 -0.9955454 0.09231094
vn 0.2032364 -0.9785271 0.03434578
vn 0.01189729 -0.07090835 -0.9974119
vn 0.02392424 -0.02237537 -0.9994634
vn 0.007970585 -0.08863401 -0.9960324
vn 0.02476746 0.01782369 -0.9995344
vn 0.02392424 -0.02237537 -0.9994634
vn 0.02943401 0.02680693 -0.9992072
vn 0.00475635 0.0292277 -0.9995615
vn 0 -1 4.371139E-08
vn 0 -1 4.371139E-08
vn 0 -1 4.371139E-08
vn 0 -1 4.371139E-08

vt 0.838734 0.725384
vt 0.835344 0.735208
vt 0.845568 0.733794
vt 0.841374 0.696623
vt 0.839769 0.710639
vt 0.848592 0.704777
vt 0.859675 0.735254
vt 0.869939 0.738663
vt 0.868153 0.728349
vt 0.873683 0.703972
vt 0.863011 0.70519
vt 0.869582 0.714284
vt 0.868153 0.728349
vt 0.838734 0.725384
vt 0.859675 0.735254
vt 0.845568 0.733794
vt 0.869582 0.714284
vt 0.848592 0.704777
vt 0.839769 0.710639
vt 0.863011 0.70519
vt 0.87004 0.697199
vt 0.867138 0.619498
vt 0.863011 0.70519
vt 0.848592 0.704777
vt 0.841374 0.696623
vt 0.867138 0.619498
vt 0.843049 0.619576
vt 0.843049 0.619576
vt 0.833706 0.704199
vt 0.841374 0.696623
vt 0.819192 0.702987
vt 0.812387 0.694352
vt 0.843049 0.619576
vt 0.819179 0.619821
vt 0.928732 0.693392
vt 0.915045 0.619852
vt 0.922219 0.702081
vt 0.907618 0.703553
vt 0.898995 0.696376
vt 0.891211 0.619591
vt 0.891211 0.619591
vt 0.892298 0.704651
vt 0.898995 0.696376
vt 0.877784 0.705071
vt 0.87004 0.697199
vt 0.891211 0.619591
vt 0.867138 0.619498
vt 0.825857 0.804938
vt 0.795158 0.736999
vt 0.793325 0.805177
vt 0.825757 0.736992
vt 0.796337 0.812439
vt 0.825857 0.804938
vt 0.793325 0.805177
vt 0.825838 0.812631
vt 0.818914 0.837834
vt 0.796598 0.829328
vt 0.793733 0.835814
vt 0.796598 0.829328
vt 0.818632 0.829778
vt 0.825418 0.823242
vt 0.818914 0.837834
vt 0.829698 0.839371
vt 0.818632 0.829778
vt 0.825838 0.812631
vt 0.796337 0.812439
vt 0.825418 0.823242
vt 0.818632 0.829778
vt 0.796598 0.829328
vt 0.737637 0.736993
vt 0.709094 0.73698
vt 0.730673 0.794849
vt 0.715898 0.807188
vt 0.703926 0.806143
vt 0.698789 0.799527
vt 0.793325 0.805177
vt 0.793733 0.835814
vt 0.796337 0.812439
vt 0.796598 0.829328
vt 0.766369 0.737
vt 0.761216 0.804291
vt 0.795158 0.736999
vt 0.761216 0.804291
vt 0.730673 0.794849
vt 0.737138 0.802773
vt 0.737637 0.736993
vt 0.761216 0.804291
vt 0.766369 0.737
vt 0.614788 0.771679
vt 0.614423 0.780651
vt 0.622085 0.782535
vt 0.61099 0.775925
vt 0.606552 0.777605
vt 0.608044 0.779815
vt 0.596542 0.780272
vt 0.587551 0.803181
vt 0.586714 0.818846
vt 0.600818 0.812714
vt 0.630694 0.810838
vt 0.624632 0.797239
vt 0.615521 0.810167
vt 0.596542 0.780272
vt 0.587551 0.803181
vt 0.600818 0.812714
vt 0.608044 0.779815
vt 0.614423 0.780651
vt 0.622085 0.782535
vt 0.624632 0.797239
vt 0.615521 0.810167
vt 0.589186 0.78138
vt 0.621583 0.710301
vt 0.61099 0.775925
vt 0.614788 0.771679
vt 0.606552 0.777605
vt 0.596542 0.780272
vt 0.589186 0.78138
vt 0.621583 0.710301
vt 0.59467 0.710434
vt 0.641722 0.77388
vt 0.642242 0.710214
vt 0.633832 0.783087
vt 0.622085 0.782535
vt 0.614788 0.771679
vt 0.642242 0.710214
vt 0.621583 0.710301
vt 0.66843 0.772149
vt 0.663756 0.71018
vt 0.660894 0.782384
vt 0.649382 0.782731
vt 0.641722 0.77388
vt 0.663756 0.71018
vt 0.642242 0.710214
vt 0.698013 0.778976
vt 0.68538 0.710199
vt 0.677383 0.780776
vt 0.66843 0.772149
vt 0.663756 0.71018
vt 0.775556 0.85565
vt 0.799025 0.839282
vt 0.775843 0.839002
vt 0.798716 0.852459
vt 0.796707 0.957463
vt 0.789049 0.951684
vt 0.784764 0.957919
vt 0.79355 0.951172
vt 0.790331 0.945206
vt 0.792615 0.944946
vt 0.792238 0.938494
vt 0.790733 0.938801
vt 0.792653 0.922464
vt 0.83785 0.987829
vt 0.838687 0.961922
vt 0.824897 0.988307
vt 0.814507 0.978508
vt 0.814826 0.95777
vt 0.800014 0.857458
vt 0.822421 0.85323
vt 0.798716 0.852459
vt 0.820113 0.858283
vt 0.814171 0.868961
vt 0.800898 0.869273
vt 0.814826 0.95777
vt 0.814171 0.868961
vt 0.820113 0.858283
vt 0.798716 0.852459
vt 0.775556 0.85565
vt 0.800014 0.857458
vt 0.800898 0.869273
vt 0.792653 0.922464
vt 0.790733 0.938801
vt 0.790331 0.945206
vt 0.789049 0.951684
vt 0.784764 0.957919
vt 0.773336 0.958217
vt 0.814826 0.95777
vt 0.79355 0.951172
vt 0.796707 0.957463
vt 0.792615 0.944946
vt 0.792238 0.938494
vt 0.792653 0.922464
vt 0.800898 0.869273
vt 0.838687 0.961922
vt 0.814171 0.868961
vt 0.814826 0.95777
vt 0.820113 0.858283
vt 0.814171 0.868961
vt 0.839328 0.856221
vt 0.822421 0.85323
vt 0.695134 0.786627
vt 0.635329 0.846433
vt 0.695134 0.846433
vt 0.635329 0.786627

usemtl MAT_Prop_01
f 1/1/1 2/2/2 3/3/3
f 4/4/4 5/5/5 6/6/6
f 7/7/7 8/8/8 9/9/9
f 10/10/10 11/11/11 12/12/12
f 13/13/13 14/14/14 15/15/15
f 15/15/15 14/14/14 16/16/16
f 17/17/17 14/14/14 13/13/13
f 14/14/14 17/17/17 18/18/18
f 14/14/14 18/18/18 19/19/19
f 20/20/20 18/18/18 17/17/17
f 21/21/21 22/22/22 23/23/23
f 23/23/23 22/22/22 24/24/24
f 24/24/24 22/22/22 25/25/25
f 25/25/25 26/26/26 27/27/27
f 28/28/28 29/29/29 30/30/30
f 28/28/28 31/31/31 29/29/29
f 28/28/28 32/32/32 31/31/31
f 32/32/32 33/33/33 34/34/34
f 35/35/35 36/36/36 37/37/37
f 37/37/37 36/36/36 38/38/38
f 38/38/38 36/36/36 39/39/39
f 39/39/39 36/36/36 40/40/40
f 41/41/41 42/42/42 43/43/43
f 41/41/41 44/44/44 42/42/42
f 41/41/41 45/45/45 44/44/44
f 45/45/45 46/46/46 47/47/47
f 48/48/48 49/49/49 50/50/50
f 49/49/49 48/48/48 51/51/51
f 52/52/52 53/53/53 54/54/54
f 53/53/53 52/52/52 55/55/55
f 56/56/56 57/57/57 58/58/58
f 59/59/59 56/56/56 60/60/60
f 61/61/61 62/62/62 63/63/63
f 62/62/62 61/61/61 64/64/64
f 65/65/65 66/66/66 67/67/67
f 67/67/67 66/66/66 68/68/68
f 68/68/68 66/66/66 69/69/69
f 70/70/70 71/71/71 72/72/72
f 71/71/71 73/73/73 72/72/72
f 71/71/71 74/74/74 73/73/73
f 74/74/74 71/71/71 75/75/75
f 76/76/76 77/77/77 78/78/78
f 78/78/78 77/77/77 79/79/79
f 76/76/76 80/80/80 81/81/81
f 80/80/80 76/76/76 82/82/82
f 83/83/83 84/84/84 85/85/85
f 83/83/83 86/86/86 84/84/84
f 86/86/86 87/87/87 88/88/88
f 89/89/89 90/90/90 91/91/91
f 90/90/90 89/89/89 92/92/92
f 93/93/93 90/90/90 92/92/92
f 90/90/90 93/93/93 94/94/94
f 93/93/93 95/95/95 94/94/94
f 96/96/96 97/97/97 98/98/98
f 99/99/99 100/100/100 101/101/101
f 102/102/102 103/103/103 104/104/104
f 104/104/104 105/105/105 102/102/102
f 105/105/105 104/104/104 106/106/106
f 106/106/106 104/104/104 107/107/107
f 107/107/107 104/104/104 108/108/108
f 108/108/108 104/104/104 109/109/109
f 103/103/103 102/102/102 110/110/110
f 111/111/111 112/112/112 113/113/113
f 111/111/111 114/114/114 112/112/112
f 111/111/111 115/115/115 114/114/114
f 111/111/111 116/116/116 115/115/115
f 116/116/116 117/117/117 118/118/118
f 119/119/119 120/120/120 121/121/121
f 121/121/121 120/120/120 122/122/122
f 122/122/122 120/120/120 123/123/123
f 123/123/123 124/124/124 125/125/125
f 126/126/126 127/127/127 128/128/128
f 128/128/128 127/127/127 129/129/129
f 129/129/129 127/127/127 130/130/130
f 130/130/130 131/131/131 132/132/132
f 133/133/133 134/134/134 135/135/135
f 135/135/135 134/134/134 136/136/136
f 136/136/136 134/134/134 137/137/137
f 138/138/138 139/139/139 140/140/140
f 139/139/139 138/138/138 141/141/141
f 142/142/142 143/143/143 144/144/144
f 143/143/143 142/142/142 145/145/145
f 145/145/145 146/146/146 143/143/143
f 146/146/146 145/145/145 147/147/147
f 148/148/148 146/146/146 147/147/147
f 146/146/146 148/148/148 149/149/149
f 150/150/150 149/149/149 148/148/148
f 151/151/151 152/152/152 153/153/153
f 153/153/153 152/152/152 154/154/154
f 154/154/154 152/152/152 155/155/155
f 156/156/156 157/157/157 158/158/158
f 157/157/157 156/156/156 159/159/159
f 160/160/160 156/156/156 161/161/161
f 161/161/161 162/162/162 160/160/160
f 156/156/156 163/163/163 164/164/164
f 165/165/165 166/166/166 167/167/167
f 167/167/167 166/166/166 168/168/168
f 168/168/168 166/166/166 169/169/169
f 169/169/169 166/166/166 170/170/170
f 170/170/170 166/166/166 171/171/171
f 171/171/171 166/166/166 172/172/172
f 172/172/172 166/166/166 173/173/173
f 173/173/173 166/166/166 174/174/174
f 175/175/175 176/176/176 177/177/177
f 175/175/175 178/178/178 176/176/176
f 175/175/175 179/179/179 178/178/178
f 175/175/175 180/180/180 179/179/179
f 175/175/175 181/181/181 180/180/180
f 182/182/182 183/183/183 184/184/184
f 182/182/182 185/185/185 186/186/186
f 185/185/185 182/182/182 187/187/187
f 185/185/185 187/187/187 188/188/188
f 189/189/189 190/190/190 191/191/191
f 190/190/190 189/189/189 192/192/192
